<svg width="125" height="95" fill="none" xmlns="http://www.w3.org/2000/svg"><g transform="translate(-.114 12.995) scale(1.09365)"><path stroke="#222" stroke-linecap="round" stroke-width="1.8" d="M21.5 33v2.5M28 33l-.5 3M5 43.5v.78a1 1 0 0 0 .684.948L11 47"/><path stroke="#222" stroke-linecap="round" stroke-width="1.624" d="M56 13.5c4.505 2.829 9.139 2.5 13 0"/><path fill="#222" d="M61.364 10.968c0 .81-.678 1.468-1.515 1.468-.837 0-1.515-.657-1.515-1.468 0-.81.678-1.468 1.515-1.468.837 0 1.515.657 1.515 1.468zm5.469 0c0 .81-.678 1.468-1.515 1.468-.837 0-1.516-.657-1.516-1.468 0-.81.679-1.468 1.516-1.468s1.515.657 1.515 1.468z"/><path stroke="#222" stroke-linecap="round" stroke-width="1.8" d="m37.5 49 6.259-3.852a1 1 0 0 1 .524-.148h24.6c.078 0 .155.01.231.027L79.5 47.5m-42.5-2 2.94-2.94a.101.101 0 0 0 .01-.13c-9.954-13.868-23.352-12.421-30.858-.083a.1.1 0 0 0 .085.153H12m42.5-19H60M74 39H38"/><path fill="#222" fill-rule="evenodd" d="M88.213 32.727a17.863 17.863 0 0 1 7.37-.873c5.59.518 10.424 3.656 12.702 7.705a.9.9 0 0 1-1.569.882c-1.809-3.215-5.593-5.885-10.144-6.645l.318 2.067a.9.9 0 0 1-1.78.274l-.39-2.54c-1.717-.083-3.51.11-5.32.643v2.26a.9.9 0 0 1-1.8 0v-1.617c-3.132 1.32-6.286 3.729-9.134 7.6l2.281.652a.9.9 0 0 1-.494 1.73l-3.367-.962a1 1 0 0 1-.55-1.526c3.554-5.202 7.702-8.244 11.877-9.65z" clip-rule="evenodd"/><path stroke="#222" stroke-linecap="round" stroke-width="1.8" d="m50.572 18.45.865-12.544a1 1 0 0 1 .971-.93l16.964-.459a1 1 0 0 1 .916.541l6.944 13.453a1 1 0 0 1-.907 1.459l-12.075-.22-12.698-.23a1 1 0 0 1-.98-1.07zM44 9h-6.117a4 4 0 0 0-3.795 2.735L31.5 19.5m4 0 1.327-4.645a3 3 0 0 1 3.115-2.167L44 13"/><path fill="#222" fill-rule="evenodd" d="M45.847 1.995a.1.1 0 0 1 .1-.095h25.984a.1.1 0 0 1 .086.049L82.45 19.495c.328.551.91.9 1.55.928l22.17.964c.019 0 .037.006.053.017l4.311 3.019c.028.02.044.052.043.086l-.439 10.091H108.5a1.9 1.9 0 0 0-1.9 1.9v6.72a1.9 1.9 0 0 0 2.361 1.843l4-1a1.9 1.9 0 0 0 1.439-1.844V36.5a1.9 1.9 0 0 0-1.9-1.9h-.56l.435-10.013a1.897 1.897 0 0 0-.808-1.639l-4.312-3.018a1.9 1.9 0 0 0-1.007-.342l-22.169-.964a.1.1 0 0 1-.082-.048L73.564 1.029A1.9 1.9 0 0 0 71.931.1H45.947a1.9 1.9 0 0 0-1.897 1.797l-.898 16.608a.1.1 0 0 1-.1.095H2.47a1.9 1.9 0 0 0-1.899 1.842L.105 35.817a1.9 1.9 0 0 0 .072.58l1.75 6.125A1.9 1.9 0 0 0 3.754 43.9H9a.9.9 0 0 0 0-1.8H3.754a.1.1 0 0 1-.096-.073l-1.75-6.125a.1.1 0 0 1-.004-.03l.15-4.972H7a.9.9 0 0 0 0-1.8H2.11l.066-2.2H7a.9.9 0 0 0 0-1.8H2.23l.14-4.603a.1.1 0 0 1 .1-.097h40.583a1.9 1.9 0 0 0 1.897-1.797ZM108.4 36.5a.1.1 0 0 1 .1-.1h4a.1.1 0 0 1 .1.1v5.72a.1.1 0 0 1-.076.096l-4 1a.1.1 0 0 1-.124-.097Z" clip-rule="evenodd"/><circle cx="24" cy="49" r="13.1" stroke="#222" stroke-width="1.8"/><circle cx="24" cy="49" r="7.1" stroke="#222" stroke-width="1.8"/><circle cx="93" cy="49" r="7.1" stroke="#222" stroke-width="1.8"/><circle cx="93" cy="49" r="13.1" stroke="#222" stroke-width="1.8"/><circle cx="70" cy="13.5" r="2.5" fill="#222"/><path fill="#222" d="M57.5 13.5a2.5 2.5 0 1 1-5 0 2.5 2.5 0 0 1 5 0z"/></g></svg>