<svg width="125" height="95" fill="none" xmlns="http://www.w3.org/2000/svg"><g transform="translate(7.023 -.239) scale(1.1933)"><path stroke="#222" stroke-linecap="round" stroke-width="1.8" d="M6.08 30.5c-6.5 0-6.5 12.5-1.5 14 3.388 1.016 5.5-2 7-4"/><path stroke="#222" stroke-linecap="round" stroke-width="1.8" d="m22.235 66.611.499-.749-.5.75a.134.134 0 0 1 .065.103v6.127a4.9 4.9 0 0 0 4.9 4.9h5.106a4.9 4.9 0 0 0 4.9-4.9v-.692c0-.024.005-.038.012-.05a.158.158 0 0 1 .195-.057c5.374 2.333 11.306 2.946 19.67.28a.132.132 0 0 1 .12.02.1.1 0 0 1 .036.039c.006.01.01.024.01.045v1.777c0 1.922 1.153 3.854 3.221 4.306 3.063.669 6.97.62 9.623-1.298.704-.51 1.143-1.262 1.321-2.052.495-2.189.39-4.733.308-6.718a67.76 67.76 0 0 1-.046-1.303c0-.013.007-.04.039-.064 2.421-1.772 4.072-3.084 5.506-4.63 1.437-1.549 2.628-3.3 4.177-5.92a.137.137 0 0 1 .06-.05.32.32 0 0 1 .15-.03c2.795.094 5.178-1.48 6.912-3.707 1.738-2.232 2.911-5.214 3.31-8.223.4-3.004.038-6.135-1.421-8.62-1.486-2.527-4.057-4.29-7.839-4.574-.09-.006-.136-.049-.151-.073-3.065-4.895-11.049-12.348-21.84-15.99-10.852-3.662-24.54-3.468-38.877 6.979-7.007 5.006-10.542 13.651-10.52 22.208.022 8.563 3.608 17.2 11.054 22.166z"/><path fill="#88b3ff" stroke="#88b3ff" stroke-linecap="round" stroke-width="1.8" d="M58.026 22.23c.945-6.605 3.874-10.095 7.19-11.99 3.374-1.927 7.262-2.27 10.213-2.328.022 0 .033.004.041.009.011.006.028.02.043.044a.183.183 0 0 1 .013.171c-1.972 4.464-2.883 10.433.138 16.61a.18.18 0 0 1 .004.15.114.114 0 0 1-.074.07l-13.076 3.486a.1.1 0 0 1-.107-.039l-4.37-6.116-.732.523.733-.523a.101.101 0 0 1-.016-.067Z"/><path fill="#88b3ff" stroke="#222" stroke-linecap="round" stroke-width="1.8" d="m22.235 66.611.499-.749-.5.75a.134.134 0 0 1 .065.103v6.127a4.9 4.9 0 0 0 4.9 4.9h5.106a4.9 4.9 0 0 0 4.9-4.9v-.692c0-.024.005-.038.012-.05a.158.158 0 0 1 .195-.057c5.374 2.333 11.306 2.946 19.67.28a.132.132 0 0 1 .12.02.1.1 0 0 1 .036.039c.006.01.01.024.01.045v1.777c0 1.922 1.153 3.854 3.221 4.306 3.063.669 6.97.62 9.623-1.298.704-.51 1.143-1.262 1.321-2.052.495-2.189.39-4.733.308-6.718a67.76 67.76 0 0 1-.046-1.303c0-.013.007-.04.039-.064 2.421-1.772 4.072-3.084 5.506-4.63 1.437-1.549 2.628-3.3 4.177-5.92a.137.137 0 0 1 .06-.05.32.32 0 0 1 .15-.03c2.795.094 5.178-1.48 6.912-3.707 1.738-2.232 2.911-5.214 3.31-8.223.4-3.004.038-6.135-1.421-8.62-1.486-2.527-4.057-4.29-7.839-4.574-.09-.006-.136-.049-.151-.073-3.065-4.895-11.049-12.348-21.84-15.99-10.852-3.662-24.54-3.468-38.877 6.979-7.007 5.006-10.542 13.651-10.52 22.208.022 8.563 3.608 17.2 11.054 22.166z"/><path stroke="#222" stroke-linecap="round" stroke-width="1.8" d="M91.08 39h-3m3 3h-3m-15-6c0 4 8 4 8 0m-4 9c6 4.5 11.5 2.667 14.5 0"/><circle cx="30.581" cy="12.5" r="11.4" stroke="#000" stroke-width="1.8"/><circle cx="30.581" cy="12.5" r="10.5" fill="#88b3ff"/><path stroke="#000" stroke-linecap="round" stroke-linejoin="round" stroke-width="1.8" d="M30.58 5v14m2.918-11h-4.375a2.06 2.06 0 0 0-1.444.586A1.98 1.98 0 0 0 27.08 10c0 .53.215 1.04.598 1.414.383.375.902.586 1.444.586h2.916c.542 0 1.06.21 1.444.586.383.375.598.884.598 1.414 0 .53-.215 1.04-.598 1.414a2.063 2.063 0 0 1-1.444.586H27.08"/><path fill="#88b3ff" d="M43.58 19.5c-6-.5-14 2.5-18 8 2.834 1.167 10.1 1.2 12.5-2 2.4-3.2 5.168-5.333 5.5-6z"/><path stroke="#222" stroke-linecap="round" stroke-width="1.8" d="M49.08 21C50.903 6.888 62.67 6.039 68.914 6c.756-.005 1.243.81.941 1.502-2.021 4.652-2.867 11.21.727 17.498"/><path stroke="#222" stroke-linecap="round" stroke-width="1.8" d="M57.08 22C58.899 7.916 69.386 6.63 75.413 6.512c.755-.015 1.242.797.937 1.488-2.018 4.568-2.859 10.717.732 17"/><path fill="#88b3ff" stroke="#88b3ff" stroke-linecap="round" stroke-width="1.8" d="m56.305 25.081-5.752-3.54c1.063-7.075 4.429-10.539 8.103-12.291 3.232-1.542 6.78-1.799 9.472-1.841-2.038 4.482-3.032 10.53.015 16.795z"/><path stroke="#222" stroke-linecap="round" stroke-width="1.8" d="M26.58 26c4-5.5 9.5-7 15.5-6.5"/><path fill="#222" d="M79.135 44.527a3.527 3.527 0 1 1-7.054 0 3.527 3.527 0 0 1 7.054 0z"/><path stroke="#222" stroke-linecap="round" stroke-width="1.8" d="M47.58 43c-1.5-14.5 33-6.5 0 16.5"/><path stroke="#222" stroke-linecap="round" stroke-width="1.8" d="M47.42 43c1.5-14.5-33-6.5 0 16.5"/></g></svg>