<svg width="125" height="95" fill="none" viewBox="-7 -7 138.889 105.555" xmlns="http://www.w3.org/2000/svg"><g transform="translate(7.804 -7.349) scale(.95294)"><path stroke="#222" stroke-width="1.8" d="M87.009 36.993 75.374 48.628a3.261 3.261 0 0 1-4.59-.344 3.261 3.261 0 0 1 .344-4.589l7.786-6.702"/><path stroke="#222" stroke-width="1.8" d="M83 33.227 71.449 43.695a3.261 3.261 0 0 1-4.589-.343 3.261 3.261 0 0 1 .344-4.59l11.55-10.468"/><path stroke="#222" stroke-width="1.8" d="M78.5 28.5 67.204 38.763a3.261 3.261 0 0 1-4.589-.344 3.261 3.261 0 0 1 .344-4.589l5.83-5.83M88.5 24c-6 .8-9.167-1.667-10-3l-6 5.5c-1.5 1.5-5.7 2.4-8.5-2 3.204-3.5 8-8 10.5-10.5C77.35 11.15 81 9 85 9.5c2 .25 4.125.875 6.063 2m4.937 5c-1.25-2.25-3-3.875-4.937-5M101.5 1 91.063 11.5m-3.865 25.252-12.03 12.03a3.261 3.261 0 0 0-.344 4.59 3.261 3.261 0 0 0 4.589.343l7.785-6.703 11.447-10.07c2.011-1.648 5.634-6.442 4.034-12.442l11-11m-26.67 61.007L75.374 62.872a3.261 3.261 0 0 0-4.59.344 3.261 3.261 0 0 0 .344 4.589l7.786 6.702"/><path stroke="#222" stroke-width="1.8" d="M83 78.273 71.449 67.805a3.261 3.261 0 0 0-4.589.343 3.261 3.261 0 0 0 .344 4.59l11.55 10.468"/><path stroke="#222" stroke-width="1.8" d="M78.5 83 67.204 72.737a3.261 3.261 0 0 0-4.589.344 3.261 3.261 0 0 0 .344 4.589l5.83 5.83m19.711 4c-6-.8-9.167 1.667-10 3l-6-5.5c-1.5-1.5-5.7-2.4-8.5 2 3.204 3.5 8 8 10.5 10.5 2.85 2.85 6.5 5 10.5 4.5 2-.25 4.125-.875 6.063-2M96 95c-1.25 2.25-3 3.875-4.937 5m10.437 10.5L91.063 100m-3.865-25.252-12.03-12.03a3.261 3.261 0 0 1-.344-4.59 3.261 3.261 0 0 1 4.589-.343l7.785 6.703 11.447 10.07c2.011 1.648 5.634 6.442 4.034 12.442l11 11M27.67 36.993l11.636 11.635a3.261 3.261 0 0 0 4.589-.344 3.261 3.261 0 0 0-.344-4.589l-7.786-6.702"/><path stroke="#222" stroke-width="1.8" d="m31.68 33.227 11.55 10.468a3.261 3.261 0 0 0 4.59-.343 3.261 3.261 0 0 0-.345-4.59l-11.55-10.468"/><path stroke="#222" stroke-width="1.8" d="m36.18 28.5 11.295 10.263a3.261 3.261 0 0 0 4.59-.344 3.261 3.261 0 0 0-.345-4.589L45.89 28m-19.71-4c6 .8 9.166-1.667 10-3l6 5.5c1.5 1.5 5.7 2.4 8.5-2-3.205-3.5-8-8-10.5-10.5-2.851-2.85-6.5-5-10.5-4.5-2 .25-4.126.875-6.063 2m-4.938 5c1.25-2.25 3-3.875 4.938-5M13.179 1l10.438 10.5m3.864 25.252 12.03 12.03a3.261 3.261 0 0 1 .345 4.59 3.261 3.261 0 0 1-4.59.343l-7.785-6.703-11.446-10.07C14.023 35.293 10.4 30.5 12 24.5l-11-11m26.67 61.007 11.636-11.635a3.261 3.261 0 0 1 4.589.344 3.261 3.261 0 0 1-.344 4.589l-7.786 6.702"/><path stroke="#222" stroke-width="1.8" d="m31.68 78.273 11.55-10.468a3.261 3.261 0 0 1 4.59.343 3.261 3.261 0 0 1-.345 4.59l-11.55 10.468"/><path stroke="#222" stroke-width="1.8" d="m36.18 83 11.295-10.263a3.261 3.261 0 0 1 4.59.344 3.261 3.261 0 0 1-.345 4.589l-5.83 5.83m-19.71 4c6-.8 9.166 1.667 10 3l6-5.5c1.5-1.5 5.7-2.4 8.5 2-3.205 3.5-8 8-10.5 10.5-2.851 2.85-6.5 5-10.5 4.5-2-.25-4.126-.875-6.063-2m-4.938-5c1.25 2.25 3 3.875 4.938 5m-10.438 10.5L23.617 100m3.864-25.252 12.03-12.03a3.261 3.261 0 0 0 .345-4.59 3.261 3.261 0 0 0-4.59-.343l-7.785 6.703-11.446 10.07C14.023 76.207 10.4 81 12 87L1 98"/><path fill="#88b3ff" stroke="#222" stroke-linecap="round" stroke-width="1.8" d="M77.5 59.5c8.984-8.984-1.463-27.933-18.907-17.556a.395.395 0 0 1-.199.056.395.395 0 0 1-.198-.056C40.752 31.567 30.306 50.516 39.289 59.5c10.507 10.507 16.214 16.54 18.916 18.442.056.04.12.058.19.058a.324.324 0 0 0 .189-.058c2.702-1.901 8.41-7.935 18.916-18.442Z"/><path stroke="#222" stroke-linecap="round" stroke-width="1.624" d="M49.498 55.233c5.967 3.666 12.105 3.24 17.22 0"/><ellipse cx="68.792" cy="54.357" fill="#222" rx="3.423" ry="3.527"/><path fill="#222" d="M51.054 54.357a3.527 3.527 0 1 1-7.054 0 3.527 3.527 0 0 1 7.054 0zm5.569-2.463c0 1.045-.875 1.893-1.954 1.893-1.08 0-1.955-.848-1.955-1.893 0-1.046.875-1.894 1.955-1.894s1.954.848 1.954 1.894zm7.054 0c0 1.045-.875 1.893-1.955 1.893s-1.954-.848-1.954-1.893c0-1.046.875-1.894 1.954-1.894 1.08 0 1.955.848 1.955 1.894z"/></g></svg>