<svg width="125" height="95" fill="none" viewBox="-9 -8 124.599 94.695" xmlns="http://www.w3.org/2000/svg"><mask id="a" fill="#fff"><path fill-rule="evenodd" d="M97.285 51.261a3 3 0 0 0 1.942 3.772l9.574 3.066a3 3 0 0 0 3.772-1.943l4.127-12.89c6.002 5.355 8.637 13.933 6.026 22.087-3.537 11.046-15.358 17.133-26.404 13.596-11.045-3.536-17.132-15.357-13.596-26.403 2.728-8.52 10.385-14.09 18.812-14.569z" clip-rule="evenodd"/></mask><g transform="translate(.02 -1.915) scale(1.04866)"><path stroke="#222" stroke-linecap="round" stroke-width="1.8" d="m70.737 58.219 16.5 14.5m-20.5-10.5 16.5 14.5"/><path stroke="#222" stroke-linecap="round" stroke-width="1.624" d="M59.7 16.27c.889 5.29 4.224 8.619 8.669 9.94"/><ellipse cx="66.279" cy="-34.971" fill="#222" rx="2.622" ry="2.701" transform="rotate(48.91)"/><path fill="#222" d="M60.99 16.729a2.701 2.701 0 1 1-3.551-4.072 2.701 2.701 0 0 1 3.55 4.072zm4.225 1.974c-.603.526-1.533.448-2.076-.175-.544-.623-.495-1.555.109-2.082.603-.526 1.533-.448 2.077.176.543.623.494 1.555-.11 2.08zm3.552 4.072c-.604.526-1.534.448-2.077-.175-.544-.623-.495-1.555.109-2.082.603-.526 1.533-.448 2.077.175.543.624.494 1.555-.11 2.082z"/><path stroke="#222" stroke-linecap="round" stroke-width="1.8" d="m52.976 19.982-41.89 48.876c-7.585 8.85 4.76 19.032 12.15 10.41l39.61-46.217"/><path fill="#222" d="m99.227 55.033-.549 1.715zm-1.942-3.772-1.714-.548zm11.516 6.838.549-1.714zm3.772-1.942-1.714-.55zm4.127-12.89 1.198-1.343-2.067-1.845-.845 2.64zm6.026 22.086-1.714-.549zM96.322 78.95l-.549 1.715ZM82.726 52.546l1.715.549zm18.812-14.569 1.715.55.798-2.495-2.615.148zM99.776 53.32A1.2 1.2 0 0 1 99 51.81l-3.428-1.097a4.8 4.8 0 0 0 3.107 6.035zm9.574 3.066-9.574-3.066-1.098 3.429 9.574 3.065zm1.509-.777a1.2 1.2 0 0 1-1.509.777l-1.098 3.428a4.8 4.8 0 0 0 6.035-3.108zm4.127-12.89-4.127 12.89 3.428 1.097 4.127-12.89zm.516 1.892c5.491 4.898 7.896 12.741 5.51 20.194l3.428 1.098c2.836-8.856-.028-18.168-6.542-23.978zm5.51 20.194c-3.234 10.1-14.042 15.665-24.14 12.431l-1.098 3.429c11.992 3.84 24.826-2.77 28.666-14.762zm-24.14 12.431c-10.1-3.233-15.665-14.041-12.431-24.14l-3.43-1.098c-3.839 11.992 2.77 24.827 14.763 28.667zM84.44 53.095c2.493-7.787 9.49-12.882 17.199-13.32l-.204-3.595c-9.147.52-17.462 6.564-20.424 15.817Zm14.558-1.285 4.254-13.284-3.429-1.097-4.253 13.284Z" mask="url(#a)" transform="translate(-30.263 -43.78)"/><rect width="7.8" height="46.241" x="57.327" y="-11.202" stroke="#222" stroke-width="1.8" rx="1" transform="rotate(40.598)"/><path stroke="#222" stroke-width="1.8" d="M15.515 75.984c1.614 1.383 4.05 1.27 5.433-.346 1.384-1.615 1.124-4.04-.49-5.422-1.612-1.382-4.048-1.27-5.432.346-1.384 1.616-1.124 4.04.49 5.423zm51.02-29.271c-.767 3.18.927 4.634 3.32 4.127M55.662 59.4c3.026-1.243 4.72.209 4.586 2.65M71.68 50.403a1 1 0 0 0-1.41.108L59.338 63.267a1 1 0 0 0 .108 1.41L79.87 82.183a5.9 5.9 0 0 0 8.32-.64l4.554-5.316a5.9 5.9 0 0 0-.64-8.32z"/><rect width="6.8" height="17.8" x="74.224" y="-8.376" stroke="#222" stroke-width="1.8" rx="1" transform="rotate(40.598)"/><path fill="#88b3ff" stroke="#222" stroke-linecap="round" stroke-width="1.8" d="m56.639 47.467-.75.937a1 1 0 0 1-1.438.129l-34.504-30.13a1 1 0 0 0-.484-.232l-7.73-1.364a1 1 0 0 1-.72-.538L7.559 9.364a1 1 0 0 1 .188-1.154L11.2 4.756a1 1 0 0 1 1.197-.165l6.98 3.927a1 1 0 0 1 .472.597l1.806 6.32a1 1 0 0 0 .304.479l34.555 30.175a1 1 0 0 1 .123 1.378z"/><path fill="#222" d="M13.052 11.198c.264.295.236.77-.063 1.063-.3.29-.757.289-1.022-.007-.265-.295-.237-.77.063-1.062.3-.292.757-.29 1.022.006zm1.957-1.906c.264.295.236.77-.063 1.063-.3.29-.757.289-1.022-.007-.265-.295-.237-.77.063-1.062.3-.292.757-.29 1.022.006z"/><path stroke="#222" stroke-linecap="round" stroke-width="1.624" d="M13.36 13.484c1.612-.36 2.607-1.47 2.98-2.904"/></g></svg>