<svg width="125" height="95" fill="none" xmlns="http://www.w3.org/2000/svg"><g transform="translate(-.604 2.18) scale(1.01446)"><path stroke="#222" stroke-linecap="round" stroke-width="1.8" d="M102 44.5c-7.294 10.212-7.021 19.478-2.401 34.698a1.026 1.026 0 0 1-.957 1.32c-4.049.096-9.419.571-12.05.824-.736.07-1.35-.663-1.234-1.393.733-4.58.76-18.837-21.358-36.449m8-2.5c3.192 2.394 9.716 8.181 11.317 12.883.037.108.216.087.223-.027L84 46.5m6.5-1.5c-.159 2.386-.197 7.321.843 10.548.033.103.182.084.191-.024.298-3.292 1.942-9.143 3.466-9.524"/><ellipse cx="34.792" cy="61.357" fill="#222" rx="3.423" ry="3.527"/><path stroke="#222" stroke-linecap="round" stroke-width="1.8" d="M10.5 53.5c-3-12 8.388-9.153 11-8.5 2 .5 4.545-.627 6-1.5 2.5-1.5 7-1.5 9 .5C38 45.5 40 48 40 54.5m32.484-12.995c5.635 5.676 12.175 5.005 16 2.81a1.117 1.117 0 0 1 1.052-.032c2.818 1.398 8.502 2.97 12.939.084a1.122 1.122 0 0 1 1.111-.056c24.052 12.53 23.334-16.516 10.475-23.044a1.103 1.103 0 0 1-.599-.89c-.708-8.853-8.407-12.188-12.587-12.826a1.082 1.082 0 0 1-.632-.336c-7.732-8.472-15.895-7.22-21.342-1.64-.251.259-.616.37-.972.318-2.237-.332-6.174.022-8.138 3.53a1.15 1.15 0 0 1-.936.593c-7.07.362-9.434 6.666-9.81 10.367a1.124 1.124 0 0 1-.612.884c-11.645 5.87-6.728 27.614 12.904 20 .39-.152.851-.06 1.147.238z"/><path stroke="#222" stroke-linecap="round" stroke-width="1.8" d="M13.5 83c-8-1-6.5-8-8-18.5S-1 47.5 3 42s8.5-4.5 10.5-4 5.5 3 5 6"/><path stroke="#222" stroke-linecap="round" stroke-width="1.8" d="M31.5 41.5c2.5-6 12-4.5 14-.5s2 7.5 1 11.5M12.5 77c3 11.5 19.5 16 24.5 2.5"/><path stroke="#222" stroke-linecap="round" stroke-width="1.8" d="M17.5 40.5c6-2.5 5-9.5 4-14.5s-6.5-2.5-5 2.5c1.478 4.926-5.295 4.028-4.06.175a1.26 1.26 0 0 0 .062-.356c.074-3.953 2.566-8.311 6.998-7.819 4.5.5 5 3.5 6 5.5S26 41 32 40.5"/><path stroke="#222" stroke-linecap="round" stroke-width="1.624" d="M15.498 62.233c5.967 3.666 12.105 3.24 17.22 0"/><path stroke="#222" stroke-linecap="round" stroke-width="1.8" d="M36 37.5c-4-4-7-2-8-1M14 38c2.4-3.2 6-2.333 7.5-1.5"/><path fill="#88b3ff" stroke="#222" stroke-linecap="round" stroke-width="1.8" d="M33 68c.499-3.493-.496-17.448 19.389-16.008a.103.103 0 0 0 .111-.1v-3.188a.1.1 0 0 1 .161-.078l4.29 3.335a.1.1 0 0 0 .105.01l4.847-2.422a.1.1 0 0 1 .137.052l.943 2.356a.1.1 0 0 0 .061.058l2.921.973a.098.098 0 0 0 .068-.001C71.061 51.024 84.997 56.525 83.5 68c-.5 18.466-9.965 20.99-26.906 20.005a1.064 1.064 0 0 0-.19.007C36.986 90.438 32.502 71.494 33 68Z"/><path fill="#88b3ff" stroke="#222" stroke-linecap="round" stroke-width="1.4" d="m48.279 54.112 4.31-1.357a.1.1 0 0 0 .07-.095V49l4.366 2.903a.1.1 0 0 0 .097.007l4.53-2.075a.1.1 0 0 1 .125.034l1.4 2.032a.1.1 0 0 0 .062.04l3.51.74a.1.1 0 0 1 .031.183l-3.495 2.085a.1.1 0 0 0-.034.137l2.015 3.41a.1.1 0 0 1-.12.145l-6.057-2.154a.1.1 0 0 0-.101.02l-4.691 4.338a.1.1 0 0 1-.168-.074v-4.235a.1.1 0 0 0-.065-.093l-5.79-2.142a.1.1 0 0 1 .005-.189z"/><path fill="#88b3ff" stroke="#222" stroke-linecap="round" stroke-width="1.8" d="m58.887 43.849-.15-.884-.885.147-3 .5-1.287.215.658 1.127c1.672 2.867 2.32 5.704 2.624 7.517a42.699 42.699 0 0 1 .175 1.157l.004.023c.04.279.08.563.129.75.014.052.037.132.075.217l.001.002a.978.978 0 0 0 .37.429.92.92 0 0 0 1.074-.07c.164-.133.244-.292.268-.341.064-.129.109-.276.14-.385.034-.126.072-.28.112-.454.603-2.599.715-4.11.557-5.513-.077-.685-.217-1.326-.37-2.012l-.031-.138a42.394 42.394 0 0 1-.464-2.287z"/><path stroke="#222" stroke-linecap="round" stroke-width="1.624" d="M78.498 33.233c5.967 3.666 12.105 3.24 17.22 0m-45.22 38c5.967 3.666 12.105 3.24 17.22 0"/><ellipse cx="97.792" cy="32.357" fill="#222" rx="3.423" ry="3.527"/><ellipse cx="69.792" cy="70.357" fill="#222" rx="3.423" ry="3.527"/><path fill="#222" d="M80.054 32.357a3.527 3.527 0 1 1-7.054 0 3.527 3.527 0 0 1 7.054 0zm-28 38a3.527 3.527 0 1 1-7.054 0 3.527 3.527 0 0 1 7.054 0zm-35-9a3.527 3.527 0 1 1-7.054 0 3.527 3.527 0 0 1 7.054 0zm68.569-31.464c0 1.046-.875 1.894-1.954 1.894-1.08 0-1.955-.848-1.955-1.893 0-1.046.875-1.894 1.955-1.894s1.954.848 1.954 1.893zm7.054 0c0 1.046-.875 1.894-1.955 1.894s-1.954-.848-1.954-1.893c0-1.046.875-1.894 1.954-1.894 1.08 0 1.955.848 1.955 1.893zM57.623 67.894c0 1.045-.875 1.893-1.954 1.893-1.08 0-1.955-.848-1.955-1.894 0-1.045.875-1.893 1.955-1.893s1.954.848 1.954 1.894zm7.054 0c0 1.045-.875 1.893-1.955 1.893s-1.954-.848-1.954-1.894c0-1.045.875-1.893 1.954-1.893 1.08 0 1.955.848 1.955 1.894zm-42.054-9c0 1.045-.875 1.893-1.954 1.893-1.08 0-1.955-.848-1.955-1.893 0-1.046.875-1.894 1.955-1.894s1.954.848 1.954 1.894zm7.054 0c0 1.045-.875 1.893-1.955 1.893s-1.954-.848-1.954-1.893c0-1.046.875-1.894 1.954-1.894 1.08 0 1.955.848 1.955 1.894z"/></g></svg>