<svg width="125" height="95" fill="none" xmlns="http://www.w3.org/2000/svg"><g transform="matrix(1.18087 0 0 1.18526 2.5 3.114)"><path stroke="#222" stroke-linecap="round" stroke-width="1.624" d="M32.449 21.162v5.602m0 9.543v5.394"/><path stroke="#222" stroke-width="1.624" d="M27.615.812h46.39c.548 0 .993.445.993.993v71.286a.993.993 0 0 1-.993.993h-46.39a.993.993 0 0 1-.993-.993V1.805c0-.548.445-.993.993-.993zm-.56 30.308h47.302"/><path stroke="#222" stroke-linecap="round" stroke-width="1.624" d="M42.096 18.304c5.967 3.666 12.105 3.24 17.22 0"/><ellipse cx="61.391" cy="17.428" fill="#222" rx="3.423" ry="3.527"/><path fill="#222" d="M43.652 17.428a3.527 3.527 0 1 1-7.054 0 3.527 3.527 0 0 1 7.054 0zm5.569-2.464c0 1.046-.875 1.894-1.954 1.894-1.08 0-1.955-.848-1.955-1.894 0-1.046.875-1.893 1.955-1.893s1.954.848 1.954 1.893zm7.054 0c0 1.046-.875 1.894-1.955 1.894-1.079 0-1.954-.848-1.954-1.894 0-1.046.875-1.893 1.955-1.893 1.079 0 1.954.848 1.954 1.893z"/><path stroke="#222" stroke-linecap="round" stroke-width="1.62" d="m87.791 35.972-6.721 2.434a.1.1 0 0 0 0 .188l6.74 2.44a.056.056 0 0 1 .035.035l2.467 6.894c.018.05.088.05.106 0l2.467-6.894a.056.056 0 0 1 .034-.034l6.854-2.482a.057.057 0 0 0 0-.106l-6.854-2.482a.056.056 0 0 1-.034-.034l-2.467-6.894a.056.056 0 0 0-.106 0l-2.46 6.875a.1.1 0 0 1-.06.06zm-1.113-20.83 4.872 1.764a.1.1 0 0 1 0 .188l-4.898 1.774a.041.041 0 0 0-.025.025l-1.818 5.08a.041.041 0 0 1-.078 0l-1.819-5.08a.041.041 0 0 0-.024-.025l-5.05-1.829a.042.042 0 0 1 0-.078l5.05-1.829a.041.041 0 0 0 .025-.025l1.818-5.08a.041.041 0 0 1 .078 0l1.808 5.054a.1.1 0 0 0 .06.06zM100.81 26h-4m2 2v-4m-11 35h-8m4-4v8M13.829 35.972l6.721 2.434a.1.1 0 0 1 0 .188l-6.74 2.44a.056.056 0 0 0-.035.035l-2.467 6.894a.056.056 0 0 1-.106 0l-2.467-6.894a.056.056 0 0 0-.034-.034l-6.854-2.482a.057.057 0 0 1 0-.106l6.854-2.482a.056.056 0 0 0 .034-.034l2.467-6.894a.056.056 0 0 1 .106 0l2.46 6.875a.1.1 0 0 0 .06.06zm1.114-20.83-4.873 1.764a.1.1 0 0 0 0 .188l4.898 1.774a.039.039 0 0 1 .025.025l1.819 5.08a.041.041 0 0 0 .077 0l1.819-5.08a.041.041 0 0 1 .024-.025l5.05-1.829a.042.042 0 0 0 0-.078l-5.05-1.829a.041.041 0 0 1-.024-.025l-1.819-5.08a.041.041 0 0 0-.078 0l-1.808 5.054a.1.1 0 0 1-.06.06zM.81 26h4m-2 2v-4m11 35h8m-4-4v8"/></g></svg>