<svg width="125" height="95" xmlns="http://www.w3.org/2000/svg"><g transform="translate(-14.94 -.254) scale(.51626)"><path fill="#f38c48" stroke="#222" stroke-width="4" d="M118.199 157.271c5.57 8.976 12.663 5.184 15.514 2.166m-15.514-2.166c-6.368-.117-34.506 11.78-35.602 16.732-.398 4.33 0 7.086 0 8.07 0 .788 35.403.328 53.105 0 1.193-6.299 2.466-19.644-1.99-22.636m-15.513-2.166 3.866-15.444 15.547 1.295-3.9 16.315m37.305-2.943c-5.57 8.976-12.664 5.183-15.515 2.165m15.514-2.165c6.365-.122 34.507 11.781 35.602 16.731.398 4.331 0 7.087 0 8.071 0 .787-35.403.328-53.105 0-1.193-6.299-2.466-19.645 1.99-22.637m15.513-2.165v-14.667h-15.514v16.832"/><path fill="#fdb3b9" stroke="#222" stroke-width="4" d="M88.361 94.24c-5.998-35.13 0-67.453 56.106-48.668 58.786-21.379 69.164 17.231 59.528 51.328-7.213 25.52-14.455 55.898-59.528 43.358-42.022 14.764-53.511-30.822-56.106-46.018Z"/><path fill="#ff6262" d="M129.567 99.545c-.741-7.413 4.818-12.972 8.524 1.482z"/><path fill="none" stroke="#222" stroke-width="4" d="M122.087 93.498c8.908 10.378 32.579 11.354 42.25 0m-71.034 72.603c1.611 2.421 3.222 3.631 6.04 3.429 8.087-1.955 14.12-5.611 21.945-8.27m14.509 11.92c-29.633 3.246-46.55 1.968-51.304.923m111.418-8.779c-1.61 2.421-3.221 3.631-6.039 3.429-8.087-1.954-14.12-5.615-21.945-8.27m-14.51 11.919c29.635 3.246 46.551 1.967 51.305.922"/><path fill="#f53636" d="M118.381 95.356c-13.1-2.05-9.575-17.509 0-17.8 13.1 2.05 9.575 17.509 0 17.8zm48.923 0c-13.1-2.05-9.575-17.509 0-17.8 13.1 2.05 9.575 17.509 0 17.8z"/><path fill="#222" d="M148.772 91.676c-6.344-.656-4.684-8.758 0-8.9 6.344.656 4.684 8.758 0 8.9zm-12.45 0c-6.344-.656-4.684-8.758 0-8.9 6.344.656 4.684 8.758 0 8.9z"/><path fill="#d38d5f" stroke="#222" stroke-width="4" d="M142.101 19.745H129.13c2.195 9.875 11.527 28.83 14.454 24.09 2.927-4.74-2.595-10.748-1.483-24.09z"/><path fill="#222" stroke="#222" stroke-width="4" d="M145.437 43.835c-.494-12.479 4.373-38.174 27.797-41.139 2.594 9.636.667 31.355-27.797 41.139z"/><rect width="48.669" height="64.758" x="169.283" y="50.191" fill="#f6f6f6" rx="5"/><path fill="#222" d="M215.648 48.317h-44.063c-1.168 0-2.29.457-3.116 1.27a4.303 4.303 0 0 0-1.29 3.067v60.717c0 1.15.464 2.253 1.29 3.067a4.443 4.443 0 0 0 3.116 1.27h44.063a4.446 4.446 0 0 0 3.116-1.27 4.306 4.306 0 0 0 1.29-3.067V52.654c0-1.15-.464-2.253-1.29-3.067a4.445 4.445 0 0 0-3.116-1.27zm0 65.054h-44.063V52.654h44.063z"/><path fill="#fdb3b9" stroke="#222" stroke-width="4" d="M203.688 44.724c3.706.73 4.013 3.634 3.272 7.282-.742 3.648-6.991 6.195-10.326 6.195-3.336 0-10.429-1.452-10.429-6.195-3.584-10.378 10.717-8.403 17.483-7.282zm-28.231 4.363c-2.026-3.324 5.559-7.667 10.328-3.29 1.496 5.802-8.998 4.79-10.328 3.29zM86.201 93.128c-11.732 13.231 3.534 25.704 12.908 30.391-4.572-10.017-8.728-20.207-12.908-30.391z"/><circle cx="180.144" cy="63.48" r="2" fill="#222"/><circle cx="180.144" cy="72.163" r="2" fill="#222"/><circle cx="180.144" cy="80.753" r="2" fill="#222"/><circle cx="180.144" cy="89.53" r="2" fill="#222"/><circle cx="180.144" cy="98.12" r="2" fill="#222"/><path stroke="#222" stroke-linecap="square" stroke-width="4" d="M188.51 98.12h16.325m-16.325-8.59h16.325M188.51 72.163h16.325M188.51 63.48h16.325M188.51 80.753h16.325"/><path fill="#fcedc8" stroke="#222" stroke-linecap="round" stroke-width="1.431" d="m159.415 158.95-1.431-.81-.098-6.466-.097-6.467 5.554.01 5.555.01v10.819l-1.521 1.464c-.837.806-1.873 1.644-2.303 1.864-1.322.676-4.082.47-5.66-.422zm-34.685 1.368c-.773-.278-2.044-1.144-2.825-1.925l-1.42-1.42 1.144-4.593a733.418 733.418 0 0 1 1.482-5.881l.34-1.286 5.72-.01c5.649-.008 5.72.002 5.547.75-2.13 9.18-3.067 12.513-3.638 12.946-2.073 1.57-4.45 2.101-6.35 1.419z"/></g></svg>