<svg width="61" height="87" fill="none" xmlns="http://www.w3.org/2000/svg"><path fill="#FEE1E1" d="m24.205 76.103-4.848.173c-1.731-2.078-.537-6.58-.346-9.003l7.618.693-2.424 8.137Zm17.833-1.039-5.713 1.039c-1.732-2.078-.825-6.06-.633-8.484l6.693.693-.347 6.752Z"/><path stroke="#222" stroke-linecap="round" stroke-width="1.869" d="M17.714 74.21c2.602 4.194 5.916 2.422 7.248 1.012m-7.248-1.012c-.282-.022-.56-.039-.836-.05-8.176 2.165-15.615 5.898-15.795 7.867-.186 2.022 0 3.31 0 3.77 0 .368 16.538.153 24.808 0 .557-2.943 1.152-9.177-.93-10.575m-7.247-1.012 1.806-7.215 7.263.606-1.821 7.62"/><path stroke="#222" stroke-linecap="round" stroke-width="1.869" d="M6.084 78.336c.753 1.13 1.505 1.696 2.822 1.602 1.316-.095 3.856-1.32 6.207-2.262 1.881-.754 3.198-1.32 4.044-1.602m6.778 5.569c-13.843 1.516-21.746.919-23.967.43m40.42-8.226c-2.602 4.193-5.916 2.422-7.247 1.012m7.247-1.012c.282-.022.56-.039.836-.05 8.177 2.165 15.615 5.898 15.796 7.866.186 2.023 0 3.31 0 3.77 0 .368-16.539.154-24.809 0-.557-2.942-1.152-9.177.93-10.574m7.247-1.012v-6.852h-7.247v7.864"/><path stroke="#222" stroke-linecap="round" stroke-width="1.869" d="M54.018 77.973c-.753 1.13-1.505 1.696-2.822 1.602-1.316-.095-3.856-1.32-6.207-2.262-1.881-.754-3.198-1.32-4.044-1.602m-6.779 5.568c13.844 1.516 21.747.919 23.968.43"/><path fill="#FEE1E1" stroke="#222" stroke-linecap="round" stroke-width="1.869" d="M3.775 44.765c-2.802-16.41 0-31.51 26.21-22.735 27.463-9.988 32.31 8.05 27.81 23.978-3.37 11.922-6.753 26.113-27.81 20.255-19.63 6.897-24.998-14.4-26.21-21.498Z"/><path fill="#FF6262" d="M23.025 47.243c-.346-3.463 2.25-6.06 3.982.693l-3.982-.693Z"/><path stroke="#222" stroke-linecap="round" stroke-width="1.953" d="M19.53 44.419c4.162 4.848 15.22 5.304 19.738 0"/><circle cx="40.695" cy="41.637" r="4.198" fill="#FF6262"/><circle cx="17.842" cy="41.637" r="4.198" fill="#FF6262"/><path fill="#222" d="M27.935 41.556a1.916 1.916 0 1 1-3.832 0 1.916 1.916 0 0 1 3.832 0Z"/><circle cx="31.835" cy="41.487" r="1.916" fill="#222"/><path stroke="#222" stroke-linecap="round" stroke-width="1.869" d="M28.88 9.965h-6.06c1.026 4.613 5.385 13.468 6.753 11.253 1.367-2.214-1.212-5.02-.693-11.253Z"/><path fill="#222" stroke="#222" stroke-linecap="round" stroke-width="1.869" d="M30.438 21.218C30.208 15.39 32.481 3.385 43.423 2c1.212 4.502.312 14.647-12.985 19.218Z"/></svg>