<svg width="163" height="245" fill="none" xmlns="http://www.w3.org/2000/svg"><path fill="#fff" d="M15 2h133c7.18 0 13 5.82 13 13v214.162c0 7.179-5.82 13-13 13H15c-7.18 0-13-5.82-13-13V15C2 7.82 7.82 2 15 2Z"/><path fill="#fff" fill-opacity=".1" d="M15 2h133c7.18 0 13 5.82 13 13v214.162c0 7.179-5.82 13-13 13H15c-7.18 0-13-5.82-13-13V15C2 7.82 7.82 2 15 2Z"/><path stroke="#222" stroke-width="4" d="M15 2h133c7.18 0 13 5.82 13 13v214.162c0 7.179-5.82 13-13 13H15c-7.18 0-13-5.82-13-13V15C2 7.82 7.82 2 15 2Z"/><path stroke="#222" stroke-linecap="round" stroke-width="4" d="M21.644 68.986v18.262m0 31.112v17.585"/><path stroke="#222" stroke-width="4" d="M.43 101.147h160.605"/><path stroke="#222" stroke-linecap="round" stroke-width="4" d="M53 61c19.406-9.9 39.366-8.749 56 0"/><ellipse cx="112.95" cy="57.782" fill="#f53636" rx="11.16" ry="11.498"/><path fill="#f53636" d="M60.871 57.782c0 6.35-5.148 11.498-11.498 11.498s-11.498-5.148-11.498-11.498 5.148-11.498 11.498-11.498 11.498 5.148 11.498 11.498Z"/><path stroke="#222" stroke-linecap="round" stroke-width="4" d="M88 43.59c0 6.667 11 6.667 11 0m-34 0c0 6.667 11 6.667 11 0"/><path fill="#fff" stroke="#222" stroke-linecap="round" stroke-linejoin="round" stroke-width="4" d="m71.65 179.748-3.865-48.964 16.903 15.345 22.829.063-35.867 33.556Z"/><path stroke="#222" stroke-linecap="round" stroke-linejoin="round" stroke-width="4" d="m71.65 179.748 13.038-33.619"/><path stroke="#222" stroke-linecap="round" stroke-width="4" d="M130.292 119.905c-25.555 24.433-46.292 54.654 1.524 39.826m-92.547-39.826c25.555 24.433 46.292 54.654-1.524 39.826"/></svg>