<svg width="313" height="280" fill="none" xmlns="http://www.w3.org/2000/svg"><path fill="#fff" d="M77.767 50c0-7.18 5.82-13 13-13h133c7.18 0 13 5.82 13 13v214.162c0 7.179-5.82 13-13 13h-133c-7.18 0-13-5.82-13-13V50Z"/><path fill="#fff" fill-opacity=".1" d="M77.767 50c0-7.18 5.82-13 13-13h133c7.18 0 13 5.82 13 13v214.162c0 7.179-5.82 13-13 13h-133c-7.18 0-13-5.82-13-13V50Z"/><path stroke="#222" stroke-width="4" d="M77.767 50c0-7.18 5.82-13 13-13h133c7.18 0 13 5.82 13 13v214.162c0 7.179-5.82 13-13 13h-133c-7.18 0-13-5.82-13-13V50Z"/><path stroke="#222" stroke-linecap="round" stroke-width="4" d="M97.411 103.986v18.262m0 31.112v17.585"/><path stroke="#222" stroke-width="4" d="M76.197 136.147h160.605"/><path stroke="#222" stroke-linecap="round" stroke-width="4" d="M128.602 94.667c19.453 11.95 39.462 10.56 56.137 0"/><ellipse cx="198.61" cy="89.782" fill="#ff6262" rx="11.16" ry="11.498" transform="translate(-10.152)"/><path fill="#ff6262" d="M136.378 89.782c0 6.35-5.147 11.498-11.497 11.498s-11.498-5.148-11.498-11.498 5.148-11.498 11.498-11.498 11.497 5.148 11.497 11.498Z"/><path stroke="#222" stroke-linecap="round" stroke-width="4" d="M163.508 83.59c0-6.666 11-6.666 11 0m-34 0c0-6.666 11-6.666 11 0"/><path stroke="#222" stroke-dasharray="8,12" stroke-linecap="round" stroke-width="4" d="M250.359 141c41.5-36.5-27-55.5 9.5-84.5 21.673-17.22 40.089-42.796 41.5-49.5"/><path fill="#fff" stroke="#222" stroke-linecap="round" stroke-linejoin="round" stroke-width="4" d="m304.699 3-6.204 48.723-13.417-18.47-22.336-4.719L304.699 3Z"/><path stroke="#222" stroke-linecap="round" stroke-linejoin="round" stroke-width="4" d="m304.699 3-19.621 30.253"/></svg>