<svg xmlns="http://www.w3.org/2000/svg" width="32" height="32" style="fill:none" shape-rendering="crispEdges"><g transform="matrix(.519 0 0 .519 33.609 -55.555)"><path style="fill:#fff;stroke:#000;stroke-width:1.66325867;stroke-miterlimit:4;stroke-dasharray:none;stroke-opacity:1" d="M-57.65-25.313a3.223 3.223 0 0 1 3.222-3.223h33.468a3.223 3.223 0 0 1 3.223 3.223v53.549a3.223 3.223 0 0 1-3.223 3.223h-33.468a3.223 3.223 0 0 1-3.222-3.223z"/><path style="stroke:#000;stroke-width:1.66325867;stroke-linecap:round;stroke-miterlimit:4;stroke-dasharray:none;stroke-opacity:1" d="M-52.692-11.678v4.462M-52.692.47v4.462"/><path style="stroke:#000;stroke-width:.9916448;stroke-opacity:1" d="M-57.155-3.745h39.17"/><path style="stroke:#000;stroke-width:.9916448;stroke-linecap:round;stroke-opacity:1" d="M-44.76-14.157c4.812 3.156 9.76 2.789 13.884 0"/><circle style="fill:red;fill-opacity:1;stroke-width:.2479112" r="2.727" cy="-15.273" cx="-29.884"/><circle style="fill:red;fill-opacity:1;stroke-width:.2479112" r="2.727" cy="-15.273" cx="-45.999"/><circle style="fill:#000;fill-opacity:1;stroke-width:.27720979" r="1.525" cy="-20.022" cx="-34.558"/><circle style="fill:#000;fill-opacity:1;stroke-width:.27720979" r="1.525" cy="-20.022" cx="-40.706"/></g><g transform="translate(61.368 -34.284)"><path style="fill:#999;fill-opacity:1;stroke:none;stroke-width:1.45454609;stroke-linecap:round;stroke-linejoin:round;stroke-opacity:1" d="M28.364 13.223c0 9.72-12.364 18.05-12.364 18.05s-12.364-8.33-12.364-18.05c0-3.314 1.303-6.492 3.622-8.836A12.297 12.297 0 0 1 16 .727c3.28 0 6.424 1.317 8.743 3.66a12.564 12.564 0 0 1 3.62 8.836z"/><path style="fill:#000;fill-opacity:1;stroke-width:.72727305" d="M14.956 11.902c0 .548-.46.992-1.025.992-.566 0-1.025-.444-1.025-.992s.46-.993 1.025-.993c.566 0 1.025.445 1.025.993zM18.777 11.902c0 .548-.46.992-1.025.992-.566 0-1.025-.444-1.025-.992s.46-.993 1.025-.993c.566 0 1.025.445 1.025.993z"/><path style="stroke:#000;stroke-width:1.57733154;stroke-linecap:round;stroke-opacity:1" d="M10.91 13.09c3.527 3.087 7.157 2.728 10.18 0"/><path style="fill:red;fill-opacity:1;stroke-width:.72727305" d="M11.636 12.364a2.182 2.182 0 1 1-4.363 0 2.182 2.182 0 0 1 4.363 0z"/><circle style="fill:red;fill-opacity:1;stroke-width:.72727305" r="2.182" cy="12.364" cx="22.545"/></g><g transform="translate(-1.2 -106.795)"><circle style="fill:#fffff7;fill-opacity:1;stroke:#333;stroke-width:2.82352924" r="14.588" cy="16" cx="16"/><path style="fill:#333;stroke-width:1.88235295" d="M14.646 15.09c0 .61-.538 1.105-1.2 1.105-.663 0-1.2-.494-1.2-1.105 0-.61.537-1.105 1.2-1.105.662 0 1.2.495 1.2 1.105zM19.12 15.09c0 .61-.536 1.105-1.2 1.105-.662 0-1.2-.494-1.2-1.105 0-.61.538-1.105 1.2-1.105.664 0 1.2.495 1.2 1.105z"/><path style="stroke:#333;stroke-width:1.97472;stroke-linecap:round" d="M9.906 16.415c4.133 3.435 8.384 3.036 11.926 0"/><path style="fill:#ff6262;stroke-width:1.88235295" d="M10.758 15.605c0 1.341-1.144 2.429-2.555 2.429-1.412 0-2.556-1.088-2.556-2.429 0-1.341 1.144-2.429 2.556-2.429 1.41 0 2.555 1.088 2.555 2.43z"/><ellipse style="fill:#ff6262;stroke-width:1.88235295" ry="2.429" rx="2.556" cy="15.605" cx="23.535"/></g><g transform="translate(-.171 -34.627)"><path d="M28.364 13.223c0 9.72-12.364 18.05-12.364 18.05s-12.364-8.33-12.364-18.05c0-3.314 1.303-6.492 3.622-8.836A12.297 12.297 0 0 1 16 .727c3.28 0 6.424 1.317 8.743 3.66a12.564 12.564 0 0 1 3.62 8.836z" style="fill:#447798;fill-opacity:1;stroke:none;stroke-width:1.45454609;stroke-linecap:round;stroke-linejoin:round;stroke-opacity:1"/><path d="M14.956 11.902c0 .548-.46.992-1.025.992-.566 0-1.025-.444-1.025-.992s.46-.993 1.025-.993c.566 0 1.025.445 1.025.993zM18.777 11.902c0 .548-.46.992-1.025.992-.566 0-1.025-.444-1.025-.992s.46-.993 1.025-.993c.566 0 1.025.445 1.025.993z" style="fill:#000;fill-opacity:1;stroke-width:.72727305"/><path d="M10.91 13.09c3.527 3.087 7.157 2.728 10.18 0" style="stroke:#000;stroke-width:1.57733154;stroke-linecap:round;stroke-opacity:1"/><path d="M11.636 12.364a2.182 2.182 0 1 1-4.363 0 2.182 2.182 0 0 1 4.363 0z" style="fill:#986544;fill-opacity:1;stroke-width:.72727305"/><circle cx="22.545" cy="12.364" r="2.182" style="fill:#986544;fill-opacity:1;stroke-width:.72727305"/></g><g transform="translate(33.255 -34.113)"><path d="M28.364 13.223c0 9.72-12.364 18.05-12.364 18.05s-12.364-8.33-12.364-18.05c0-3.314 1.303-6.492 3.622-8.836A12.297 12.297 0 0 1 16 .727c3.28 0 6.424 1.317 8.743 3.66a12.564 12.564 0 0 1 3.62 8.836z" style="fill:#777;fill-opacity:1;stroke:none;stroke-width:1.45454609;stroke-linecap:round;stroke-linejoin:round;stroke-opacity:1"/><path d="M14.956 11.902c0 .548-.46.992-1.025.992-.566 0-1.025-.444-1.025-.992s.46-.993 1.025-.993c.566 0 1.025.445 1.025.993zM18.777 11.902c0 .548-.46.992-1.025.992-.566 0-1.025-.444-1.025-.992s.46-.993 1.025-.993c.566 0 1.025.445 1.025.993z" style="fill:#000;fill-opacity:1;stroke-width:.72727305"/><path d="M10.91 13.09c3.527 3.087 7.157 2.728 10.18 0" style="stroke:#000;stroke-width:1.57733154;stroke-linecap:round;stroke-opacity:1"/><path d="M11.636 12.364a2.182 2.182 0 1 1-4.363 0 2.182 2.182 0 0 1 4.363 0z" style="fill:#ddd;fill-opacity:1;stroke-width:.72727305"/><circle cx="22.545" cy="12.364" r="2.182" style="fill:#ddd;fill-opacity:1;stroke-width:.72727305"/></g><path d="M28.364 13.223c0 9.72-12.364 18.05-12.364 18.05s-12.364-8.33-12.364-18.05c0-3.314 1.303-6.492 3.621-8.836A12.297 12.297 0 0 1 16 .727c3.28 0 6.424 1.317 8.743 3.66a12.564 12.564 0 0 1 3.62 8.836z" style="fill:#ffc9c9;fill-opacity:1;stroke:#000;stroke-width:1.45454609;stroke-linecap:round;stroke-linejoin:round;stroke-opacity:1"/><path d="M15.906 8.652a1.5 1.5 0 1 1-3 0 1.5 1.5 0 0 1 3 0z" style="fill:#000;fill-opacity:1;stroke-width:1.08166647"/><path d="M19.727 8.652a1.5 1.5 0 1 1-3 0 1.5 1.5 0 0 1 3 0z" style="fill:#000;fill-opacity:1;stroke-width:1.08166623"/><path d="M10.91 13.09c3.527 3.087 7.157 2.728 10.18 0" style="stroke:#000;stroke-width:1.57733154;stroke-linecap:round;stroke-opacity:1"/><path d="M11.636 12.364a2.182 2.182 0 1 1-4.363 0 2.182 2.182 0 0 1 4.363 0z" style="fill:red;stroke-width:.72727305;fill-opacity:1"/><circle cx="22.545" cy="12.364" r="2.182" style="fill:red;stroke-width:.72727305;fill-opacity:1"/><g transform="translate(35.998)"><path d="M28.364 13.223c0 9.72-12.364 18.05-12.364 18.05s-12.364-8.33-12.364-18.05c0-3.314 1.303-6.492 3.621-8.836A12.297 12.297 0 0 1 16 .727c3.28 0 6.424 1.317 8.743 3.66a12.564 12.564 0 0 1 3.62 8.836z" style="fill:#ffc9c9;fill-opacity:1;stroke:#000;stroke-width:1.45454609;stroke-linecap:round;stroke-linejoin:round;stroke-opacity:1"/><path d="M14.956 11.902c0 .548-.46.992-1.025.992-.566 0-1.025-.444-1.025-.992s.46-.993 1.025-.993c.566 0 1.025.445 1.025.993zM18.777 11.902c0 .548-.46.992-1.025.992-.566 0-1.025-.444-1.025-.992s.46-.993 1.025-.993c.566 0 1.025.445 1.025.993z" style="fill:#000;fill-opacity:1;stroke-width:.72727305"/><path d="M10.91 13.09c3.527 3.087 7.157 2.728 10.18 0" style="stroke:#000;stroke-width:1.57733154;stroke-linecap:round;stroke-opacity:1"/><path d="M11.636 12.364a2.182 2.182 0 1 1-4.363 0 2.182 2.182 0 0 1 4.363 0z" style="fill:#ff6262;stroke-width:.72727305"/><circle cx="22.545" cy="12.364" r="2.182" style="fill:#ff6262;stroke-width:.72727305"/></g></svg>