<svg width="256" height="98" viewBox="0 0 256 98" fill="none" xmlns="http://www.w3.org/2000/svg">
<path d="M1.31959 3.95877C1.31959 2.50119 2.50119 1.31959 3.95876 1.31959H59.6454C61.1029 1.31959 62.2845 2.50119 62.2845 3.95876V91.3155C62.2845 92.773 61.1029 93.9546 59.6454 93.9546H3.95876C2.50119 93.9546 1.31959 92.773 1.31959 91.3155V3.95877Z" fill="white" stroke="#333" stroke-width="2.6"/>
<path d="M8.44531 26.9194L8.44531 34.0452" stroke="#333333" stroke-width="2.6" stroke-linecap="round"/>
<path d="M8.44531 46.1855V53.0474" stroke="#333333" stroke-width="2.6" stroke-linecap="round"/>
<path d="M1.5835 39.5879H61.7567" stroke="#333333" stroke-width="2.6"/>
<path d="M20.7178 23.2832C28.3087 27.9462 36.1164 27.404 42.6229 23.2832" stroke="#333333" stroke-width="2.2" stroke-linecap="round"/>
<circle cx="44.0744" cy="21.3772" r="4.35" fill="#FF6262"/>
<circle cx="19.1294" cy="21.3772" r="4.35" fill="#FF6262"/>
<circle cx="36.523" cy="19.0354" r="2.21392" fill="#333333"/>
<circle cx="27.022" cy="19.0354" r="2.21392" fill="#333333"/>

<path d="M74.7385 24.3299C74.7385 24.8247 74.5653 25.2453 74.2189 25.5917C73.8642 25.9381 73.4436 26.1113 72.957 26.1113C72.4622 26.1113 72.0416 25.9381 71.6952 25.5917C71.3488 25.2453 71.1756 24.8247 71.1756 24.3299V12.0082C71.1756 11.0103 71.555 10.1732 72.3137 9.4969C73.0478 8.84535 73.9137 8.51958 74.9117 8.51958C75.7034 8.51958 76.4251 8.73401 77.0766 9.16287C77.7282 9.59999 78.1983 10.1856 78.4869 10.9196L82.8663 22.2515C82.9735 22.4907 83.0931 22.5938 83.2251 22.5608C83.3323 22.5278 83.3859 22.4082 83.3859 22.202V10.301C83.3859 9.80617 83.5591 9.38555 83.9055 9.03916C84.2601 8.69277 84.6807 8.51958 85.1673 8.51958C85.6622 8.51958 86.0828 8.69277 86.4292 9.03916C86.7756 9.38555 86.9488 9.80617 86.9488 10.301V22.7711C86.9488 23.7361 86.5612 24.5402 85.7859 25.1835C85.0519 25.802 84.1941 26.1113 83.2127 26.1113C82.3715 26.1113 81.6374 25.8886 81.0106 25.4433C80.3921 25.0144 79.922 24.4041 79.6003 23.6124C79.1715 22.5402 78.4498 20.6598 77.4354 17.9711C76.5364 15.5794 75.8065 13.7031 75.2457 12.3423C75.1467 12.1278 75.0313 12.0371 74.8993 12.0701C74.7921 12.1031 74.7385 12.235 74.7385 12.466V24.3299ZM98.5777 24.3299C98.5777 24.8247 98.4045 25.2453 98.0581 25.5917C97.7117 25.9381 97.2952 26.1113 96.8086 26.1113C96.3137 26.1113 95.8931 25.9381 95.5467 25.5917C95.2003 25.2453 95.0271 24.8247 95.0271 24.3299V20.6185C93.5344 20.2804 92.2478 19.567 91.1673 18.4783C89.6003 16.9113 88.8168 15.0309 88.8168 12.8371V10.301C88.8168 9.80617 88.99 9.38555 89.3364 9.03916C89.6828 8.69277 90.1034 8.51958 90.5983 8.51958C91.0931 8.51958 91.5137 8.69277 91.8601 9.03916C92.2065 9.38555 92.3797 9.80617 92.3797 10.301V12.8371C92.3797 14.0495 92.8127 15.0886 93.6787 15.9546C94.5447 16.8289 95.588 17.266 96.8086 17.266C98.021 17.266 99.0601 16.8289 99.9261 15.9546C100.792 15.0886 101.225 14.0495 101.225 12.8371V10.301C101.225 9.80617 101.398 9.38555 101.745 9.03916C102.091 8.69277 102.512 8.51958 103.007 8.51958C103.501 8.51958 103.922 8.69277 104.268 9.03916C104.615 9.38555 104.788 9.80617 104.788 10.301V12.8371C104.788 15.0309 104.004 16.9113 102.437 18.4783C101.357 19.567 100.07 20.2804 98.5777 20.6185V24.3299ZM119.411 19.8763C119.65 19.4474 120.004 19.167 120.475 19.035C120.953 18.8948 121.407 18.9484 121.835 19.1959C122.264 19.435 122.545 19.7897 122.677 20.2598C122.809 20.7299 122.755 21.1794 122.516 21.6082C121.732 22.9938 120.652 24.0907 119.275 24.899C117.897 25.7072 116.417 26.1113 114.833 26.1113C112.409 26.1113 110.334 25.2536 108.611 23.5381C106.895 21.8144 106.037 19.7402 106.037 17.3155C106.037 14.8825 106.895 12.8082 108.611 11.0928C110.334 9.37731 112.409 8.51958 114.833 8.51958C116.417 8.51958 117.897 8.91958 119.275 9.71958C120.652 10.5278 121.732 11.6247 122.516 13.0103C122.755 13.4392 122.809 13.8928 122.677 14.3711C122.545 14.8412 122.264 15.1959 121.835 15.435C121.407 15.6742 120.953 15.7278 120.475 15.5959C120.004 15.4639 119.65 15.1835 119.411 14.7546C118.941 13.9216 118.297 13.266 117.481 12.7876C116.673 12.3175 115.79 12.0825 114.833 12.0825C113.39 12.0825 112.157 12.5938 111.134 13.6165C110.112 14.6392 109.6 15.8722 109.6 17.3155C109.6 18.7588 110.112 19.9917 111.134 21.0144C112.157 22.0371 113.39 22.5484 114.833 22.5484C115.79 22.5484 116.673 22.3134 117.481 21.8433C118.297 21.3649 118.941 20.7093 119.411 19.8763ZM83.9302 51.8763C84.1694 51.4474 84.524 51.167 84.9941 51.035C85.4725 50.8948 85.9261 50.9484 86.355 51.1959C86.7838 51.435 87.0642 51.7897 87.1962 52.2598C87.3282 52.7299 87.2746 53.1794 87.0354 53.6082C86.2519 54.9938 85.1715 56.0907 83.7941 56.899C82.4168 57.7072 80.9364 58.1113 79.3529 58.1113C76.9282 58.1113 74.8539 57.2536 73.1302 55.5381C71.4148 53.8144 70.557 51.7402 70.557 49.3155C70.557 46.8825 71.4148 44.8082 73.1302 43.0928C74.8539 41.3773 76.9282 40.5196 79.3529 40.5196C80.9364 40.5196 82.4168 40.9196 83.7941 41.7196C85.1715 42.5278 86.2519 43.6247 87.0354 45.0103C87.2746 45.4392 87.3282 45.8928 87.1962 46.3711C87.0642 46.8412 86.7838 47.1959 86.355 47.435C85.9261 47.6742 85.4725 47.7278 84.9941 47.5959C84.524 47.4639 84.1694 47.1835 83.9302 46.7546C83.4601 45.9216 82.8168 45.266 82.0003 44.7876C81.1921 44.3175 80.3096 44.0825 79.3529 44.0825C77.9096 44.0825 76.6766 44.5938 75.6539 45.6165C74.6313 46.6392 74.1199 47.8722 74.1199 49.3155C74.1199 50.7588 74.6313 51.9917 75.6539 53.0144C76.6766 54.0371 77.9096 54.5484 79.3529 54.5484C80.3096 54.5484 81.1921 54.3134 82.0003 53.8433C82.8168 53.3649 83.4601 52.7093 83.9302 51.8763ZM95.8189 47.3113C94.821 47.3113 93.9715 47.666 93.2704 48.3752C92.5612 49.0845 92.2065 49.9381 92.2065 50.9361C92.2065 51.934 92.5612 52.7876 93.2704 53.4969C93.9715 54.1979 94.821 54.5484 95.8189 54.5484C96.8168 54.5484 97.6704 54.1979 98.3797 53.4969C99.089 52.7876 99.4436 51.934 99.4436 50.9361C99.4436 49.9381 99.089 49.0845 98.3797 48.3752C97.6704 47.666 96.8168 47.3113 95.8189 47.3113ZM90.7467 45.8515C92.1488 44.4495 93.8395 43.7484 95.8189 43.7484C97.8065 43.7484 99.5014 44.4495 100.903 45.8515C102.305 47.2536 103.007 48.9484 103.007 50.9361C103.007 52.9155 102.305 54.6062 100.903 56.0082C99.5014 57.4103 97.8065 58.1113 95.8189 58.1113C93.8395 58.1113 92.1488 57.4103 90.7467 56.0082C89.3447 54.6062 88.6436 52.9155 88.6436 50.9361C88.6436 48.9484 89.3447 47.2536 90.7467 45.8515ZM108.19 56.3299C108.19 56.8247 108.017 57.2453 107.67 57.5917C107.324 57.9381 106.903 58.1113 106.409 58.1113C105.914 58.1113 105.493 57.9381 105.147 57.5917C104.8 57.2453 104.627 56.8247 104.627 56.3299V49.7608C104.627 48.1031 105.217 46.6845 106.396 45.5051C107.567 44.334 108.986 43.7484 110.652 43.7484C112.301 43.7484 113.712 44.3299 114.883 45.4928C116.054 44.3299 117.464 43.7484 119.114 43.7484C120.78 43.7484 122.198 44.334 123.369 45.5051C124.549 46.6845 125.138 48.1031 125.138 49.7608V56.3299C125.138 56.8247 124.965 57.2453 124.619 57.5917C124.272 57.9381 123.852 58.1113 123.357 58.1113C122.862 58.1113 122.442 57.9381 122.095 57.5917C121.749 57.2453 121.576 56.8247 121.576 56.3299V49.7608C121.576 49.0845 121.336 48.5072 120.858 48.0289C120.38 47.5505 119.798 47.3113 119.114 47.3113C118.437 47.3113 117.86 47.5505 117.382 48.0289C116.903 48.5072 116.664 49.0845 116.664 49.7608V56.3299C116.664 56.8247 116.491 57.2453 116.145 57.5917C115.798 57.9381 115.378 58.1113 114.883 58.1113C114.388 58.1113 113.967 57.9381 113.621 57.5917C113.275 57.2453 113.101 56.8247 113.101 56.3299V49.7608C113.101 49.0845 112.862 48.5072 112.384 48.0289C111.905 47.5505 111.328 47.3113 110.652 47.3113C109.967 47.3113 109.386 47.5505 108.908 48.0289C108.429 48.5072 108.19 49.0845 108.19 49.7608V56.3299ZM130.681 56.3299C130.681 56.8247 130.508 57.2453 130.161 57.5917C129.815 57.9381 129.394 58.1113 128.899 58.1113C128.404 58.1113 127.984 57.9381 127.637 57.5917C127.291 57.2453 127.118 56.8247 127.118 56.3299V49.7608C127.118 48.1031 127.708 46.6845 128.887 45.5051C130.058 44.334 131.477 43.7484 133.143 43.7484C134.792 43.7484 136.202 44.3299 137.374 45.4928C138.545 44.3299 139.955 43.7484 141.604 43.7484C143.27 43.7484 144.689 44.334 145.86 45.5051C147.04 46.6845 147.629 48.1031 147.629 49.7608V56.3299C147.629 56.8247 147.456 57.2453 147.11 57.5917C146.763 57.9381 146.343 58.1113 145.848 58.1113C145.353 58.1113 144.932 57.9381 144.586 57.5917C144.24 57.2453 144.066 56.8247 144.066 56.3299V49.7608C144.066 49.0845 143.827 48.5072 143.349 48.0289C142.87 47.5505 142.289 47.3113 141.604 47.3113C140.928 47.3113 140.351 47.5505 139.872 48.0289C139.394 48.5072 139.155 49.0845 139.155 49.7608V56.3299C139.155 56.8247 138.982 57.2453 138.635 57.5917C138.289 57.9381 137.868 58.1113 137.374 58.1113C136.879 58.1113 136.458 57.9381 136.112 57.5917C135.765 57.2453 135.592 56.8247 135.592 56.3299V49.7608C135.592 49.0845 135.353 48.5072 134.875 48.0289C134.396 47.5505 133.819 47.3113 133.143 47.3113C132.458 47.3113 131.877 47.5505 131.398 48.0289C130.92 48.5072 130.681 49.0845 130.681 49.7608V56.3299ZM160.409 45.5299C160.409 45.0433 160.582 44.6268 160.928 44.2804C161.275 43.9258 161.695 43.7484 162.19 43.7484C162.677 43.7484 163.093 43.9258 163.44 44.2804C163.794 44.6268 163.971 45.0433 163.971 45.5299V50.9361C163.971 52.9155 163.27 54.6062 161.868 56.0082C160.466 57.4103 158.771 58.1113 156.784 58.1113C154.804 58.1113 153.114 57.4103 151.712 56.0082C150.31 54.6062 149.609 52.9155 149.609 50.9361V45.5299C149.609 45.0433 149.782 44.6268 150.128 44.2804C150.475 43.9258 150.895 43.7484 151.39 43.7484C151.885 43.7484 152.305 43.9258 152.652 44.2804C152.998 44.6268 153.171 45.0433 153.171 45.5299V50.9361C153.171 51.934 153.526 52.7876 154.235 53.4969C154.936 54.1979 155.786 54.5484 156.784 54.5484C157.782 54.5484 158.635 54.1979 159.345 53.4969C160.054 52.7876 160.409 51.934 160.409 50.9361V45.5299ZM180.326 56.3299C180.326 56.8247 180.149 57.2453 179.794 57.5917C179.448 57.9381 179.031 58.1113 178.545 58.1113C178.05 58.1113 177.629 57.9381 177.283 57.5917C176.936 57.2453 176.763 56.8247 176.763 56.3299V50.9361C176.763 49.9381 176.409 49.0845 175.699 48.3752C174.99 47.666 174.136 47.3113 173.138 47.3113C172.141 47.3113 171.291 47.666 170.59 48.3752C169.881 49.0845 169.526 49.9381 169.526 50.9361V56.3299C169.526 56.8247 169.353 57.2453 169.007 57.5917C168.66 57.9381 168.24 58.1113 167.745 58.1113C167.25 58.1113 166.829 57.9381 166.483 57.5917C166.136 57.2453 165.963 56.8247 165.963 56.3299V50.9361C165.963 48.9484 166.664 47.2536 168.066 45.8515C169.468 44.4495 171.159 43.7484 173.138 43.7484C175.126 43.7484 176.821 44.4495 178.223 45.8515C179.625 47.2536 180.326 48.9484 180.326 50.9361V56.3299ZM186.128 56.3299C186.128 56.8247 185.955 57.2453 185.609 57.5917C185.262 57.9381 184.842 58.1113 184.347 58.1113C183.852 58.1113 183.431 57.9381 183.085 57.5917C182.738 57.2453 182.565 56.8247 182.565 56.3299V46.767C182.565 46.2804 182.738 45.8639 183.085 45.5175C183.431 45.1629 183.852 44.9856 184.347 44.9856C184.842 44.9856 185.262 45.1629 185.609 45.5175C185.955 45.8639 186.128 46.2804 186.128 46.767V56.3299ZM184.347 40.5196C184.842 40.5196 185.262 40.6928 185.609 41.0392C185.955 41.3856 186.128 41.8062 186.128 42.301C186.128 42.7959 185.955 43.2165 185.609 43.5629C185.262 43.9093 184.842 44.0825 184.347 44.0825C183.852 44.0825 183.431 43.9093 183.085 43.5629C182.738 43.2165 182.565 42.7959 182.565 42.301C182.565 41.8062 182.738 41.3856 183.085 41.0392C183.431 40.6928 183.852 40.5196 184.347 40.5196ZM188.355 42.1031C188.355 41.666 188.508 41.2907 188.813 40.9773C189.126 40.6722 189.501 40.5196 189.938 40.5196C190.376 40.5196 190.747 40.6722 191.052 40.9773C191.365 41.2907 191.522 41.666 191.522 42.1031V44.367H197.163C197.6 44.367 197.976 44.5196 198.289 44.8247C198.594 45.1381 198.747 45.5134 198.747 45.9505C198.747 46.3876 198.594 46.7629 198.289 47.0763C197.976 47.3814 197.6 47.534 197.163 47.534H191.522V52.5567C191.522 53.2082 191.753 53.7691 192.215 54.2392C192.685 54.701 193.246 54.9319 193.897 54.9319C194.392 54.9319 194.842 54.7959 195.246 54.5237C195.65 54.2515 195.943 53.8845 196.124 53.4227C196.281 53.0185 196.561 52.7258 196.965 52.5443C197.361 52.3711 197.765 52.3629 198.178 52.5196C198.582 52.6845 198.875 52.9649 199.056 53.3608C199.229 53.7649 199.237 54.1691 199.081 54.5732C198.66 55.6371 197.976 56.4948 197.027 57.1464C196.087 57.7897 195.044 58.1113 193.897 58.1113C192.363 58.1113 191.056 57.5711 189.976 56.4907C188.895 55.4103 188.355 54.099 188.355 52.5567V42.1031ZM211.353 45.5299C211.353 45.035 211.526 44.6144 211.872 44.268C212.219 43.9216 212.64 43.7484 213.134 43.7484C213.629 43.7484 214.05 43.9216 214.396 44.268C214.743 44.6144 214.916 45.035 214.916 45.5299V57.1464C214.916 59.1258 214.215 60.8165 212.813 62.2185C211.411 63.6206 209.72 64.3216 207.741 64.3216C206.586 64.3216 205.489 64.0577 204.45 63.5299C203.419 62.9938 202.565 62.2557 201.889 61.3155C201.609 60.9196 201.505 60.4783 201.58 59.9917C201.662 59.5051 201.905 59.1216 202.31 58.8412C202.705 58.5526 203.147 58.4495 203.633 58.5319C204.12 58.6062 204.503 58.8453 204.784 59.2495C205.13 59.7278 205.563 60.099 206.083 60.3629C206.594 60.6268 207.147 60.7588 207.741 60.7588C208.738 60.7588 209.588 60.4041 210.289 59.6948C210.998 58.9938 211.353 58.1402 211.353 57.134C210.24 57.7856 209.035 58.1113 207.741 58.1113C205.753 58.1113 204.058 57.4103 202.656 56.0082C201.254 54.6062 200.553 52.9113 200.553 50.9237V45.5299C200.553 45.035 200.726 44.6144 201.072 44.268C201.419 43.9216 201.84 43.7484 202.334 43.7484C202.829 43.7484 203.25 43.9216 203.596 44.268C203.943 44.6144 204.116 45.035 204.116 45.5299V50.9237C204.116 51.9216 204.47 52.7752 205.18 53.4845C205.881 54.1938 206.734 54.5484 207.741 54.5484C208.738 54.5484 209.588 54.1938 210.289 53.4845C210.998 52.7752 211.353 51.9216 211.353 50.9237V45.5299ZM74.4911 88.3299C74.4911 88.8247 74.3179 89.2453 73.9715 89.5917C73.6251 89.9381 73.2045 90.1113 72.7096 90.1113C72.2148 90.1113 71.7941 89.9381 71.4478 89.5917C71.1014 89.2453 70.9282 88.8247 70.9282 88.3299V74.301C70.9282 73.8062 71.1014 73.3856 71.4478 73.0392C71.7941 72.6928 72.2148 72.5196 72.7096 72.5196H81.5179C82.0127 72.5196 82.4333 72.6928 82.7797 73.0392C83.1261 73.3856 83.2993 73.8062 83.2993 74.301C83.2993 74.7876 83.1261 75.2041 82.7797 75.5505C82.4333 75.9051 82.0127 76.0825 81.5179 76.0825H74.4911V79.534H80.8993C81.3859 79.534 81.8024 79.7072 82.1488 80.0536C82.5034 80.4 82.6807 80.8206 82.6807 81.3155C82.6807 81.8103 82.5034 82.2309 82.1488 82.5773C81.8024 82.9237 81.3859 83.0969 80.8993 83.0969H74.4911V88.3299ZM97.3653 82.1938C97.3653 82.6804 97.1921 83.0969 96.8457 83.4433C96.4993 83.7979 96.0787 83.9752 95.5838 83.9752C95.089 83.9752 94.6684 83.7979 94.322 83.4433C93.9756 83.0969 93.8024 82.6804 93.8024 82.1938C93.8024 81.3938 93.522 80.7134 92.9612 80.1526C92.4003 79.5917 91.724 79.3113 90.9323 79.3113C90.1323 79.3113 89.4519 79.5917 88.8911 80.1526C88.3302 80.7134 88.0498 81.3938 88.0498 82.1938V88.3299C88.0498 88.8247 87.8766 89.2453 87.5302 89.5917C87.1838 89.9381 86.7632 90.1113 86.2684 90.1113C85.7735 90.1113 85.3529 89.9381 85.0065 89.5917C84.6601 89.2453 84.4869 88.8247 84.4869 88.3299V82.1938C84.4869 80.4124 85.1137 78.8948 86.3673 77.6412C87.6292 76.3794 89.1508 75.7484 90.9323 75.7484C92.7055 75.7484 94.223 76.3794 95.4849 77.6412C96.7385 78.8948 97.3653 80.4124 97.3653 82.1938ZM102.598 88.3299C102.598 88.8247 102.425 89.2453 102.079 89.5917C101.732 89.9381 101.312 90.1113 100.817 90.1113C100.322 90.1113 99.9014 89.9381 99.555 89.5917C99.2086 89.2453 99.0354 88.8247 99.0354 88.3299V78.767C99.0354 78.2804 99.2086 77.8639 99.555 77.5175C99.9014 77.1629 100.322 76.9856 100.817 76.9856C101.312 76.9856 101.732 77.1629 102.079 77.5175C102.425 77.8639 102.598 78.2804 102.598 78.767V88.3299ZM100.817 72.5196C101.312 72.5196 101.732 72.6928 102.079 73.0392C102.425 73.3856 102.598 73.8062 102.598 74.301C102.598 74.7959 102.425 75.2165 102.079 75.5629C101.732 75.9093 101.312 76.0825 100.817 76.0825C100.322 76.0825 99.9014 75.9093 99.555 75.5629C99.2086 75.2165 99.0354 74.7959 99.0354 74.301C99.0354 73.8062 99.2086 73.3856 99.555 73.0392C99.9014 72.6928 100.322 72.5196 100.817 72.5196ZM115.254 74.301C115.254 73.8062 115.427 73.3856 115.774 73.0392C116.12 72.6928 116.541 72.5196 117.035 72.5196C117.522 72.5196 117.938 72.6928 118.285 73.0392C118.64 73.3856 118.817 73.8062 118.817 74.301V82.9361C118.817 84.9155 118.116 86.6062 116.714 88.0082C115.312 89.4103 113.617 90.1113 111.629 90.1113C109.65 90.1113 107.959 89.4103 106.557 88.0082C105.155 86.6062 104.454 84.9155 104.454 82.9361C104.454 80.9484 105.155 79.2536 106.557 77.8515C107.959 76.4495 109.65 75.7484 111.629 75.7484C112.932 75.7484 114.141 76.0742 115.254 76.7258V74.301ZM111.629 86.5484C112.627 86.5484 113.481 86.1979 114.19 85.4969C114.899 84.7876 115.254 83.934 115.254 82.9361C115.254 81.9381 114.899 81.0845 114.19 80.3752C113.481 79.666 112.627 79.3113 111.629 79.3113C110.631 79.3113 109.782 79.666 109.081 80.3752C108.371 81.0845 108.017 81.9381 108.017 82.9361C108.017 83.934 108.371 84.7876 109.081 85.4969C109.782 86.1979 110.631 86.5484 111.629 86.5484ZM134.677 88.9732C134.677 90.9526 133.976 92.6433 132.574 94.0453C131.171 95.4474 129.477 96.1484 127.489 96.1484C126.45 96.1484 125.452 95.9299 124.495 95.4928C123.547 95.0557 122.73 94.4371 122.046 93.6371C121.724 93.2577 121.58 92.8247 121.613 92.3381C121.654 91.8515 121.86 91.4474 122.231 91.1258C122.602 90.8041 123.035 90.6639 123.53 90.7051C124.017 90.7464 124.421 90.9526 124.743 91.3237C125.089 91.7278 125.501 92.0412 125.98 92.2639C126.45 92.4783 126.953 92.5856 127.489 92.5856C128.487 92.5856 129.341 92.2309 130.05 91.5216C130.71 90.8618 131.06 90.066 131.101 89.134C129.988 89.7773 128.784 90.099 127.489 90.099C125.51 90.099 123.819 89.3979 122.417 87.9959C121.015 86.5938 120.314 84.9031 120.314 82.9237C120.314 80.9443 121.015 79.2536 122.417 77.8515C123.819 76.4495 125.51 75.7484 127.489 75.7484C129.477 75.7484 131.171 76.4495 132.574 77.8515C133.976 79.2536 134.677 80.9443 134.677 82.9237V88.9732ZM130.05 80.3629C129.341 79.6618 128.487 79.3113 127.489 79.3113C126.491 79.3113 125.642 79.6618 124.941 80.3629C124.231 81.0722 123.877 81.9258 123.877 82.9237C123.877 83.9216 124.231 84.7752 124.941 85.4845C125.642 86.1856 126.491 86.5361 127.489 86.5361C128.487 86.5361 129.341 86.1856 130.05 85.4845C130.759 84.7752 131.114 83.9216 131.114 82.9237C131.114 81.9258 130.759 81.0722 130.05 80.3629ZM145.774 85.8928C146.161 85.5794 146.611 85.4392 147.122 85.4722C147.65 85.5051 148.066 85.7072 148.371 86.0783C148.685 86.4495 148.804 86.866 148.73 87.3278C148.664 87.7649 148.437 88.1443 148.05 88.466C147.415 88.9938 146.697 89.402 145.897 89.6907C145.105 89.9711 144.297 90.1113 143.472 90.1113C141.493 90.1113 139.802 89.4103 138.4 88.0082C136.998 86.6062 136.297 84.9155 136.297 82.9361C136.297 80.9484 136.998 79.2536 138.4 77.8515C139.802 76.4495 141.493 75.7484 143.472 75.7484C145.46 75.7484 147.155 76.4495 148.557 77.8515C149.959 79.2536 150.66 80.9484 150.66 82.9361C150.66 83.8515 150.066 84.3093 148.879 84.3093H140.157C140.33 85.002 140.668 85.5588 141.171 85.9794C141.774 86.4742 142.541 86.7216 143.472 86.7216C144.347 86.7216 145.114 86.4453 145.774 85.8928ZM146.64 81.5505C146.004 79.934 144.949 79.1258 143.472 79.1258C141.84 79.1258 140.714 79.934 140.095 81.5505H146.64ZM164.095 77.7773C164.45 78.0907 164.648 78.4825 164.689 78.9526C164.722 79.4227 164.586 79.8392 164.281 80.202C163.967 80.5567 163.576 80.7546 163.105 80.7959C162.635 80.8289 162.219 80.6928 161.856 80.3876C160.792 79.4722 159.662 79.0103 158.466 79.002C156.413 79.0268 155.415 79.5505 155.472 80.5732C155.538 81.233 156.524 81.5299 158.429 81.4639C160.013 81.4062 161.407 81.6495 162.611 82.1938C164.128 82.8783 164.887 83.9917 164.887 85.534C164.887 87.035 164.124 88.2103 162.598 89.0598C161.369 89.7443 160.017 90.0948 158.541 90.1113C157.666 90.1196 156.697 89.9505 155.633 89.6041C154.528 89.2412 153.559 88.7175 152.726 88.033C152.355 87.7278 152.149 87.3402 152.108 86.8701C152.058 86.3917 152.186 85.9711 152.491 85.6082C152.78 85.2536 153.167 85.0804 153.654 85.0886C154.108 85.0969 154.524 85.2577 154.903 85.5711C156.075 86.4453 157.283 86.8825 158.528 86.8825C160.615 86.7917 161.588 86.2763 161.448 85.3361C161.39 84.6763 160.417 84.3794 158.528 84.4453C156.854 84.5031 155.435 84.2722 154.272 83.7526C152.78 83.0763 152.033 81.934 152.033 80.3258C152.033 78.701 152.895 77.468 154.619 76.6268C155.823 76.0412 157.11 75.7484 158.479 75.7484C159.345 75.7484 160.289 75.9175 161.312 76.2557C162.376 76.602 163.303 77.1093 164.095 77.7773Z" fill="#ccc"/>
</svg>
