<svg width="165" height="246" viewBox="0 0 165 246" fill="none" xmlns="http://www.w3.org/2000/svg">
<path d="M2 15C2 7.8203 7.8203 2 15 2H150C157.18 2 163 7.8203 163 15V231C163 238.18 157.18 244 150 244H15C7.8203 244 2 238.18 2 231V15Z" fill="white" stroke="#333333" stroke-width="4"/>
<path d="M22 70L22 88" stroke="#333333" stroke-width="4" stroke-linecap="round"/>
<path d="M22 119V137" stroke="#333333" stroke-width="4" stroke-linecap="round"/>
<path d="M4 102H162" stroke="#333333" stroke-width="4"/>
<path d="M54 60C73.4059 72.7286 93.3663 71.2486 110 60" stroke="#333333" stroke-width="4" stroke-linecap="round"/>
<circle cx="114" cy="55.5" r="11" fill="#FF6262"/>
<circle cx="49"  cy="55.5" r="11" fill="#FF6262"/>
<circle cx="94.5" cy="49.5" r="5.5" fill="#333333"/>
<circle cx="69.7" cy="49.5" r="5.5" fill="#333333"/>
</svg>
