<svg width="710" height="33" viewBox="0 0 710 33" fill="none" xmlns="http://www.w3.org/2000/svg">
<path d="M7.88489 5.048V26H13.5369V5.048H21.2409V0.295998H0.180891V5.048H7.88489ZM19.4409 13.112C19.5129 11.912 19.8129 10.916 20.3409 10.124C20.8689 9.332 21.5409 8.696 22.3569 8.216C23.1729 7.736 24.0849 7.4 25.0929 7.208C26.1249 6.992 27.1569 6.884 28.1889 6.884C29.1249 6.884 30.0729 6.956 31.0329 7.1C31.9929 7.22 32.8689 7.472 33.6609 7.856C34.4529 8.24 35.1009 8.78 35.6049 9.476C36.1089 10.148 36.3609 11.048 36.3609 12.176V21.86C36.3609 22.7 36.4089 23.504 36.5049 24.272C36.6009 25.04 36.7689 25.616 37.0089 26H31.8249C31.7289 25.712 31.6449 25.424 31.5729 25.136C31.5249 24.824 31.4889 24.512 31.4649 24.2C30.6489 25.04 29.6889 25.628 28.5849 25.964C27.4809 26.3 26.3529 26.468 25.2009 26.468C24.3129 26.468 23.4849 26.36 22.7169 26.144C21.9489 25.928 21.2769 25.592 20.7009 25.136C20.1249 24.68 19.6689 24.104 19.3329 23.408C19.0209 22.712 18.8649 21.884 18.8649 20.924C18.8649 19.868 19.0449 19.004 19.4049 18.332C19.7889 17.636 20.2689 17.084 20.8449 16.676C21.4449 16.268 22.1169 15.968 22.8609 15.776C23.6289 15.56 24.3969 15.392 25.1649 15.272C25.9329 15.152 26.6889 15.056 27.4329 14.984C28.1769 14.912 28.8369 14.804 29.4129 14.66C29.9889 14.516 30.4449 14.312 30.7809 14.048C31.1169 13.76 31.2729 13.352 31.2489 12.824C31.2489 12.272 31.1529 11.84 30.9609 11.528C30.7929 11.192 30.5529 10.94 30.2409 10.772C29.9529 10.58 29.6049 10.46 29.1969 10.412C28.8129 10.34 28.3929 10.304 27.9369 10.304C26.9289 10.304 26.1369 10.52 25.5609 10.952C24.9849 11.384 24.6489 12.104 24.5529 13.112H19.4409ZM31.2489 16.892C31.0329 17.084 30.7569 17.24 30.4209 17.36C30.1089 17.456 29.7609 17.54 29.3769 17.612C29.0169 17.684 28.6329 17.744 28.2249 17.792C27.8169 17.84 27.4089 17.9 27.0009 17.972C26.6169 18.044 26.2329 18.14 25.8489 18.26C25.4889 18.38 25.1649 18.548 24.8769 18.764C24.6129 18.956 24.3969 19.208 24.2289 19.52C24.0609 19.832 23.9769 20.228 23.9769 20.708C23.9769 21.164 24.0609 21.548 24.2289 21.86C24.3969 22.172 24.6249 22.424 24.9129 22.616C25.2009 22.784 25.5369 22.904 25.9209 22.976C26.3049 23.048 26.7009 23.084 27.1089 23.084C28.1169 23.084 28.8969 22.916 29.4489 22.58C30.0009 22.244 30.4089 21.848 30.6729 21.392C30.9369 20.912 31.0929 20.432 31.1409 19.952C31.2129 19.472 31.2489 19.088 31.2489 18.8V16.892ZM40.7968 0.295998V26H45.9088V19.592L47.8888 17.684L53.0008 26H59.1928L51.3808 14.228L58.4008 7.388H52.3528L45.9088 14.084V0.295998H40.7968ZM73.5286 14.696H65.2126C65.2366 14.336 65.3086 13.928 65.4286 13.472C65.5726 13.016 65.8006 12.584 66.1126 12.176C66.4486 11.768 66.8806 11.432 67.4086 11.168C67.9606 10.88 68.6446 10.736 69.4606 10.736C70.7086 10.736 71.6326 11.072 72.2326 11.744C72.8566 12.416 73.2886 13.4 73.5286 14.696ZM65.2126 17.936H78.6406C78.7366 16.496 78.6166 15.116 78.2806 13.796C77.9446 12.476 77.3926 11.3 76.6246 10.268C75.8806 9.236 74.9206 8.42 73.7446 7.82C72.5686 7.196 71.1886 6.884 69.6046 6.884C68.1886 6.884 66.8926 7.136 65.7166 7.64C64.5646 8.144 63.5686 8.84 62.7286 9.728C61.8886 10.592 61.2406 11.624 60.7846 12.824C60.3286 14.024 60.1006 15.32 60.1006 16.712C60.1006 18.152 60.3166 19.472 60.7486 20.672C61.2046 21.872 61.8406 22.904 62.6566 23.768C63.4726 24.632 64.4686 25.304 65.6446 25.784C66.8206 26.24 68.1406 26.468 69.6046 26.468C71.7166 26.468 73.5166 25.988 75.0046 25.028C76.4926 24.068 77.5966 22.472 78.3166 20.24H73.8166C73.6486 20.816 73.1926 21.368 72.4486 21.896C71.7046 22.4 70.8166 22.652 69.7846 22.652C68.3446 22.652 67.2406 22.28 66.4726 21.536C65.7046 20.792 65.2846 19.592 65.2126 17.936ZM112.968 26L118.836 7.388H113.58L110.16 19.988H110.088L106.92 7.388H101.952L98.856 20.024H98.784L95.364 7.388H89.964L95.868 26H101.16L104.328 13.508H104.4L107.712 26H112.968ZM121.012 0.295998V26H126.124V16.244C126.124 14.348 126.436 12.992 127.06 12.176C127.684 11.336 128.692 10.916 130.084 10.916C131.308 10.916 132.16 11.3 132.64 12.068C133.12 12.812 133.36 13.952 133.36 15.488V26H138.472V14.552C138.472 13.4 138.364 12.356 138.148 11.42C137.956 10.46 137.608 9.656 137.104 9.008C136.6 8.336 135.904 7.82 135.016 7.46C134.152 7.076 133.036 6.884 131.668 6.884C130.708 6.884 129.724 7.136 128.716 7.64C127.708 8.12 126.88 8.9 126.232 9.98H126.124V0.295998H121.012ZM142.136 13.112C142.208 11.912 142.508 10.916 143.036 10.124C143.564 9.332 144.236 8.696 145.052 8.216C145.868 7.736 146.78 7.4 147.788 7.208C148.82 6.992 149.852 6.884 150.884 6.884C151.82 6.884 152.768 6.956 153.728 7.1C154.688 7.22 155.564 7.472 156.356 7.856C157.148 8.24 157.796 8.78 158.3 9.476C158.804 10.148 159.056 11.048 159.056 12.176V21.86C159.056 22.7 159.104 23.504 159.2 24.272C159.296 25.04 159.464 25.616 159.704 26H154.52C154.424 25.712 154.34 25.424 154.268 25.136C154.22 24.824 154.184 24.512 154.16 24.2C153.344 25.04 152.384 25.628 151.28 25.964C150.176 26.3 149.048 26.468 147.896 26.468C147.008 26.468 146.18 26.36 145.412 26.144C144.644 25.928 143.972 25.592 143.396 25.136C142.82 24.68 142.364 24.104 142.028 23.408C141.716 22.712 141.56 21.884 141.56 20.924C141.56 19.868 141.74 19.004 142.1 18.332C142.484 17.636 142.964 17.084 143.54 16.676C144.14 16.268 144.812 15.968 145.556 15.776C146.324 15.56 147.092 15.392 147.86 15.272C148.628 15.152 149.384 15.056 150.128 14.984C150.872 14.912 151.532 14.804 152.108 14.66C152.684 14.516 153.14 14.312 153.476 14.048C153.812 13.76 153.968 13.352 153.944 12.824C153.944 12.272 153.848 11.84 153.656 11.528C153.488 11.192 153.248 10.94 152.936 10.772C152.648 10.58 152.3 10.46 151.892 10.412C151.508 10.34 151.088 10.304 150.632 10.304C149.624 10.304 148.832 10.52 148.256 10.952C147.68 11.384 147.344 12.104 147.248 13.112H142.136ZM153.944 16.892C153.728 17.084 153.452 17.24 153.116 17.36C152.804 17.456 152.456 17.54 152.072 17.612C151.712 17.684 151.328 17.744 150.92 17.792C150.512 17.84 150.104 17.9 149.696 17.972C149.312 18.044 148.928 18.14 148.544 18.26C148.184 18.38 147.86 18.548 147.572 18.764C147.308 18.956 147.092 19.208 146.924 19.52C146.756 19.832 146.672 20.228 146.672 20.708C146.672 21.164 146.756 21.548 146.924 21.86C147.092 22.172 147.32 22.424 147.608 22.616C147.896 22.784 148.232 22.904 148.616 22.976C149 23.048 149.396 23.084 149.804 23.084C150.812 23.084 151.592 22.916 152.144 22.58C152.696 22.244 153.104 21.848 153.368 21.392C153.632 20.912 153.788 20.432 153.836 19.952C153.908 19.472 153.944 19.088 153.944 18.8V16.892ZM169.504 7.388V1.808H164.392V7.388H161.296V10.808H164.392V21.788C164.392 22.724 164.548 23.48 164.86 24.056C165.172 24.632 165.592 25.076 166.12 25.388C166.672 25.7 167.296 25.904 167.992 26C168.712 26.12 169.468 26.18 170.26 26.18C170.764 26.18 171.28 26.168 171.808 26.144C172.336 26.12 172.816 26.072 173.248 26V22.04C173.008 22.088 172.756 22.124 172.492 22.148C172.228 22.172 171.952 22.184 171.664 22.184C170.8 22.184 170.224 22.04 169.936 21.752C169.648 21.464 169.504 20.888 169.504 20.024V10.808H173.248V7.388H169.504ZM194.88 28.304L202.656 7.388H197.364L193.296 20.132H193.224L189.012 7.388H183.576L190.092 24.848C190.236 25.208 190.308 25.592 190.308 26C190.308 26.552 190.14 27.056 189.804 27.512C189.492 27.968 189 28.232 188.328 28.304C187.824 28.328 187.32 28.316 186.816 28.268C186.312 28.22 185.82 28.172 185.34 28.124V32.336C185.868 32.384 186.384 32.42 186.888 32.444C187.416 32.492 187.944 32.516 188.472 32.516C190.224 32.516 191.592 32.192 192.576 31.544C193.56 30.896 194.328 29.816 194.88 28.304ZM208.904 16.712C208.904 15.968 208.976 15.236 209.12 14.516C209.264 13.796 209.504 13.16 209.84 12.608C210.2 12.056 210.668 11.612 211.244 11.276C211.82 10.916 212.54 10.736 213.404 10.736C214.268 10.736 214.988 10.916 215.564 11.276C216.164 11.612 216.632 12.056 216.968 12.608C217.328 13.16 217.58 13.796 217.724 14.516C217.868 15.236 217.94 15.968 217.94 16.712C217.94 17.456 217.868 18.188 217.724 18.908C217.58 19.604 217.328 20.24 216.968 20.816C216.632 21.368 216.164 21.812 215.564 22.148C214.988 22.484 214.268 22.652 213.404 22.652C212.54 22.652 211.82 22.484 211.244 22.148C210.668 21.812 210.2 21.368 209.84 20.816C209.504 20.24 209.264 19.604 209.12 18.908C208.976 18.188 208.904 17.456 208.904 16.712ZM203.792 16.712C203.792 18.2 204.02 19.544 204.476 20.744C204.932 21.944 205.58 22.976 206.42 23.84C207.26 24.68 208.268 25.328 209.444 25.784C210.62 26.24 211.94 26.468 213.404 26.468C214.868 26.468 216.188 26.24 217.364 25.784C218.564 25.328 219.584 24.68 220.424 23.84C221.264 22.976 221.912 21.944 222.368 20.744C222.824 19.544 223.052 18.2 223.052 16.712C223.052 15.224 222.824 13.88 222.368 12.68C221.912 11.456 221.264 10.424 220.424 9.584C219.584 8.72 218.564 8.06 217.364 7.604C216.188 7.124 214.868 6.884 213.404 6.884C211.94 6.884 210.62 7.124 209.444 7.604C208.268 8.06 207.26 8.72 206.42 9.584C205.58 10.424 204.932 11.456 204.476 12.68C204.02 13.88 203.792 15.224 203.792 16.712ZM243.836 26V7.388H238.724V17.144C238.724 19.04 238.412 20.408 237.788 21.248C237.164 22.064 236.156 22.472 234.764 22.472C233.54 22.472 232.688 22.1 232.208 21.356C231.728 20.588 231.488 19.436 231.488 17.9V7.388H226.376V18.836C226.376 19.988 226.472 21.044 226.664 22.004C226.88 22.94 227.24 23.744 227.744 24.416C228.248 25.064 228.932 25.568 229.796 25.928C230.684 26.288 231.812 26.468 233.18 26.468C234.26 26.468 235.316 26.228 236.348 25.748C237.38 25.268 238.22 24.488 238.868 23.408H238.976V26H243.836ZM257.735 7.388V26H262.847V16.244C262.847 14.348 263.159 12.992 263.783 12.176C264.407 11.336 265.415 10.916 266.807 10.916C268.031 10.916 268.883 11.3 269.363 12.068C269.843 12.812 270.083 13.952 270.083 15.488V26H275.195V14.552C275.195 13.4 275.087 12.356 274.871 11.42C274.679 10.46 274.331 9.656 273.827 9.008C273.323 8.336 272.627 7.82 271.739 7.46C270.875 7.076 269.759 6.884 268.391 6.884C267.311 6.884 266.255 7.136 265.223 7.64C264.191 8.12 263.351 8.9 262.703 9.98H262.595V7.388H257.735ZM291.603 14.696H283.287C283.311 14.336 283.383 13.928 283.503 13.472C283.647 13.016 283.875 12.584 284.187 12.176C284.523 11.768 284.955 11.432 285.483 11.168C286.035 10.88 286.719 10.736 287.535 10.736C288.783 10.736 289.707 11.072 290.307 11.744C290.931 12.416 291.363 13.4 291.603 14.696ZM283.287 17.936H296.715C296.811 16.496 296.691 15.116 296.355 13.796C296.019 12.476 295.467 11.3 294.699 10.268C293.955 9.236 292.995 8.42 291.819 7.82C290.643 7.196 289.263 6.884 287.679 6.884C286.263 6.884 284.967 7.136 283.791 7.64C282.639 8.144 281.643 8.84 280.803 9.728C279.963 10.592 279.315 11.624 278.859 12.824C278.403 14.024 278.175 15.32 278.175 16.712C278.175 18.152 278.391 19.472 278.823 20.672C279.279 21.872 279.915 22.904 280.731 23.768C281.547 24.632 282.543 25.304 283.719 25.784C284.895 26.24 286.215 26.468 287.679 26.468C289.791 26.468 291.591 25.988 293.079 25.028C294.567 24.068 295.671 22.472 296.391 20.24H291.891C291.723 20.816 291.267 21.368 290.523 21.896C289.779 22.4 288.891 22.652 287.859 22.652C286.419 22.652 285.315 22.28 284.547 21.536C283.779 20.792 283.359 19.592 283.287 17.936ZM312.275 14.696H303.959C303.983 14.336 304.055 13.928 304.175 13.472C304.319 13.016 304.547 12.584 304.859 12.176C305.195 11.768 305.627 11.432 306.155 11.168C306.707 10.88 307.391 10.736 308.207 10.736C309.455 10.736 310.379 11.072 310.979 11.744C311.603 12.416 312.035 13.4 312.275 14.696ZM303.959 17.936H317.387C317.483 16.496 317.363 15.116 317.027 13.796C316.691 12.476 316.139 11.3 315.371 10.268C314.627 9.236 313.667 8.42 312.491 7.82C311.315 7.196 309.935 6.884 308.351 6.884C306.935 6.884 305.639 7.136 304.463 7.64C303.311 8.144 302.315 8.84 301.475 9.728C300.635 10.592 299.987 11.624 299.531 12.824C299.075 14.024 298.847 15.32 298.847 16.712C298.847 18.152 299.063 19.472 299.495 20.672C299.951 21.872 300.587 22.904 301.403 23.768C302.219 24.632 303.215 25.304 304.391 25.784C305.567 26.24 306.887 26.468 308.351 26.468C310.463 26.468 312.263 25.988 313.751 25.028C315.239 24.068 316.343 22.472 317.063 20.24H312.563C312.395 20.816 311.939 21.368 311.195 21.896C310.451 22.4 309.563 22.652 308.531 22.652C307.091 22.652 305.987 22.28 305.219 21.536C304.451 20.792 304.031 19.592 303.959 17.936ZM333.631 16.64C333.631 17.408 333.559 18.152 333.415 18.872C333.271 19.592 333.031 20.24 332.695 20.816C332.359 21.368 331.903 21.812 331.327 22.148C330.775 22.484 330.079 22.652 329.239 22.652C328.447 22.652 327.763 22.484 327.187 22.148C326.635 21.788 326.167 21.332 325.783 20.78C325.423 20.204 325.159 19.556 324.991 18.836C324.823 18.116 324.739 17.396 324.739 16.676C324.739 15.908 324.811 15.176 324.955 14.48C325.123 13.76 325.375 13.124 325.711 12.572C326.071 12.02 326.539 11.576 327.115 11.24C327.691 10.904 328.399 10.736 329.239 10.736C330.079 10.736 330.775 10.904 331.327 11.24C331.879 11.576 332.323 12.02 332.659 12.572C333.019 13.1 333.271 13.724 333.415 14.444C333.559 15.14 333.631 15.872 333.631 16.64ZM333.703 23.624V26H338.563V0.295998H333.451V9.656H333.379C332.803 8.744 332.011 8.06 331.003 7.604C330.019 7.124 328.975 6.884 327.871 6.884C326.503 6.884 325.303 7.16 324.271 7.712C323.239 8.24 322.375 8.948 321.679 9.836C321.007 10.724 320.491 11.756 320.131 12.932C319.795 14.084 319.627 15.284 319.627 16.532C319.627 17.828 319.795 19.076 320.131 20.276C320.491 21.476 321.007 22.544 321.679 23.48C322.375 24.392 323.251 25.124 324.307 25.676C325.363 26.204 326.587 26.468 327.979 26.468C329.203 26.468 330.295 26.252 331.255 25.82C332.239 25.364 333.031 24.632 333.631 23.624H333.703ZM342.642 20.456V26H348.294V20.456H342.642ZM363.005 0.295998V26H381.185V21.248H368.657V0.295998H363.005ZM396.333 14.696H388.017C388.041 14.336 388.113 13.928 388.233 13.472C388.377 13.016 388.605 12.584 388.917 12.176C389.253 11.768 389.685 11.432 390.213 11.168C390.765 10.88 391.449 10.736 392.265 10.736C393.513 10.736 394.437 11.072 395.037 11.744C395.661 12.416 396.093 13.4 396.333 14.696ZM388.017 17.936H401.445C401.541 16.496 401.421 15.116 401.085 13.796C400.749 12.476 400.197 11.3 399.429 10.268C398.685 9.236 397.725 8.42 396.549 7.82C395.373 7.196 393.993 6.884 392.409 6.884C390.993 6.884 389.697 7.136 388.521 7.64C387.369 8.144 386.373 8.84 385.533 9.728C384.693 10.592 384.045 11.624 383.589 12.824C383.133 14.024 382.905 15.32 382.905 16.712C382.905 18.152 383.121 19.472 383.553 20.672C384.009 21.872 384.645 22.904 385.461 23.768C386.277 24.632 387.273 25.304 388.449 25.784C389.625 26.24 390.945 26.468 392.409 26.468C394.521 26.468 396.321 25.988 397.809 25.028C399.297 24.068 400.401 22.472 401.121 20.24H396.621C396.453 20.816 395.997 21.368 395.253 21.896C394.509 22.4 393.621 22.652 392.589 22.652C391.149 22.652 390.045 22.28 389.277 21.536C388.509 20.792 388.089 19.592 388.017 17.936ZM404.261 13.112C404.333 11.912 404.633 10.916 405.161 10.124C405.689 9.332 406.361 8.696 407.177 8.216C407.993 7.736 408.905 7.4 409.913 7.208C410.945 6.992 411.977 6.884 413.009 6.884C413.945 6.884 414.893 6.956 415.853 7.1C416.813 7.22 417.689 7.472 418.481 7.856C419.273 8.24 419.921 8.78 420.425 9.476C420.929 10.148 421.181 11.048 421.181 12.176V21.86C421.181 22.7 421.229 23.504 421.325 24.272C421.421 25.04 421.589 25.616 421.829 26H416.645C416.549 25.712 416.465 25.424 416.393 25.136C416.345 24.824 416.309 24.512 416.285 24.2C415.469 25.04 414.509 25.628 413.405 25.964C412.301 26.3 411.173 26.468 410.021 26.468C409.133 26.468 408.305 26.36 407.537 26.144C406.769 25.928 406.097 25.592 405.521 25.136C404.945 24.68 404.489 24.104 404.153 23.408C403.841 22.712 403.685 21.884 403.685 20.924C403.685 19.868 403.865 19.004 404.225 18.332C404.609 17.636 405.089 17.084 405.665 16.676C406.265 16.268 406.937 15.968 407.681 15.776C408.449 15.56 409.217 15.392 409.985 15.272C410.753 15.152 411.509 15.056 412.253 14.984C412.997 14.912 413.657 14.804 414.233 14.66C414.809 14.516 415.265 14.312 415.601 14.048C415.937 13.76 416.093 13.352 416.069 12.824C416.069 12.272 415.973 11.84 415.781 11.528C415.613 11.192 415.373 10.94 415.061 10.772C414.773 10.58 414.425 10.46 414.017 10.412C413.633 10.34 413.213 10.304 412.757 10.304C411.749 10.304 410.957 10.52 410.381 10.952C409.805 11.384 409.469 12.104 409.373 13.112H404.261ZM416.069 16.892C415.853 17.084 415.577 17.24 415.241 17.36C414.929 17.456 414.581 17.54 414.197 17.612C413.837 17.684 413.453 17.744 413.045 17.792C412.637 17.84 412.229 17.9 411.821 17.972C411.437 18.044 411.053 18.14 410.669 18.26C410.309 18.38 409.985 18.548 409.697 18.764C409.433 18.956 409.217 19.208 409.049 19.52C408.881 19.832 408.797 20.228 408.797 20.708C408.797 21.164 408.881 21.548 409.049 21.86C409.217 22.172 409.445 22.424 409.733 22.616C410.021 22.784 410.357 22.904 410.741 22.976C411.125 23.048 411.521 23.084 411.929 23.084C412.937 23.084 413.717 22.916 414.269 22.58C414.821 22.244 415.229 21.848 415.493 21.392C415.757 20.912 415.913 20.432 415.961 19.952C416.033 19.472 416.069 19.088 416.069 18.8V16.892ZM435.445 26L441.745 7.388H436.669L432.745 20.096H432.673L428.749 7.388H423.385L429.757 26H435.445ZM456.38 14.696H448.064C448.088 14.336 448.16 13.928 448.28 13.472C448.424 13.016 448.652 12.584 448.964 12.176C449.3 11.768 449.732 11.432 450.26 11.168C450.812 10.88 451.496 10.736 452.312 10.736C453.56 10.736 454.484 11.072 455.084 11.744C455.708 12.416 456.14 13.4 456.38 14.696ZM448.064 17.936H461.492C461.588 16.496 461.468 15.116 461.132 13.796C460.796 12.476 460.244 11.3 459.476 10.268C458.732 9.236 457.772 8.42 456.596 7.82C455.42 7.196 454.04 6.884 452.456 6.884C451.04 6.884 449.744 7.136 448.568 7.64C447.416 8.144 446.42 8.84 445.58 9.728C444.74 10.592 444.092 11.624 443.636 12.824C443.18 14.024 442.952 15.32 442.952 16.712C442.952 18.152 443.168 19.472 443.6 20.672C444.056 21.872 444.692 22.904 445.508 23.768C446.324 24.632 447.32 25.304 448.496 25.784C449.672 26.24 450.992 26.468 452.456 26.468C454.568 26.468 456.368 25.988 457.856 25.028C459.344 24.068 460.448 22.472 461.168 20.24H456.668C456.5 20.816 456.044 21.368 455.3 21.896C454.556 22.4 453.668 22.652 452.636 22.652C451.196 22.652 450.092 22.28 449.324 21.536C448.556 20.792 448.136 19.592 448.064 17.936ZM495.82 26L501.688 7.388H496.432L493.012 19.988H492.94L489.772 7.388H484.804L481.708 20.024H481.636L478.216 7.388H472.816L478.72 26H484.012L487.18 13.508H487.252L490.564 26H495.82ZM503.864 0.295998V26H508.976V16.244C508.976 14.348 509.288 12.992 509.912 12.176C510.536 11.336 511.544 10.916 512.936 10.916C514.16 10.916 515.012 11.3 515.492 12.068C515.972 12.812 516.212 13.952 516.212 15.488V26H521.324V14.552C521.324 13.4 521.216 12.356 521 11.42C520.808 10.46 520.46 9.656 519.956 9.008C519.452 8.336 518.756 7.82 517.868 7.46C517.004 7.076 515.888 6.884 514.52 6.884C513.56 6.884 512.576 7.136 511.568 7.64C510.56 8.12 509.732 8.9 509.084 9.98H508.976V0.295998H503.864ZM524.988 13.112C525.06 11.912 525.36 10.916 525.888 10.124C526.416 9.332 527.088 8.696 527.904 8.216C528.72 7.736 529.632 7.4 530.64 7.208C531.672 6.992 532.704 6.884 533.736 6.884C534.672 6.884 535.62 6.956 536.58 7.1C537.54 7.22 538.416 7.472 539.208 7.856C540 8.24 540.648 8.78 541.152 9.476C541.656 10.148 541.908 11.048 541.908 12.176V21.86C541.908 22.7 541.956 23.504 542.052 24.272C542.148 25.04 542.316 25.616 542.556 26H537.372C537.276 25.712 537.192 25.424 537.12 25.136C537.072 24.824 537.036 24.512 537.012 24.2C536.196 25.04 535.236 25.628 534.132 25.964C533.028 26.3 531.9 26.468 530.748 26.468C529.86 26.468 529.032 26.36 528.264 26.144C527.496 25.928 526.824 25.592 526.248 25.136C525.672 24.68 525.216 24.104 524.88 23.408C524.568 22.712 524.412 21.884 524.412 20.924C524.412 19.868 524.592 19.004 524.952 18.332C525.336 17.636 525.816 17.084 526.392 16.676C526.992 16.268 527.664 15.968 528.408 15.776C529.176 15.56 529.944 15.392 530.712 15.272C531.48 15.152 532.236 15.056 532.98 14.984C533.724 14.912 534.384 14.804 534.96 14.66C535.536 14.516 535.992 14.312 536.328 14.048C536.664 13.76 536.82 13.352 536.796 12.824C536.796 12.272 536.7 11.84 536.508 11.528C536.34 11.192 536.1 10.94 535.788 10.772C535.5 10.58 535.152 10.46 534.744 10.412C534.36 10.34 533.94 10.304 533.484 10.304C532.476 10.304 531.684 10.52 531.108 10.952C530.532 11.384 530.196 12.104 530.1 13.112H524.988ZM536.796 16.892C536.58 17.084 536.304 17.24 535.968 17.36C535.656 17.456 535.308 17.54 534.924 17.612C534.564 17.684 534.18 17.744 533.772 17.792C533.364 17.84 532.956 17.9 532.548 17.972C532.164 18.044 531.78 18.14 531.396 18.26C531.036 18.38 530.712 18.548 530.424 18.764C530.16 18.956 529.944 19.208 529.776 19.52C529.608 19.832 529.524 20.228 529.524 20.708C529.524 21.164 529.608 21.548 529.776 21.86C529.944 22.172 530.172 22.424 530.46 22.616C530.748 22.784 531.084 22.904 531.468 22.976C531.852 23.048 532.248 23.084 532.656 23.084C533.664 23.084 534.444 22.916 534.996 22.58C535.548 22.244 535.956 21.848 536.22 21.392C536.484 20.912 536.64 20.432 536.688 19.952C536.76 19.472 536.796 19.088 536.796 18.8V16.892ZM552.356 7.388V1.808H547.244V7.388H544.148V10.808H547.244V21.788C547.244 22.724 547.4 23.48 547.712 24.056C548.024 24.632 548.444 25.076 548.972 25.388C549.524 25.7 550.148 25.904 550.844 26C551.564 26.12 552.32 26.18 553.112 26.18C553.616 26.18 554.132 26.168 554.66 26.144C555.188 26.12 555.668 26.072 556.1 26V22.04C555.86 22.088 555.608 22.124 555.344 22.148C555.08 22.172 554.804 22.184 554.516 22.184C553.652 22.184 553.076 22.04 552.788 21.752C552.5 21.464 552.356 20.888 552.356 20.024V10.808H556.1V7.388H552.356ZM577.731 28.304L585.507 7.388H580.215L576.147 20.132H576.075L571.863 7.388H566.427L572.943 24.848C573.087 25.208 573.159 25.592 573.159 26C573.159 26.552 572.991 27.056 572.655 27.512C572.343 27.968 571.851 28.232 571.179 28.304C570.675 28.328 570.171 28.316 569.667 28.268C569.163 28.22 568.671 28.172 568.191 28.124V32.336C568.719 32.384 569.235 32.42 569.739 32.444C570.267 32.492 570.795 32.516 571.323 32.516C573.075 32.516 574.443 32.192 575.427 31.544C576.411 30.896 577.179 29.816 577.731 28.304ZM591.755 16.712C591.755 15.968 591.827 15.236 591.971 14.516C592.115 13.796 592.355 13.16 592.691 12.608C593.051 12.056 593.519 11.612 594.095 11.276C594.671 10.916 595.391 10.736 596.255 10.736C597.119 10.736 597.839 10.916 598.415 11.276C599.015 11.612 599.483 12.056 599.819 12.608C600.179 13.16 600.431 13.796 600.575 14.516C600.719 15.236 600.791 15.968 600.791 16.712C600.791 17.456 600.719 18.188 600.575 18.908C600.431 19.604 600.179 20.24 599.819 20.816C599.483 21.368 599.015 21.812 598.415 22.148C597.839 22.484 597.119 22.652 596.255 22.652C595.391 22.652 594.671 22.484 594.095 22.148C593.519 21.812 593.051 21.368 592.691 20.816C592.355 20.24 592.115 19.604 591.971 18.908C591.827 18.188 591.755 17.456 591.755 16.712ZM586.643 16.712C586.643 18.2 586.871 19.544 587.327 20.744C587.783 21.944 588.431 22.976 589.271 23.84C590.111 24.68 591.119 25.328 592.295 25.784C593.471 26.24 594.791 26.468 596.255 26.468C597.719 26.468 599.039 26.24 600.215 25.784C601.415 25.328 602.435 24.68 603.275 23.84C604.115 22.976 604.763 21.944 605.219 20.744C605.675 19.544 605.903 18.2 605.903 16.712C605.903 15.224 605.675 13.88 605.219 12.68C604.763 11.456 604.115 10.424 603.275 9.584C602.435 8.72 601.415 8.06 600.215 7.604C599.039 7.124 597.719 6.884 596.255 6.884C594.791 6.884 593.471 7.124 592.295 7.604C591.119 8.06 590.111 8.72 589.271 9.584C588.431 10.424 587.783 11.456 587.327 12.68C586.871 13.88 586.643 15.224 586.643 16.712ZM626.687 26V7.388H621.575V17.144C621.575 19.04 621.263 20.408 620.639 21.248C620.015 22.064 619.007 22.472 617.615 22.472C616.391 22.472 615.539 22.1 615.059 21.356C614.579 20.588 614.339 19.436 614.339 17.9V7.388H609.227V18.836C609.227 19.988 609.323 21.044 609.515 22.004C609.731 22.94 610.091 23.744 610.595 24.416C611.099 25.064 611.783 25.568 612.647 25.928C613.535 26.288 614.663 26.468 616.031 26.468C617.111 26.468 618.167 26.228 619.199 25.748C620.231 25.268 621.071 24.488 621.719 23.408H621.827V26H626.687ZM653.259 13.94H658.263C658.191 12.74 657.903 11.708 657.399 10.844C656.895 9.956 656.235 9.224 655.419 8.648C654.627 8.048 653.715 7.604 652.683 7.316C651.675 7.028 650.619 6.884 649.515 6.884C648.003 6.884 646.659 7.136 645.483 7.64C644.307 8.144 643.311 8.852 642.495 9.764C641.679 10.652 641.055 11.72 640.623 12.968C640.215 14.192 640.011 15.524 640.011 16.964C640.011 18.356 640.239 19.64 640.695 20.816C641.151 21.968 641.787 22.964 642.603 23.804C643.419 24.644 644.403 25.304 645.555 25.784C646.731 26.24 648.015 26.468 649.407 26.468C651.879 26.468 653.907 25.82 655.491 24.524C657.075 23.228 658.035 21.344 658.371 18.872H653.439C653.271 20.024 652.851 20.948 652.179 21.644C651.531 22.316 650.595 22.652 649.371 22.652C648.579 22.652 647.907 22.472 647.355 22.112C646.803 21.752 646.359 21.296 646.023 20.744C645.711 20.168 645.483 19.532 645.339 18.836C645.195 18.14 645.123 17.456 645.123 16.784C645.123 16.088 645.195 15.392 645.339 14.696C645.483 13.976 645.723 13.328 646.059 12.752C646.419 12.152 646.875 11.672 647.427 11.312C647.979 10.928 648.663 10.736 649.479 10.736C651.663 10.736 652.923 11.804 653.259 13.94ZM661.042 13.112C661.114 11.912 661.414 10.916 661.942 10.124C662.47 9.332 663.142 8.696 663.958 8.216C664.774 7.736 665.686 7.4 666.694 7.208C667.726 6.992 668.758 6.884 669.79 6.884C670.726 6.884 671.674 6.956 672.634 7.1C673.594 7.22 674.47 7.472 675.262 7.856C676.054 8.24 676.702 8.78 677.206 9.476C677.71 10.148 677.962 11.048 677.962 12.176V21.86C677.962 22.7 678.01 23.504 678.106 24.272C678.202 25.04 678.37 25.616 678.61 26H673.426C673.33 25.712 673.246 25.424 673.174 25.136C673.126 24.824 673.09 24.512 673.066 24.2C672.25 25.04 671.29 25.628 670.186 25.964C669.082 26.3 667.954 26.468 666.802 26.468C665.914 26.468 665.086 26.36 664.318 26.144C663.55 25.928 662.878 25.592 662.302 25.136C661.726 24.68 661.27 24.104 660.934 23.408C660.622 22.712 660.466 21.884 660.466 20.924C660.466 19.868 660.646 19.004 661.006 18.332C661.39 17.636 661.87 17.084 662.446 16.676C663.046 16.268 663.718 15.968 664.462 15.776C665.23 15.56 665.998 15.392 666.766 15.272C667.534 15.152 668.29 15.056 669.034 14.984C669.778 14.912 670.438 14.804 671.014 14.66C671.59 14.516 672.046 14.312 672.382 14.048C672.718 13.76 672.874 13.352 672.85 12.824C672.85 12.272 672.754 11.84 672.562 11.528C672.394 11.192 672.154 10.94 671.842 10.772C671.554 10.58 671.206 10.46 670.798 10.412C670.414 10.34 669.994 10.304 669.538 10.304C668.53 10.304 667.738 10.52 667.162 10.952C666.586 11.384 666.25 12.104 666.154 13.112H661.042ZM672.85 16.892C672.634 17.084 672.358 17.24 672.022 17.36C671.71 17.456 671.362 17.54 670.978 17.612C670.618 17.684 670.234 17.744 669.826 17.792C669.418 17.84 669.01 17.9 668.602 17.972C668.218 18.044 667.834 18.14 667.45 18.26C667.09 18.38 666.766 18.548 666.478 18.764C666.214 18.956 665.998 19.208 665.83 19.52C665.662 19.832 665.578 20.228 665.578 20.708C665.578 21.164 665.662 21.548 665.83 21.86C665.998 22.172 666.226 22.424 666.514 22.616C666.802 22.784 667.138 22.904 667.522 22.976C667.906 23.048 668.302 23.084 668.71 23.084C669.718 23.084 670.498 22.916 671.05 22.58C671.602 22.244 672.01 21.848 672.274 21.392C672.538 20.912 672.694 20.432 672.742 19.952C672.814 19.472 672.85 19.088 672.85 18.8V16.892ZM681.93 7.388V26H687.042V16.244C687.042 14.348 687.354 12.992 687.978 12.176C688.602 11.336 689.61 10.916 691.002 10.916C692.226 10.916 693.078 11.3 693.558 12.068C694.038 12.812 694.278 13.952 694.278 15.488V26H699.39V14.552C699.39 13.4 699.282 12.356 699.066 11.42C698.874 10.46 698.526 9.656 698.022 9.008C697.518 8.336 696.822 7.82 695.934 7.46C695.07 7.076 693.954 6.884 692.586 6.884C691.506 6.884 690.45 7.136 689.418 7.64C688.386 8.12 687.546 8.9 686.898 9.98H686.79V7.388H681.93ZM703.486 20.456V26H709.138V20.456H703.486Z" fill="#ccc"/>
</svg>
