<svg width="43" height="43" fill="none" xmlns="http://www.w3.org/2000/svg"><path stroke="#222" stroke-width="1.767" d="M19.55 24.262a8.105 8.105 0 0 1-11.463 0 8.105 8.105 0 1 1 11.463 0Z"/><circle cx="12.036" cy="17.257" r="1.019" fill="#222"/><circle cx="15.602" cy="17.257" r="1.019" fill="#222"/><path stroke="#222" stroke-width="1.767" d="M34.324 24.262A8.105 8.105 0 1 1 22.86 12.8a8.105 8.105 0 0 1 11.463 11.462Z"/><circle cx="26.809" cy="17.257" r="1.019" fill="#222"/><circle cx="30.375" cy="17.257" r="1.019" fill="#222"/><path stroke="#222" stroke-width="1.767" d="M26.936 34.196a8.465 8.465 0 1 1-11.971-11.972 8.465 8.465 0 0 1 11.971 11.972Z"/><path stroke="#222" stroke-linecap="round" stroke-width="1.767" d="M16.428 28.476c3.134 2.257 6.358 1.995 9.045 0m-1.211-9.691c3.001 2.162 6.088 1.91 8.66 0m-23.433 0c3 2.162 6.087 1.91 8.66 0"/><circle cx="19.088" cy="26.88" r="1.064" fill="#222"/><circle cx="22.813" cy="26.88" r="1.064" fill="#222"/></svg>