<svg width="29" height="43" xmlns="http://www.w3.org/2000/svg"><path fill="#fff" stroke="#222" stroke-width="1.616" d="M.808 1.79c0-.542.446-.982.994-.982h25.397c.548 0 .993.44.993.983v39.42a.993.983 0 0 1-.993.981H1.802a.993.983 0 0 1-.994-.982Z"/><circle cx="12.445" cy="8.594" r="1.1" fill="#222"/><circle cx="16.537" cy="8.594" r="1.1" fill="#222"/><path fill="none" stroke="#222" stroke-linecap="round" stroke-width="1.616" d="M9.445 10.51c3.46 2.105 7.022 1.86 9.99 0M.718 17.869h27.443M3.847 12.152v3.215m0 5.478v3.097"/><path fill="#f53636" d="M10.347 10.008a2.047 2.025 0 1 1-4.092 0 2.047 2.025 0 0 1 4.092 0zM22.7 9.963a2.047 2.025 0 1 1-4.094 0 2.047 2.025 0 0 1 4.094 0z"/></svg>