<svg width="115" height="43" xmlns="http://www.w3.org/2000/svg"><path fill="#fff" stroke="#222" stroke-width="1.616" d="M.898 1.79c0-.542.446-.982.994-.982h25.397c.548 0 .993.44.993.983v39.42a.993.983 0 0 1-.993.981H1.892a.993.983 0 0 1-.994-.982Z"/><circle cx="12.535" cy="8.594" r="1.1" fill="#222"/><circle cx="16.627" cy="8.594" r="1.1" fill="#222"/><path fill="none" stroke="#222" stroke-linecap="round" stroke-width="1.616" d="M9.535 10.51c3.46 2.105 7.022 1.86 9.99 0M.808 17.869h27.443M3.937 12.152v3.215m0 5.478v3.097"/><path fill="#f53636" d="M10.437 10.008a2.047 2.025 0 1 1-4.092 0 2.047 2.025 0 0 1 4.092 0zm12.353-.045a2.047 2.025 0 1 1-4.094 0 2.047 2.025 0 0 1 4.094 0z"/><text xml:space="preserve" x="35.841" y="11.787" font-family="MuseoModerno" font-size="13.333" letter-spacing="0" style="line-height:1;-inkscape-font-specification:MuseoModerno" word-spacing="0"><tspan x="35.841" y="11.787" fill="#222">Community</tspan><tspan x="35.841" y="25.12" fill="#222">Fridge</tspan><tspan x="35.841" y="38.453" fill="#222">Map</tspan></text></svg>