<svg width="43" height="43" xmlns="http://www.w3.org/2000/svg"><path stroke="#222" stroke-linejoin="round" stroke-width="1.742" d="M29.127 19.786c0 5.997-7.627 11.137-7.627 11.137s-7.629-5.14-7.629-11.14c0-2.043.804-4.005 2.233-5.45a7.587 7.587 0 0 1 5.397-2.256c2.022 0 3.963.813 5.395 2.256a7.752 7.752 0 0 1 2.233 5.453z"/><circle cx="22.52" cy="18.979" r=".637" fill="#222"/><circle cx="20.14" cy="18.979" r=".637" fill="#222"/><path stroke="#222" stroke-linecap="round" stroke-width="1.049" d="M18.263 19.714c2.195 1.908 4.453 1.686 6.335 0"/><circle cx="17.35" cy="19.31" r="1.357" fill="#f53636"/><circle cx="25.5" cy="19.31" r="1.357" fill="#f53636"/></svg>