<svg width="43" height="43" xmlns="http://www.w3.org/2000/svg"><path stroke="#222" stroke-width="1.5" d="m21.29 22.66-4.53 3.9m2.349 2.96 4.53-3.9m-4.82-5.83-4.53 3.9m2.47 2.87c-.79.68-1.99.59-2.67-.2-.68-.79-.59-1.99.2-2.67m4.94 5.74c-.79.68-1.99.59-2.67-.2-.68-.79-.59-1.99.2-2.67m-2.47-2.87c-.79.68-1.99.59-2.67-.2-.68-.79-.59-1.99.2-2.67l6.32-5.52 4.89-3.89a3.811 3.811 0 0 1 5.18.43l4.87 5.37a3.806 3.806 0 0 1-.31 5.42l-6.66 5.86-4.53 3.9c-.79.68-1.99.59-2.67-.2-.68-.79-.59-1.99.2-2.67"/><path stroke="#222" stroke-width="1.5" d="M9.669 19.6a2.971 2.971 0 0 1 .3-4.21c1.703-1.457 3.396-2.924 5.09-4.39a3.492 3.492 0 0 1 4.72.15c1.447 1.295 2.672 2.796 3.94 4.26.73.84.66 2.12-.16 2.88-.86.8-2.21.72-2.98-.17l-2.94-3.36"/></svg>