<svg width="300" height="185" xmlns="http://www.w3.org/2000/svg"><path d="M-22.488 119.934c-.18.009-.363.022-.545.033-2.958 4.17-6.636 5.87-9.924 5.633-2.626-.19-4.66-1.384-6.328-2.696a7.68 7.68 0 0 0-.697 1.73c-.42 1.52-.64 3.53-.682 5.673-.073 3.671.376 7.547.861 10.54 8.805.159 20.982.343 31.463.397 5.524.029 10.495.023 14.06-.039 1.686-.03 2.994-.075 3.936-.129.026-.379.04-.605.059-1.103.047-1.29.047-2.969-.143-5.036.012.133-.566-1.074-2.22-2.359-1.655-1.285-4.138-2.782-7.168-4.295-5.995-2.993-14.153-6.073-22.672-8.35Zm-55.91.776c-8.522 2.278-16.682 5.357-22.678 8.35-3.03 1.513-5.516 3.01-7.17 4.295-1.655 1.286-2.231 2.495-2.219 2.362a38.78 38.78 0 0 0-.084 6.137c.943.054 2.25.1 3.936.128 3.566.063 8.536.068 14.06.04 10.482-.055 22.659-.239 31.463-.397.485-2.994.935-6.87.861-10.541-.042-2.143-.264-4.152-.683-5.672a7.663 7.663 0 0 0-.697-1.728c-1.668 1.311-3.7 2.504-6.327 2.693-3.288.236-6.966-1.463-9.923-5.633-.18-.01-.361-.024-.54-.033z" style="fill:#b4b4b4" transform="translate(195.218 38.54)"/><path d="m92.438 108.324 6.671 15.195c-9.374-4.687-24.64-17.16-12.908-30.39z" style="fill:#fee1e1"/><path d="M87.249 92.016c-.37.371-.72.742-1.048 1.112m0 0c-11.732 13.231 3.534 25.704 12.908 30.391l-6.671-15.195zm31.998 64.143c5.57 8.976 12.663 5.184 15.514 2.166m-15.514-2.166c-.604-.047-1.2-.083-1.79-.108-17.503 4.636-33.425 12.626-33.812 16.84-.398 4.33 0 7.086 0 8.07 0 .788 35.403.328 53.105 0 1.193-6.299 2.466-19.644-1.99-22.636m-15.513-2.166 3.866-15.444 15.547 1.295-3.9 16.315m62.199 5.887c-1.61 2.421-3.221 3.631-6.039 3.429-2.819-.202-8.255-2.824-13.288-4.841-4.027-1.614-6.845-2.824-8.657-3.429m-14.51 11.919c29.635 3.246 46.551 1.967 51.305.922" style="stroke:#222;stroke-width:4;fill:none"/><path d="m132.095 161.321-10.378.371c-3.706-4.448-1.151-14.084-.741-19.272l16.307 1.482zm38.173-2.223-12.23 2.223c-3.707-4.447-1.766-12.971-1.355-18.16l14.326 1.482z" style="fill:#fee1e1"/><path d="M118.199 157.271c5.57 8.976 12.663 5.184 15.514 2.166m-15.514-2.166c-.604-.047-1.2-.083-1.79-.108-17.503 4.636-33.425 12.626-33.812 16.84-.398 4.33 0 7.086 0 8.07 0 .788 35.403.328 53.105 0 1.193-6.299 2.466-19.644-1.99-22.636m-15.513-2.166 3.866-15.444 15.547 1.295-3.9 16.315" style="stroke:#222;stroke-width:4;fill:none"/><path d="M93.303 166.101c1.611 2.421 3.222 3.631 6.04 3.429 2.819-.201 8.255-2.823 13.288-4.841 4.026-1.613 6.845-2.823 8.657-3.429m14.509 11.92c-29.633 3.246-46.55 1.968-51.304.923m86.524-17.609c-5.57 8.976-12.664 5.183-15.515 2.165m15.514-2.165c.604-.048 1.2-.084 1.79-.109 17.503 4.636 33.425 12.626 33.812 16.84.398 4.331 0 7.087 0 8.071 0 .787-35.403.328-53.105 0-1.193-6.299-2.466-19.645 1.99-22.637m15.513-2.165v-14.667h-15.514v16.832" style="stroke:#222;stroke-width:4;fill:none"/><path d="M88.361 94.24c-5.998-35.13 0-67.453 56.106-48.668 58.786-21.379 69.164 17.231 59.528 51.328-7.213 25.52-14.455 55.898-59.528 43.358-42.022 14.764-53.511-30.822-56.106-46.018Z" style="fill:#fee1e1;stroke:#222;stroke-width:4"/><path d="M129.567 99.545c-.741-7.413 4.818-12.972 8.524 1.482z" style="fill:#ff6262"/><path d="M122.087 93.498c8.908 10.378 32.579 11.354 42.25 0" style="stroke:#222;stroke-width:4;fill:none"/><circle cx="167.304" cy="86.456" r="8.9" style="fill:#ff6262"/><circle cx="118.381" cy="86.456" r="8.9" style="fill:#ff6262"/><circle cx="136.322" cy="87.226" r="4.45" style="fill:#222"/><circle cx="148.772" cy="87.226" r="4.45" style="fill:#222"/><path d="M142.101 19.745H129.13c2.195 9.875 11.527 28.83 14.454 24.09 2.927-4.74-2.595-10.748-1.483-24.09z" style="stroke:#222;stroke-width:4;fill:#d38d5f"/><path d="M145.437 43.835c-.494-12.479 4.373-38.174 27.797-41.139 2.594 9.636.667 31.355-27.797 41.139z" style="fill:#222;stroke:#222;stroke-width:4"/><rect width="48.669" height="64.758" x="169.283" y="50.191" rx="5" style="fill:#f6f6f6"/><path d="M188.51 80.753h16.325" style="stroke:#222;stroke-width:4;stroke-linecap:square;stroke-miterlimit:4"/><path d="M215.648 48.317h-44.063c-1.168 0-2.29.457-3.116 1.27a4.303 4.303 0 0 0-1.29 3.067v60.717c0 1.15.464 2.253 1.29 3.067a4.443 4.443 0 0 0 3.116 1.27h44.063a4.446 4.446 0 0 0 3.116-1.27 4.306 4.306 0 0 0 1.29-3.067V52.654c0-1.15-.464-2.253-1.29-3.067a4.445 4.445 0 0 0-3.116-1.27zm0 65.054h-44.063V52.654h44.063z" style="fill:#222"/><path d="M198.065 57.843c-3.336 0-11.86-1.094-11.86-5.837-.144-.54-.3-1.336-.42-2.189h-5.88s-3.336 1.095-4.448-.73c-2.026-3.324 5.559-8.025 10.328-3.647 0 .243-.85 1.46 0 4.377-.284-2.027-.363-4.377.42-4.377 1.112 0 15.566-.73 19.272 0 3.706.73 2.224 2.918 1.483 6.566-.742 3.648-5.56 5.837-8.895 5.837z" style="fill:#fee1e1"/><path d="M185.785 49.817c-.284-2.027-.363-4.377.42-4.377 1.112 0 15.566-.73 19.272 0 3.706.73 2.224 2.918 1.483 6.566-.742 3.648-5.56 5.837-8.895 5.837-3.336 0-11.86-1.094-11.86-5.837-.144-.54-.3-1.336-.42-2.189zm0 0h-5.88s-3.336 1.095-4.448-.73c-2.026-3.324 5.559-8.025 10.328-3.647 0 .243-.85 1.46 0 4.377z" style="stroke:#222;stroke-width:4;fill:none"/><path d="M188.51 63.48h16.325" style="stroke:#222;stroke-width:4;stroke-linecap:square;stroke-miterlimit:4"/><circle cx="180.144" cy="63.48" r="2" style="fill:#222"/><path d="M188.51 72.163h16.325" style="stroke:#222;stroke-width:4;stroke-linecap:square;stroke-miterlimit:4"/><circle cx="180.144" cy="72.163" r="2" style="fill:#222"/><circle cx="180.144" cy="80.753" r="2" style="fill:#222"/><path d="M188.51 89.53h16.325" style="stroke:#222;stroke-width:4;stroke-linecap:square;stroke-miterlimit:4"/><circle cx="180.144" cy="89.53" r="2" style="fill:#222"/><path d="M188.51 98.12h16.325" style="stroke:#222;stroke-width:4;stroke-linecap:square;stroke-miterlimit:4"/><circle cx="180.144" cy="98.12" r="2" style="fill:#222"/></svg>