<svg width="154" height="185" fill="none" xmlns="http://www.w3.org/2000/svg"><path d="m12.491 108.628 6.671 15.195c-9.374-4.687-24.64-17.16-12.908-30.39l6.237 15.195Z" fill="#FEE1E1"/><path d="M7.302 92.32c-.37.371-.72.742-1.048 1.112m0 0c-11.732 13.231 3.534 25.704 12.908 30.391l-6.671-15.195-6.237-15.196Z" stroke="#222" stroke-width="4"/><path d="m52.148 161.625-10.378.371c-3.706-4.448-1.151-14.084-.741-19.272l16.307 1.482-5.188 17.419ZM90.321 159.402l-12.23 2.223c-3.707-4.447-1.766-12.971-1.355-18.16l14.326 1.482-.741 14.455Z" fill="#FEE1E1"/><path d="M38.252 157.575c5.57 8.976 12.663 5.184 15.514 2.166m-15.514-2.166c-.604-.047-1.2-.083-1.79-.108-17.503 4.636-33.425 12.626-33.812 16.84-.398 4.33 0 7.086 0 8.07 0 .788 35.403.328 53.105 0 1.193-6.299 2.466-19.644-1.99-22.636m-15.513-2.166 3.866-15.444 15.547 1.295-3.9 16.315" stroke="#222" stroke-width="4" stroke-linecap="round"/><path d="M13.356 166.405c1.611 2.421 3.222 3.631 6.04 3.429 2.819-.201 8.255-2.823 13.288-4.841 4.026-1.613 6.845-2.823 8.657-3.429M55.85 173.484c-29.633 3.246-46.55 1.968-51.304.923M91.07 156.798c-5.57 8.976-12.664 5.183-15.515 2.165m15.514-2.165c.604-.048 1.2-.084 1.79-.109 17.503 4.636 33.425 12.626 33.812 16.84.398 4.331 0 7.087 0 8.071 0 .787-35.403.328-53.105 0-1.193-6.299-2.466-19.645 1.99-22.637m15.513-2.165v-14.667H75.555v16.832" stroke="#222" stroke-width="4" stroke-linecap="round"/><path d="M115.964 165.628c-1.61 2.421-3.221 3.631-6.039 3.429-2.819-.202-8.255-2.824-13.288-4.841-4.027-1.614-6.845-2.824-8.657-3.429M73.47 172.706c29.635 3.246 46.551 1.967 51.305.922" stroke="#222" stroke-width="4" stroke-linecap="round"/><path d="M8.414 94.544c-5.998-35.13 0-67.453 56.106-48.668 58.786-21.379 69.164 17.231 59.528 51.328-7.213 25.52-14.455 55.898-59.528 43.358-42.022 14.764-53.511-30.822-56.106-46.018Z" fill="#FEE1E1" stroke="#222" stroke-width="4" stroke-linecap="round"/><path d="M49.62 99.849c-.741-7.413 4.818-12.972 8.524 1.482l-8.524-1.482Z" fill="#FF6262"/><path d="M42.14 93.802c8.908 10.378 32.579 11.354 42.25 0" stroke="#222" stroke-width="4" stroke-linecap="round"/><ellipse cx="87.357" cy="86.761" rx="8.895" ry="9.265" fill="#FF6262"/><ellipse cx="38.434" cy="86.761" rx="8.895" ry="9.265" fill="#FF6262"/><path d="M60.823 87.784c0 2.326-1.991 4.211-4.447 4.211-2.457 0-4.448-1.885-4.448-4.211 0-2.326 1.991-4.212 4.448-4.212 2.456 0 4.447 1.886 4.447 4.212Z" fill="#222"/><ellipse cx="68.825" cy="87.531" rx="4.447" ry="4.105" fill="#222"/><path d="M62.154 20.049H49.183c2.195 9.875 11.527 28.83 14.454 24.09 2.927-4.74-2.595-10.748-1.483-24.09Z" stroke="#222" stroke-width="4" stroke-linecap="round"/><path d="M65.49 44.139C64.996 31.66 69.863 5.965 93.287 3c2.594 9.636.667 31.355-27.797 41.139Z" fill="#222" stroke="#222" stroke-width="4" stroke-linecap="round"/><rect x="89.336" y="50.495" width="48.669" height="64.758" rx="5" fill="#fff"/><path d="M107.06 61.634h19.828v4.337H107.06v-4.337ZM107.06 70.308h19.828v4.336H107.06v-4.336ZM107.06 78.981h19.828v4.337H107.06v-4.337ZM107.06 87.653h19.828v4.337H107.06v-4.337ZM107.06 96.328h19.828v4.337H107.06v-4.337ZM98.248 61.634h4.406v4.337h-4.406v-4.337ZM98.248 70.308h4.406v4.336h-4.406v-4.336ZM98.248 78.981h4.406v4.337h-4.406v-4.337ZM98.248 87.653h4.406v4.337h-4.406v-4.337ZM98.248 96.328h4.406v4.337h-4.406v-4.337Z" fill="#222"/><path d="M135.701 48.621H91.638c-1.168 0-2.29.457-3.116 1.27a4.303 4.303 0 0 0-1.29 3.067v60.717c0 1.15.464 2.253 1.29 3.067a4.443 4.443 0 0 0 3.116 1.27h44.063a4.446 4.446 0 0 0 3.116-1.27 4.306 4.306 0 0 0 1.29-3.067V52.958c0-1.15-.464-2.253-1.29-3.067a4.445 4.445 0 0 0-3.116-1.27Zm0 65.054H91.638V52.958h44.063v60.717Z" fill="#222"/><path d="M118.118 58.147c-3.336 0-11.86-1.094-11.86-5.837-.144-.54-.3-1.336-.42-2.189h-5.88s-3.336 1.095-4.448-.73c-2.026-3.324 5.559-8.025 10.328-3.647 0 .243-.85 1.46 0 4.377-.284-2.027-.363-4.377.42-4.377 1.112 0 15.566-.73 19.272 0 3.706.73 2.224 2.918 1.483 6.566-.742 3.648-5.56 5.837-8.895 5.837Z" fill="#FEE1E1"/><path d="M105.838 50.121c-.284-2.027-.363-4.377.42-4.377 1.112 0 15.566-.73 19.272 0 3.706.73 2.224 2.918 1.483 6.566-.742 3.648-5.56 5.837-8.895 5.837-3.336 0-11.86-1.094-11.86-5.837-.144-.54-.3-1.336-.42-2.189Zm0 0h-5.88s-3.336 1.095-4.448-.73c-2.026-3.324 5.559-8.025 10.328-3.647 0 .243-.85 1.46 0 4.377Z" stroke="#222" stroke-width="4"/></svg>