<svg width="163" height="245" fill="none" xmlns="http://www.w3.org/2000/svg"><g transform="translate(0 .419)"><path fill="#fff" stroke="#222" stroke-width="4" d="M2 15C2 7.82 7.82 2 15 2h133c7.18 0 13 5.82 13 13v214.162c0 7.179-5.82 13-13 13H15c-7.18 0-13-5.82-13-13z"/><path stroke="#222" stroke-linecap="round" stroke-width="4" d="M21.644 68.986v18.262m0 31.112v17.585"/><path stroke="#222" stroke-width="4" d="M.43 101.147h160.605"/><path stroke="#222" stroke-linecap="round" stroke-width="4" d="M53.094 59.667c19.453 11.95 39.462 10.56 56.137 0"/><circle cx="113.04" cy="54.534" r="11.25" fill="#ff6262"/><path stroke="#222" stroke-linecap="round" stroke-width="4" d="M88 48.59c0-6.666 11-6.666 11 0m-34 0c0-6.666 11-6.666 11 0"/><circle cx="49.373" cy="54.782" r="11.25" fill="#ff6262"/></g></svg>