<svg width="163" height="245" fill="none" xmlns="http://www.w3.org/2000/svg"><path fill="#fff" stroke="#222" stroke-width="4" d="M2 15.419c0-7.18 5.82-13 13-13h133c7.18 0 13 5.82 13 13v214.162c0 7.179-5.82 13-13 13H15c-7.18 0-13-5.82-13-13z"/><path stroke="#222" stroke-linecap="round" stroke-width="4" d="M88 49.009c0-6.666 11-6.666 11 0m-34 0c0-6.666 11-6.666 11 0M53.094 60.086c19.453 11.95 39.462 10.56 56.137 0M2.799 101.803h156.34M21.644 69.405v18.262m0 31.112v17.585"/><path fill="#f53636" d="M60.623 55.201a11.25 11.25 0 0 1-11.25 11.25 11.25 11.25 0 0 1-11.25-11.25 11.25 11.25 0 0 1 11.25-11.25 11.25 11.25 0 0 1 11.25 11.25zm63.667-.248a11.25 11.25 0 0 1-11.25 11.25 11.25 11.25 0 0 1-11.25-11.25 11.25 11.25 0 0 1 11.25-11.25 11.25 11.25 0 0 1 11.25 11.25z"/></svg>