<svg width="300" height="185" fill="none" xmlns="http://www.w3.org/2000/svg"><path fill="#4467d7" stroke="#222" stroke-linecap="round" stroke-width="4" d="M191.964 111.042c-.424.137-.839.279-1.247.427-10.605 8.036-19.2 17.897-18.29 20.857.936 3.04 1.974 4.793 2.25 5.459.218.533 24.153-9.687 36.092-14.864-.943-4.595-3.796-13.98-7.658-14.757m-11.147 2.878c6.286 4.513 10.051-.038 11.147-2.878m32.839 6.798c.392.195.776.395 1.15.598 9.157 9.364 16.092 20.212 14.775 22.957-1.352 2.822-2.617 4.376-2.981 4.983-.29.486-22.103-12.948-32.973-19.725 1.586-4.333 5.725-13.046 9.596-13.238m10.433 4.425c-6.774 3.474-9.778-1.503-10.433-4.425"/><path fill="#ccdfff" stroke="#222" stroke-linecap="round" stroke-width="4" d="M235.95 114.962c-6.774 3.474-9.778-1.503-10.433-4.425m10.433 4.425-.993-20.441-10.364 3.316.924 12.7m-33.553.505c6.286 4.513 10.051-.038 11.147-2.878m-11.146 2.878V93.691l11.484 4.147v4.975l-.337 5.351"/><path fill="#ccdfff" stroke="#222" stroke-width="4" d="M142.464 123.646c3.317-9.536-2.9-15.616-7.047-19.071-4.146 13.681-12.023 31.343-8.707 32.338 4.147 1.243 11.9-2.185 15.755-13.267z"/><path fill="#ccdfff" stroke="#222" stroke-width="4" d="M135.49 112.065c0 22.774-21.126 41.666-47.75 41.666-26.625 0-47.75-18.892-47.75-41.666 0-22.774 21.124-41.666 47.75-41.666 26.625 0 47.75 18.892 47.75 41.666z"/><path fill="#4467d7" stroke="#222" stroke-linecap="round" stroke-width="4" d="M68.586 164.468a37.739 37.739 0 0 0-1.316-.079c-12.865 3.392-24.57 9.237-24.854 12.32-.292 3.168 0 5.184 0 5.904 0 .576 26.024.24 39.035 0 .877-4.608 1.813-14.372-1.462-16.561m29.468-1.991c.436-.035.868-.061 1.295-.079 12.664 3.336 24.184 9.085 24.464 12.117.288 3.115 0 5.098 0 5.806 0 .567-25.615.236-38.423 0-.864-4.532-1.785-14.134 1.439-16.287"/><path fill="#ccdfff" stroke="#222" stroke-linecap="round" stroke-width="4" d="m109.457 164.061-.957-13.34-10.268 3.58v11.317m11.225-1.557c-4.03 6.458-9.162 3.729-11.225 1.557"/><path stroke="#222" stroke-linecap="round" stroke-width="4" d="M127.47 170.529c-1.196 1.671-2.39 2.507-4.482 2.368-2.09-.139-6.122-1.95-9.856-3.344-2.988-1.114-5.078-1.95-6.423-2.368m-10.02 8.59c21.5 2.242 33.774 1.359 37.223.637m-83.752-5.467c1.195 1.88 2.39 2.821 4.48 2.664 2.091-.157 6.123-2.194 9.857-3.761 2.988-1.254 5.079-2.195 6.423-2.665m10.021 9.306c-21.5 2.242-33.773 1.359-37.222.637m27.916-60.766c6.49 7.289 23.734 7.974 30.78 0"/><circle cx="104.563" cy="110.99" r="6.442" fill="#222"/><circle cx="90.603" cy="111.349" r="3.221" fill="#222"/><path fill="#222" d="m73.781 74.221 7.766-4.152.659-4.533 8.05 2.863 8.353-1.527 1.296 3.675 8.236 1.225-6.354 4.263 3.472 5.758-12.65-2.18-7.744 5.966-3.082-7.636z"/><path fill="#ccdfff" stroke="#222" stroke-width="4" d="M262.815 56.058c0 22.774-21.125 41.666-47.75 41.666s-47.75-18.892-47.75-41.666c0-22.774 21.125-41.666 47.75-41.666s47.75 18.892 47.75 41.666z"/><path stroke="#222" stroke-linecap="round" stroke-width="4" d="M248.087 129.761c-1.883.822-3.338.926-5.061-.267-1.723-1.193-4.254-4.818-6.743-7.93-1.99-2.49-3.355-4.28-4.294-5.329m-13.01 2.226c17.3 12.962 28.286 18.505 31.617 19.656m-73.203-14.069c1.82 1.284 3.283 1.699 5.157.757 1.874-.941 4.826-4.36 7.682-7.231 2.284-2.297 3.86-3.962 4.923-4.909m12.81 4.788c-19.027 10.26-30.712 14.117-34.176 14.763m25.17-71.862c6.49 7.29 23.734 7.974 30.781 0"/><circle cx="231.887" cy="54.985" r="6.442" fill="#222"/><circle cx="217.929" cy="55.344" r="3.221" fill="#222"/><path fill="#222" d="m201.107 18.215 7.767-4.152.657-4.533 8.05 2.863 8.354-1.527 1.295 3.675 8.237 1.225-6.355 4.263 3.472 5.758-12.65-2.179-7.744 5.965-3.082-7.635z"/><path fill="#ccdfff" d="M262.993 56.375c10.825-5.431 14.834-14.622 14.834-22.56-6.949-5.29-22.853-17.544-8.018-17.962-.802-10.024 5.335-13.784 10.825-13.784 6.415 0 11.226 6.266 11.226 13.784 0 12.406-2.138 15.456-3.208 17.963-1.069 8.773-7.697 27.572-25.659 32.585z"/><path stroke="#222" stroke-width="4" d="M277.827 33.816c0 7.937-4.009 17.128-14.834 22.559v10.026c17.962-5.013 24.59-23.812 25.66-32.585m-10.826 0h10.825m-10.825 0c-6.949-5.292-22.853-17.545-8.018-17.963-.802-10.024 5.335-13.784 10.825-13.784 6.415 0 11.226 6.266 11.226 13.784 0 12.406-2.138 15.456-3.208 17.963"/><path fill="#ccdfff" d="M167.25 63.102c-3.697 9.486-3.697 22.683-3.697 30.518 7.12 5.224 23.415 17.32 8.216 17.732.82 9.896-5.466 13.608-11.091 13.608-6.573 0-11.502-6.186-11.502-13.608 0-12.247 2.19-15.258 3.286-17.732 1.096-8.66 0-37.528 14.788-45.364z"/><path stroke="#222" stroke-width="4" d="M163.553 93.62c0-7.835 0-21.032 3.697-30.518V48.257c-14.788 7.836-13.692 36.704-14.788 45.364m11.09 0h-11.09m11.09 0c7.12 5.224 23.416 17.32 8.217 17.732.82 9.896-5.466 13.608-11.091 13.608-6.573 0-11.502-6.186-11.502-13.608 0-12.247 2.19-15.258 3.286-17.732"/><path fill="#ccdfff" d="M37.831 108.679c-11.134-5.362-15.258-14.435-15.258-22.27 7.148-5.224 23.506-17.32 8.247-17.733.825-9.894-5.487-13.607-11.134-13.607-6.598 0-11.547 6.186-11.547 13.608 0 12.247 2.2 15.257 3.3 17.732 1.1 8.66 7.917 27.218 26.392 32.167z"/><path stroke="#222" stroke-width="4" d="M22.573 86.409c0 7.835 4.123 16.908 15.258 22.27v9.897c-18.475-4.949-25.293-23.507-26.393-32.167m11.135 0H11.438m11.135 0c7.148-5.224 23.506-17.32 8.247-17.733.825-9.894-5.487-13.607-11.134-13.607-6.598 0-11.547 6.186-11.547 13.608 0 12.247 2.2 15.257 3.3 17.732"/><path stroke="#222" stroke-linecap="round" stroke-width="4" d="M182.992 148.878c10.722-13.009 37.114-15.527 51.96 0"/><path stroke="#222" stroke-linecap="round" stroke-width="4" d="M187.94 159.6c9.19-13.01 31.812-15.528 44.537 0"/><path fill="#ccdfff" stroke="#222" stroke-linecap="round" stroke-width="4" d="m68.586 164.468 2.334-12.675 10.53 2.147-1.461 12.112m-11.403-1.584c4.093 6.567 9.308 3.793 11.403 1.584"/><circle cx="81.298" cy="111.349" r="3.221" fill="#222"/><circle cx="208.623" cy="54.986" r="3.221" fill="#222"/><circle cx="67.339" cy="110.99" r="6.442" fill="#222"/><circle cx="194.663" cy="54.627" r="6.442" fill="#222"/></svg>