<svg width="288" height="185" fill="none" xmlns="http://www.w3.org/2000/svg"><path d="M136.325 123.577c3.317-9.536-2.901-15.616-7.047-19.071-4.146 13.681-12.023 31.343-8.707 32.338 4.146 1.243 11.9-2.185 15.754-13.267Z" fill="#CCDFFF" stroke="#222" stroke-width="4"/><path d="M129.351 111.996c0 22.774-21.126 41.666-47.75 41.666-26.626 0-47.75-18.892-47.75-41.666 0-22.774 21.124-41.666 47.75-41.666 26.624 0 47.75 18.892 47.75 41.666Z" fill="#CCDFFF" stroke="#222" stroke-width="4"/><path d="m98.184 167.938-4.974-1.658v-12.437l9.12-2.903 1.244 13.267-5.39 3.731ZM69.164 168.353l-6.22-3.731 1.245-12.437 10.364 2.902v9.535l-5.39 3.731Z" fill="#CCDFFF"/><path d="M103.317 163.992c-4.03 6.458-9.162 3.729-11.225 1.557m11.225-1.557c.436-.035.868-.061 1.295-.079 12.664 3.336 24.184 9.085 24.464 12.117.288 3.115 0 5.098 0 5.806 0 .567-25.615.236-38.423 0-.864-4.532-1.785-14.134 1.439-16.287m11.225-1.557-.957-13.34-10.268 3.58v11.317" stroke="#222" stroke-width="4" stroke-linecap="round"/><path d="M121.33 170.46c-1.195 1.671-2.39 2.507-4.481 2.368-2.091-.139-6.123-1.95-9.857-3.344-2.987-1.114-5.077-1.95-6.422-2.368M90.55 175.706c21.5 2.242 33.773 1.359 37.222.637M62.446 164.399c4.093 6.567 9.308 3.793 11.403 1.584m-11.403-1.584a37.739 37.739 0 0 0-1.316-.079c-12.865 3.392-24.569 9.237-24.854 12.32-.292 3.168 0 5.184 0 5.904 0 .576 26.024.24 39.035 0 .877-4.608 1.813-14.372-1.462-16.561m-11.403-1.584 2.334-12.675 10.531 2.147-1.462 12.112" stroke="#222" stroke-width="4" stroke-linecap="round"/><path d="M44.02 170.876c1.195 1.88 2.39 2.821 4.48 2.664 2.092-.157 6.124-2.194 9.858-3.761 2.987-1.254 5.078-2.195 6.422-2.665M74.802 176.42c-21.5 2.242-33.774 1.359-37.223.637M65.495 116.291c6.49 7.289 23.735 7.974 30.78 0" stroke="#222" stroke-width="4" stroke-linecap="round"/><ellipse cx="98.423" cy="110.921" rx="6.442" ry="6.8" fill="#222"/><path d="M66.927 110.921c0 3.756-2.725 6.801-6.085 6.801s-6.085-3.045-6.085-6.801c0-3.755 2.724-6.8 6.085-6.8 3.36 0 6.085 3.045 6.085 6.8ZM78.404 111.647c0 1.701-1.457 3.081-3.254 3.081s-3.254-1.38-3.254-3.081c0-1.702 1.457-3.082 3.254-3.082s3.254 1.38 3.254 3.082Z" fill="#222"/><ellipse cx="84.464" cy="111.28" rx="3.221" ry="2.863" fill="#222"/><path d="M67.642 74.152 75.408 70l.658-4.533 8.05 2.863 8.354-1.527 1.295 3.675 8.237 1.225-6.354 4.263 3.472 5.758-12.65-2.18-7.744 5.966-3.082-7.636-8.002-3.722Z" fill="#222"/><path d="m229.608 115.18-.415-18.242-1.658-2.073L218 98.182l.414 10.365 2.488 4.56 4.145 2.488 4.561-.415Z" fill="#CCDFFF"/><path d="M256.676 55.989c0 22.774-21.125 41.666-47.75 41.666s-47.75-18.892-47.75-41.666c0-22.774 21.125-41.666 47.75-41.666s47.75 18.892 47.75 41.666Z" fill="#CCDFFF" stroke="#222" stroke-width="4"/><path d="M229.81 114.893c-6.774 3.474-9.778-1.503-10.433-4.425m10.433 4.425c.392.195.776.395 1.151.598 9.156 9.364 16.091 20.212 14.774 22.957-1.352 2.822-2.617 4.376-2.981 4.983-.29.486-22.103-12.948-32.973-19.725 1.586-4.333 5.725-13.046 9.596-13.238m10.433 4.425-.993-20.441-10.364 3.316.924 12.7" stroke="#222" stroke-width="4" stroke-linecap="round"/><path d="M241.947 129.692c-1.883.822-3.338.926-5.061-.267-1.722-1.193-4.253-4.818-6.742-7.93-1.991-2.49-3.356-4.28-4.295-5.329M212.839 118.392c17.3 12.962 28.286 18.505 31.617 19.656" stroke="#222" stroke-width="4" stroke-linecap="round"/><path d="m186.077 110.62-.829-15.754.829-1.244 10.779 3.731.829 9.121-2.487 4.561-4.561 1.658-4.56-2.073Z" fill="#CCDFFF"/><path d="M185.825 110.973c6.286 4.513 10.051-.038 11.147-2.878m-11.147 2.878c-.424.137-.839.279-1.247.427-10.605 8.036-19.201 17.897-18.29 20.857.936 3.04 1.974 4.793 2.249 5.459.219.533 24.154-9.687 36.093-14.864-.943-4.595-3.796-13.98-7.658-14.757m-11.147 2.878V93.622l11.484 4.147v4.975l-.337 5.351" stroke="#222" stroke-width="4" stroke-linecap="round"/><path d="M171.254 123.979c1.82 1.284 3.283 1.699 5.157.757 1.874-.941 4.826-4.36 7.682-7.231 2.284-2.297 3.86-3.962 4.923-4.909M201.826 117.384c-19.027 10.26-30.712 14.117-34.176 14.763M192.82 60.285c6.49 7.29 23.734 7.974 30.781 0" stroke="#222" stroke-width="4" stroke-linecap="round"/><ellipse cx="225.748" cy="54.916" rx="6.442" ry="6.8" fill="#222"/><path d="M194.251 54.916c0 3.755-2.724 6.8-6.084 6.8-3.361 0-6.085-3.045-6.085-6.8 0-3.756 2.724-6.8 6.085-6.8 3.36 0 6.084 3.044 6.084 6.8ZM205.729 55.64c0 1.702-1.457 3.082-3.254 3.082s-3.254-1.38-3.254-3.081c0-1.702 1.457-3.081 3.254-3.081s3.254 1.379 3.254 3.08Z" fill="#222"/><ellipse cx="211.789" cy="55.275" rx="3.221" ry="2.863" fill="#222"/><path d="m194.967 18.146 7.767-4.152.657-4.533 8.05 2.863 8.354-1.527 1.295 3.675 8.237 1.225-6.354 4.263 3.472 5.758-12.65-2.179-7.744 5.965-3.082-7.635-8.002-3.723Z" fill="#222"/><path d="M256.854 56.306c10.825-5.431 14.834-14.622 14.834-22.56-6.949-5.29-22.853-17.544-8.018-17.962C262.868 5.76 269.005 2 274.495 2c6.415 0 11.226 6.266 11.226 13.784 0 12.406-2.138 15.456-3.208 17.963-1.069 8.773-7.697 27.572-25.659 32.585V56.306Z" fill="#CCDFFF"/><path d="M271.688 33.747c0 7.937-4.009 17.128-14.834 22.559v10.026c17.962-5.013 24.59-23.812 25.659-32.585m-10.825 0h10.825m-10.825 0c-6.949-5.292-22.853-17.545-8.018-17.963C262.868 5.76 269.005 2 274.495 2c6.415 0 11.226 6.266 11.226 13.784 0 12.406-2.138 15.456-3.208 17.963" stroke="#222" stroke-width="4"/><path d="M161.11 63.033c-3.697 9.486-3.697 22.683-3.697 30.518 7.12 5.224 23.415 17.32 8.216 17.732.821 9.896-5.466 13.608-11.091 13.608-6.573 0-11.502-6.186-11.502-13.608 0-12.247 2.191-15.258 3.286-17.732 1.096-8.66 0-37.528 14.788-45.364v14.846Z" fill="#CCDFFF"/><path d="M157.413 93.551c0-7.835 0-21.032 3.697-30.518V48.188c-14.788 7.836-13.692 36.704-14.788 45.364m11.091 0h-11.091m11.091 0c7.12 5.224 23.415 17.32 8.216 17.732.821 9.896-5.466 13.608-11.091 13.608-6.573 0-11.502-6.186-11.502-13.608 0-12.247 2.191-15.258 3.286-17.732" stroke="#222" stroke-width="4"/><path d="M31.692 108.61c-11.134-5.362-15.258-14.435-15.258-22.27 7.148-5.224 23.506-17.32 8.247-17.733C25.506 58.713 19.194 55 13.547 55 6.949 55 2 61.186 2 68.608 2 80.855 4.2 83.865 5.3 86.34c1.099 8.66 7.917 27.218 26.392 32.167v-9.897Z" fill="#CCDFFF"/><path d="M16.434 86.34c0 7.835 4.123 16.908 15.258 22.27v9.897C13.217 113.558 6.399 95 5.299 86.34m11.135 0H5.299m11.135 0c7.148-5.224 23.506-17.32 8.247-17.733C25.506 58.713 19.194 55 13.547 55 6.949 55 2 61.186 2 68.608 2 80.855 4.2 83.865 5.3 86.34" stroke="#222" stroke-width="4"/><path d="M176.852 148.809c10.722-13.009 37.114-15.527 51.96 0" stroke="#222" stroke-width="4" stroke-linecap="round"/><path d="M181.8 159.531c9.19-13.01 31.812-15.528 44.537 0" stroke="#222" stroke-width="4" stroke-linecap="round"/></svg>