<svg width="319" height="197" fill="none" xmlns="http://www.w3.org/2000/svg"><path fill="#e8c33e" stroke="#222" stroke-width="4" d="M245.886 173.208c-4.765-.082-24.987 8.8-25.776 12.361-.286 3.113 0 5.093 0 5.8 0 .566 25.442.236 38.164 0 .857-4.526 1.772-14.117-1.43-16.268m26.808-2.114c4.578-.083 24.797 8.463 25.586 12.024.285 3.112 0 5.092 0 5.8 0 .565-25.444.235-38.165 0-.858-4.527-1.772-14.118 1.43-16.268"/><path fill="#f38c48" stroke="#222" stroke-linecap="round" stroke-width="4" d="M27.423 150.088v16.324m12.527-13.697c0 6.942-.773 10.432.553 12.383 1.658 2.439 28.002 20.452 13.448 28.52-10.08 5.588-23.274-9.569-26.528-15.386v-11.82m0 0c2.027 1.239 6.95 2.845 11.213 0m-8.45 1.876c10.87 10.32 14.738 12.571 17.87 11.07 2.506-1.201-5.973-9.006-9.42-12.946"/><path fill="#fff" stroke="#222" stroke-width="4" d="M90.88 18.598c0-7.18 5.82-13 13-13h97.05c7.178 0 13 5.82 13 13v160.309c0 7.179-5.822 13-13 13h-97.05c-7.18 0-13-5.821-13-13V18.597Z"/><circle cx="142.857" cy="41.62" r="4.284" fill="#222"/><circle cx="161.697" cy="41.62" r="4.284" fill="#222"/><path fill="#fec7c6" stroke="#222" stroke-width="4" d="M216.592 57.18c-1.083-18.883 11.607-46.872 47.98-36.886 29.527-9.237 52.11 10.433 48.533 36.886-10.097 43.604-93.024 49.295-96.513 0zm0 72.979c-1.083-18.884 11.607-46.872 47.98-36.887 29.527-9.236 52.11 10.433 48.533 36.887-2.555 18.886-13.413 33.761-48.533 31.159-43.652 6.77-47.455-21.994-47.98-31.159z"/><circle cx="258.187" cy="123.207" r="2.95" fill="#222"/><circle cx="266.888" cy="123.207" r="2.95" fill="#222"/><circle cx="258.187" cy="50.23" r="2.95" fill="#222"/><circle cx="266.888" cy="50.23" r="2.95" fill="#222"/><path fill="#fcedc8" stroke="#222" stroke-linecap="round" stroke-width="4" d="M14.146 61.665c-.714 9.244 1.738 16.371-3.93 37.33-2.142 6.044-7.643 23.394-2.5 35.909 6.43 15.643 26.791 20.266 53.225 14.222 26.434-6.044 31.077-34.843 23.22-46.22-11.678-16.904-19.29-25.133-23.22-42.91-3.928-17.776-18.218-24.284-28.219-21.795-10.002 2.489-17.86 14.22-18.575 23.464z"/><path stroke="#222" stroke-linecap="round" stroke-width="4" d="M54.59 180.589c-1.698 8.137-9.622 9.222-27.167-7.595m36.223-23.972 8.523 12.252"/><circle cx="38.202" cy="97.351" r="2.663" fill="#222"/><circle cx="49.263" cy="97.351" r="2.663" fill="#222"/><path stroke="#222" stroke-linecap="round" stroke-width="4" d="M25.293 103.979c9.393 8.057 12.398 1.535 19.913 1.535 7.514 0 10.144 5.946 18.973-2.302m184.311 24.503c6.402 7.458 23.413 8.159 30.364 0M248.49 54.737c6.402 7.459 23.413 8.16 30.364 0m-148.59-4.632c15.162 9.314 30.758 8.23 43.755 0M92.043 82.674H212.24M105.75 57.37v14.233m0 24.25v13.706"/><path fill="#f53636" d="M71.104 98.151c-.785 7.594-10.484 5.607-10.654 0 .785-7.594 10.484-5.607 10.654 0zm-42.615 2.397c-.785 7.594-10.484 5.607-10.654 0 0-7.103 10.654-7.103 10.654 0zm107.573-54.25a8.698 8.698 0 0 1-8.698 8.698 8.698 8.698 0 0 1-8.698-8.698 8.698 8.698 0 0 1 8.698-8.698 8.698 8.698 0 0 1 8.698 8.698zm49.554 0a8.698 8.698 0 0 1-8.698 8.698 8.698 8.698 0 0 1-8.698-8.698 8.698 8.698 0 0 1 8.698-8.698 8.698 8.698 0 0 1 8.698 8.698zm64.472 3.377a6.659 6.659 0 1 1-13.317 0 6.659 6.659 0 0 1 13.317 0zm0 75.11a6.659 6.659 0 1 1-13.317 0 6.659 6.659 0 0 1 13.317 0zm38.353-75.11a6.659 6.659 0 1 1-13.317 0 6.659 6.659 0 0 1 13.317 0zm0 75.11a6.658 6.658 0 1 1-13.316 0 6.658 6.658 0 0 1 13.316 0z"/><path fill="#c67039" stroke="#222" stroke-width="4" d="M22.096 21.839c3.321 2.052 10.106 8.233 11.387 15.773 1.305-.191 2.61-.385 3.914-.578 1.14-9.694-4.626-17.375-7.65-20.196l-7.65 5z"/><path fill="#b4b4b4" stroke="#222" stroke-linecap="round" stroke-width="4" d="M75.532 165.108c-6.212-4.886-3.929-11.317-1.212-15.868 2.715-4.547 5.986-6.463 7.103-9.358 1.397-3.619 3.604-11.498 5.845-15.976 2.24-4.478 12.438-11.148 19.491-8.093 7.053 3.055 6.381 14.59 4.82 18.721-1.564 4.131-9.543 10.947-11.36 13.414-1.817 2.468-3.42 9.524-7.054 14.459-3.634 4.935-9.869 8.809-17.633 2.701zm210.134-66.205c-5.874-3.215-4.866-8.909-3.232-13.093 1.633-4.18 4.098-6.238 4.627-8.814.661-3.22 1.403-10.113 2.65-14.17 1.246-4.055 8.835-11.056 15.156-9.49 6.322 1.566 7.374 11.3 6.647 14.972-.728 3.67-6.443 10.484-7.617 12.8-1.173 2.316-1.525 8.438-3.872 13.07-2.346 4.633-7.015 8.743-14.359 4.725zm-45.138 3.565c-6.626.974-9.252-4.178-10.468-8.501-1.216-4.32-.489-7.448-1.619-9.823-1.413-2.968-4.974-8.917-6.423-12.905-1.45-3.988.39-14.147 6.378-16.707 5.99-2.559 12.694 4.576 14.325 7.944 1.631 3.368 1.175 12.25 1.635 14.805.46 2.556 3.867 7.653 4.785 12.764.92 5.111-.33 11.205-8.613 12.423z"/><path fill="#222" d="m242.098 93.73 9.533-2.735v-6.96l9.032 5.468 9.533-3.977 3.011 3.977 7.777 1.492-7.777 4.226 4.516 6.96-13.046-4.226-10.035 8.452v-8.452l-12.544-4.226zm0-72.98 9.533-2.735v-6.96l9.032 5.469 9.533-3.978 3.011 3.978 7.777 1.491-7.777 4.226 4.516 6.96-13.046-4.225-10.035 8.452v-8.452ZM38.61 38.223c3.057-15.79 10.957-20.074 14.524-20.242 1.274 5.482.153 17.205-14.525 20.242z"/><path fill="#2cfb2c" stroke="#222" stroke-width="4" d="m256.844 175.101 2.802-11.724-11.173-.931-2.73 10.645c3.955 6.905 9.053 4.179 11.102 2.01m26.806-2.114c-4.002 6.45-9.1 3.725-11.149 1.556m11.149-1.556v-10.541h-11.149v12.097M263.153 2.762h-7.36c1.577 7.097 5.257 20.438 7.361 17.032 2.103-3.406.876-12.774 0-17.032z"/><path stroke="#222" stroke-linecap="round" stroke-width="4" d="M301.543 179.332c-5.261 5.902-14.836-1.652-20.11-3.478m-10.429 8.566c21.296 2.333 33.453 1.414 36.87.663m-80.07-5.193c5.078 5.615 13.853-1.355 20.11-3.479m10.43 8.568c-21.298 2.332-33.455 1.413-36.87.662M88.77 153.875l-8.24-3.68m19.184-12.204-7.787-3.978m12.343-.945-10.337-4.903m11.452-2.307-7.945-3.227m-12.787 37.83-6.286-3.663m216.746-68.724-7.294-1.794m13.906-12.837-6.967-2.105m9.97-2.602-9.193-2.485m9.038-3.585-6.985-1.467m-4.872 32.879-5.69-2.07m-52.898-3.665 7.295-1.794m-11.212-13.106 6.967-2.105m-9.969-2.602 9.192-2.485m-9.038-3.585 6.985-1.467m2.178 33.148 5.691-2.07"/></svg>