<svg width="300" height="185" xmlns="http://www.w3.org/2000/svg"><path d="M112.482 158.6c-.499.02-1.003.05-1.513.091-.589.949-1.197 1.728-1.817 2.362a8.742 8.742 0 0 1-1.88 1.484 6.638 6.638 0 0 1-1.887.74 6.375 6.375 0 0 1-1.838.133c-1.195-.086-2.318-.49-3.293-1.031a10.13 10.13 0 0 1-2.404-1.858c-.471.317-.867.77-1.196 1.33-.329.562-.592 1.23-.799 1.98-.413 1.496-.598 3.31-.636 5.212-.038 1.902.072 3.89.256 5.736a57.27 57.27 0 0 0 .693 4.883c7.484.14 18.71.305 28.064.354 9.355.048 16.84-.02 16.84-.354 0-.416.085-1.207.127-2.351a34.497 34.497 0 0 0-.127-4.473c-.04-.445-.286-.941-.715-1.475-.428-.533-1.038-1.103-1.808-1.7-1.54-1.197-3.716-2.5-6.344-3.811-2.628-1.313-5.71-2.635-9.059-3.875a117.767 117.767 0 0 0-10.664-3.377zm-47.689.656c-3.7.98-7.316 2.137-10.664 3.377-3.349 1.24-6.43 2.565-9.059 3.877-2.628 1.312-4.804 2.613-6.343 3.808-.77.598-1.38 1.17-1.809 1.703-.428.534-.674 1.03-.715 1.475a34.494 34.494 0 0 0-.127 4.473c.042 1.144.127 1.935.127 2.351 0 .333 7.485.402 16.84.354 9.355-.049 20.58-.215 28.064-.354a57.65 57.65 0 0 0 .692-4.882c.184-1.847.296-3.835.258-5.737-.038-1.901-.226-3.716-.639-5.213-.207-.748-.468-1.417-.797-1.978-.329-.561-.724-1.014-1.195-1.33a10.146 10.146 0 0 1-2.406 1.857c-.975.541-2.097.943-3.291 1.03a6.372 6.372 0 0 1-1.838-.131 6.637 6.637 0 0 1-1.887-.74 8.74 8.74 0 0 1-1.881-1.485c-.62-.634-1.228-1.415-1.816-2.363-.51-.04-1.015-.071-1.514-.092z" style="fill:#b4b4b4"/><path d="M110.532 46.283c-2.73 5.114-10.643 14.306-20.45 10.168 1.247-4.452 7.084-12.718 20.45-10.168zm-44.917 0c2.73 5.114 10.643 14.306 20.45 10.168-1.247-4.452-7.084-12.718-20.45-10.168z" style="fill:#222"/><path d="m66.326 159.246 2.174-8.699 12.686 3.987-1.813 6.886c-6.088 4.929-11.235.604-13.047-2.174zm44.579-1.088-.362-10.148-12.323 4.712v7.611c6.09 4.929 10.873.604 12.686-2.175z" style="fill:#fcedc8;fill-opacity:1"/><path d="m66.307 159.348 3.268-13.059 13.146 1.095-3.296 13.795m-34.17 5.636c1.362 2.046 2.724 3.07 5.107 2.899 2.383-.17 6.98-2.388 11.236-4.093 3.404-1.365 5.788-2.388 7.32-2.9M81.187 172.8c-25.057 2.745-39.362 1.664-43.382.78m73.163-14.889v-12.402H97.85v14.233m34.169 5.634c-1.362 2.047-2.724 3.07-5.107 2.9-2.383-.171-6.98-2.388-11.235-4.094-3.405-1.364-5.788-2.387-7.32-2.899m-12.269 10.08c25.057 2.745 39.362 1.663 43.381.78" style="stroke:#222;stroke-width:4;stroke-linecap:round;fill:none"/><path d="M32.063 101.406c-1.273-22.219 13.658-55.15 56.456-43.403 34.741-10.867 61.314 12.276 57.104 43.402-3.005 22.222-25.258 45.699-57.104 54.787-49.322-11.594-55.838-44.002-56.456-54.786Z" style="fill:#fcedc8;stroke:#222;stroke-width:4;stroke-linecap:round"/><path d="M69.595 105.425c7.532 8.776 27.548 9.601 35.726 0" style="stroke:#222;stroke-width:4;stroke-linecap:round;fill:none"/><circle cx="107.829" cy="99.47" r="7.52" style="fill:#ff6262"/><circle cx="66.459" cy="101.351" r="7.52" style="fill:#ff6262"/><circle cx="91.532" cy="100.121" r="3.76" style="fill:#222"/><path d="M94.353 44.628H80.877c1.856 5.06 7.919 15.532 8.662 12.145.74-3.37 3.56-9.325 4.814-12.145z" style="stroke:#222;stroke-width:4;stroke-linecap:round;fill:#f8863a"/><path d="M152.41 17.313c0-7.18 5.821-13 13-13h89.603c7.179 0 13 5.82 13 13v148.316c0 7.18-5.821 13-13 13H165.41c-7.179 0-13-5.82-13-13z" style="fill:#fff"/><path d="M152.41 17.313c0-7.18 5.821-13 13-13h89.603c7.179 0 13 5.82 13 13v148.316c0 7.18-5.821 13-13 13H165.41c-7.179 0-13-5.82-13-13z" style="fill:#fff"/><path d="M152.41 17.313c0-7.18 5.821-13 13-13h89.603c7.179 0 13 5.82 13 13v148.316c0 7.18-5.821 13-13 13H165.41c-7.179 0-13-5.82-13-13z" style="stroke:#222;stroke-width:4;fill:#fff;fill-opacity:1"/><path d="M166.357 53.053v13.048m0 22.471v13.047" style="stroke:#222;stroke-width:4;stroke-linecap:round"/><path d="M153.31 76.249h114.528" style="stroke:#222;stroke-width:4"/><path d="M189.553 45.804c14.067 9.227 28.535 8.154 40.592 0" style="stroke:#222;stroke-width:4;stroke-linecap:round;fill:none"/><circle cx="233.045" cy="42.543" r="7.97" style="fill:#ff6262"/><circle cx="218.91" cy="38.194" r="3.987" style="fill:#222"/><circle cx="81.005" cy="100.121" r="3.76" style="fill:#222"/><circle cx="185.925" cy="42.543" r="7.97" style="fill:#ff6262"/><circle cx="200.952" cy="38.194" r="3.987" style="fill:#222"/><path d="M110.968 158.691c.51-.041 1.015-.071 1.514-.092 14.8 3.92 28.263 10.676 28.59 14.239.337 3.662 0 5.992 0 6.824 0 .666-29.936.278-44.904 0-1.009-5.326-2.085-16.611 1.682-19.14m13.119-1.831c-4.71 7.589-10.708 4.383-13.119 1.831m-31.543-1.174c-.51-.04-1.015-.071-1.514-.092-14.8 3.92-28.263 10.676-28.59 14.24-.337 3.661 0 5.992 0 6.824 0 .666 29.936.277 44.904 0 1.009-5.326 2.085-16.611-1.682-19.141m-13.118-1.831c4.709 7.59 10.707 4.383 13.118 1.831" style="stroke:#222;stroke-width:4;stroke-linecap:round;fill:none"/></svg>