<svg width="241" height="181" fill="none" xmlns="http://www.w3.org/2000/svg"><path d="M80.543 43.97c-2.73 5.114-10.643 14.306-20.45 10.168 1.247-4.452 7.084-12.718 20.45-10.168ZM35.626 43.97c2.73 5.114 10.643 14.306 20.45 10.168-1.247-4.452-7.084-12.718-20.45-10.168Z" fill="#222"/><path d="m36.337 156.933 2.174-8.699 12.686 3.987-1.813 6.886c-6.088 4.929-11.235.604-13.047-2.174ZM80.916 155.845l-.362-10.148-12.323 4.712v7.611c6.09 4.929 10.873.604 12.686-2.175Z" fill="#FCEDC8"/><path d="M36.318 157.035c4.709 7.59 10.707 4.383 13.118 1.831m-13.118-1.831c-.51-.04-1.015-.071-1.514-.092-14.8 3.92-28.263 10.676-28.59 14.24-.337 3.661 0 5.992 0 6.824 0 .666 29.936.277 44.904 0 1.009-5.326 2.085-16.611-1.682-19.141m-13.118-1.831 3.268-13.059 13.146 1.095-3.296 13.795" stroke="#222" stroke-width="4" stroke-linecap="round"/><path d="M15.266 164.502c1.362 2.046 2.724 3.07 5.107 2.899 2.383-.17 6.98-2.388 11.236-4.093 3.404-1.365 5.788-2.388 7.32-2.9M51.198 170.487c-25.057 2.745-39.362 1.664-43.382.78M80.98 156.378c-4.71 7.589-10.708 4.383-13.119 1.831m13.118-1.831c.51-.041 1.015-.071 1.514-.092 14.8 3.92 28.263 10.676 28.59 14.239.337 3.662 0 5.992 0 6.824 0 .666-29.936.278-44.904 0-1.009-5.326-2.085-16.611 1.682-19.14m13.118-1.831v-12.402H67.861v14.233" stroke="#222" stroke-width="4" stroke-linecap="round"/><path d="M102.03 163.843c-1.362 2.047-2.724 3.07-5.107 2.9-2.383-.171-6.98-2.388-11.235-4.094-3.405-1.364-5.788-2.387-7.32-2.899M66.099 169.83c25.057 2.745 39.362 1.663 43.381.78" stroke="#222" stroke-width="4" stroke-linecap="round"/><path d="M2.074 99.093C.801 76.874 15.732 43.943 58.53 55.69c34.741-10.867 61.314 12.276 57.104 43.402-3.005 22.222-25.258 45.699-57.104 54.787C9.208 142.285 2.692 109.877 2.074 99.093Z" fill="#FCEDC8" stroke="#222" stroke-width="4" stroke-linecap="round"/><path d="M39.606 103.112c7.532 8.776 27.548 9.601 35.726 0" stroke="#222" stroke-width="4" stroke-linecap="round"/><ellipse cx="77.84" cy="97.157" rx="7.521" ry="7.835" fill="#FF6262"/><ellipse cx="36.472" cy="99.038" rx="7.521" ry="7.835" fill="#FF6262"/><path d="M54.777 98.02c0 1.966-1.684 3.56-3.76 3.56-2.077 0-3.761-1.594-3.761-3.56 0-1.968 1.684-3.562 3.76-3.562 2.077 0 3.761 1.594 3.761 3.561Z" fill="#222"/><ellipse cx="61.543" cy="97.808" rx="3.761" ry="3.471" fill="#222"/><path d="M64.364 42.315H50.888c1.856 5.06 7.919 15.532 8.662 12.145.74-3.37 3.56-9.325 4.814-12.145Z" stroke="#222" stroke-width="4" stroke-linecap="round"/><path d="M122.421 15c0-7.18 5.821-13 13-13h89.603c7.179 0 13 5.82 13 13v148.316c0 7.18-5.821 13-13 13h-89.603c-7.179 0-13-5.82-13-13V15Z" fill="#fff"/><path d="M122.421 15c0-7.18 5.821-13 13-13h89.603c7.179 0 13 5.82 13 13v148.316c0 7.18-5.821 13-13 13h-89.603c-7.179 0-13-5.82-13-13V15Z" fill="#fff" fill-opacity=".1"/><path d="M122.421 15c0-7.18 5.821-13 13-13h89.603c7.179 0 13 5.82 13 13v148.316c0 7.18-5.821 13-13 13h-89.603c-7.179 0-13-5.82-13-13V15Z" stroke="#222" stroke-width="4"/><path d="M136.368 50.74v13.048M136.368 86.259v13.047" stroke="#222" stroke-width="4" stroke-linecap="round"/><path d="M123.321 73.936h114.528" stroke="#222" stroke-width="4"/><path d="M159.564 43.491c14.067 9.227 28.535 8.154 40.592 0" stroke="#222" stroke-width="4" stroke-linecap="round"/><ellipse cx="203.056" cy="40.23" rx="7.973" ry="8.336" fill="#FF6262"/><path d="M164.638 40.23a8.336 8.336 0 1 1-16.672 0 8.336 8.336 0 0 1 16.672 0Z" fill="#FF6262"/><path d="M175.272 35.666c0 2.22-1.858 4.018-4.148 4.018-2.291 0-4.148-1.799-4.148-4.018 0-2.22 1.857-4.018 4.148-4.018 2.29 0 4.148 1.799 4.148 4.018Z" fill="#222"/><circle cx="188.921" cy="35.881" r="3.987" fill="#222"/></svg>