<svg width="319" height="197" fill="none" xmlns="http://www.w3.org/2000/svg"><path fill="#222" d="M35.026 38.223c3.058-15.79 10.958-20.074 14.525-20.242 1.274 5.482.153 17.205-14.525 20.242Z"/><path fill="#fff" d="M87.297 18.598c0-7.18 5.82-13 13-13h97.049c7.179 0 13 5.82 13 13v160.309c0 7.179-5.821 13-13 13h-97.049c-7.18 0-13-5.821-13-13V18.597Z"/><path fill="#fff" fill-opacity=".1" d="M87.297 18.598c0-7.18 5.82-13 13-13h97.049c7.179 0 13 5.82 13 13v160.309c0 7.179-5.821 13-13 13h-97.049c-7.18 0-13-5.821-13-13V18.597Z"/><path stroke="#222" stroke-width="4" d="M87.297 18.598c0-7.18 5.82-13 13-13h97.049c7.179 0 13 5.82 13 13v160.309c0 7.179-5.821 13-13 13h-97.049c-7.18 0-13-5.821-13-13V18.597Z"/><path stroke="#222" stroke-linecap="round" stroke-width="4" d="M102.167 57.37v14.233m0 24.25v13.706"/><path stroke="#222" stroke-width="4" d="M88.46 82.674h120.196"/><path stroke="#222" stroke-linecap="round" stroke-width="4" d="M126.681 50.105c15.162 9.314 30.758 8.23 43.755 0"/><ellipse cx="173.335" cy="46.298" fill="#FF6262" rx="8.698" ry="8.962"/><path fill="#FF6262" d="M132.743 46.298a8.962 8.962 0 1 1-17.925-.001 8.962 8.962 0 0 1 17.925 0Z"/><path fill="#222" d="M143.696 41.623c0 2.366-1.98 4.284-4.422 4.284-2.443 0-4.422-1.918-4.422-4.284 0-2.366 1.979-4.284 4.422-4.284 2.442 0 4.422 1.918 4.422 4.284Z"/><ellipse cx="158.252" cy="41.62" fill="#222" rx="4.422" ry="4.284"/><path stroke="#222" stroke-linecap="round" stroke-width="4" d="M242.112 173.545c4.003 6.451 9.101 3.725 11.149 1.556m-11.149-1.556a36.01 36.01 0 0 0-1.286-.078c-12.578 3.332-24.021 9.074-24.299 12.102-.286 3.113 0 5.093 0 5.8 0 .566 25.442.236 38.164 0 .857-4.526 1.772-14.117-1.43-16.268m-11.149-1.556 2.778-11.099 11.173.931-2.802 11.724"/><path stroke="#222" stroke-linecap="round" stroke-width="4" d="M224.22 179.89c1.158 1.74 2.315 2.609 4.341 2.464 2.025-.145 5.932-2.029 9.549-3.479 2.893-1.159 4.919-2.029 6.221-2.464m10.429 8.568c-21.297 2.332-33.454 1.413-36.87.662m62.178-12.654c-4.002 6.45-9.1 3.725-11.149 1.556m11.149-1.556c.434-.034.863-.06 1.287-.078 12.578 3.331 24.021 9.073 24.299 12.102.286 3.112 0 5.092 0 5.8 0 .565-25.443.235-38.164 0-.858-4.527-1.772-14.118 1.429-16.268m11.149-1.556v-10.541h-11.149v12.097"/><path stroke="#222" stroke-linecap="round" stroke-width="4" d="M297.96 179.332c-1.158 1.74-2.315 2.61-4.341 2.465-2.025-.145-5.932-2.03-9.549-3.479-2.893-1.16-4.919-2.03-6.221-2.464m-10.428 8.566c21.296 2.333 33.453 1.414 36.87.663"/><path fill="#F53636" fill-opacity=".15" stroke="#222" stroke-linecap="round" stroke-width="4" d="M213.009 130.159c-1.083-18.884 11.607-46.872 47.98-36.887 29.527-9.236 52.11 10.433 48.533 36.887-2.555 18.886-13.413 33.761-48.533 31.159-43.652 6.77-47.455-21.994-47.98-31.159Z"/><path fill="#F53636" fill-opacity=".15" stroke="#222" stroke-linecap="round" stroke-width="4" d="M213.009 57.18c-1.083-18.883 11.607-46.872 47.98-36.886 29.527-9.237 52.11 10.433 48.533 36.886-2.555 18.887-13.413 33.761-48.533 31.16-43.652 6.77-47.455-21.995-47.98-31.16Z"/><path stroke="#222" stroke-linecap="round" stroke-width="4" d="M244.907 127.715c6.402 7.458 23.413 8.159 30.364 0m-30.364-72.978c6.402 7.459 23.413 8.16 30.364 0"/><path fill="#FF6262" d="M246.505 49.675a6.659 6.659 0 1 1-13.317 0 6.659 6.659 0 0 1 13.317 0Zm0 75.11a6.658 6.658 0 1 1-13.317 0 6.658 6.658 0 0 1 13.317 0Zm38.353-75.11a6.658 6.658 0 1 1-13.317 0 6.658 6.658 0 0 1 13.317 0Zm0 75.11a6.658 6.658 0 1 1-13.316 0 6.658 6.658 0 0 1 13.316 0Z"/><path fill="#222" d="M257.8 123.386c0 1.671-1.431 3.026-3.196 3.026-1.765 0-3.196-1.355-3.196-3.026 0-1.672 1.431-3.027 3.196-3.027 1.765 0 3.196 1.355 3.196 3.027Zm0-72.976c0 1.67-1.431 3.026-3.196 3.026-1.765 0-3.196-1.355-3.196-3.027 0-1.671 1.431-3.026 3.196-3.026 1.765 0 3.196 1.355 3.196 3.026Z"/><ellipse cx="263.551" cy="123.207" fill="#222" rx="3.196" ry="2.95"/><ellipse cx="263.551" cy="50.23" fill="#222" rx="3.196" ry="2.95"/><path stroke="#222" stroke-linecap="round" stroke-width="4" d="M23.84 150.088v16.324m12.527-13.697c0 6.942-.773 10.432.553 12.383 1.658 2.439 28.002 20.452 13.448 28.52-10.08 5.588-23.274-9.569-26.528-15.386v-11.82m11.975-.563c-.251.204-.505.391-.762.563m-11.213 0c2.027 1.239 6.95 2.845 11.213 0m-8.45 1.876c10.87 10.32 14.738 12.571 17.87 11.07 2.506-1.201-5.973-9.006-9.42-12.946"/><path stroke="#222" stroke-linecap="round" stroke-width="4" d="M51.007 180.589c-1.698 8.137-9.622 9.222-27.167-7.595m36.223-23.972 8.523 12.252"/><path fill="#FCEDC8" stroke="#222" stroke-linecap="round" stroke-width="4" d="M10.563 61.665c-.714 9.244 1.738 16.371-3.93 37.33-2.142 6.044-7.643 23.394-2.5 35.909 6.43 15.643 26.791 20.266 53.225 14.222 26.434-6.044 31.077-34.843 23.219-46.22-11.677-16.904-19.29-25.133-23.22-42.91C53.43 42.22 39.14 35.712 29.139 38.201c-10.002 2.489-17.86 14.22-18.575 23.464Z"/><path stroke="#222" stroke-linecap="round" stroke-width="4" d="M21.71 103.979c9.393 8.057 12.398 1.535 19.913 1.535 7.514 0 10.144 5.946 18.973-2.302"/><path fill="#222" d="M37.375 97.355c0 1.474-1.234 2.669-2.756 2.669-1.522 0-2.756-1.195-2.756-2.67 0-1.474 1.234-2.67 2.756-2.67 1.522 0 2.756 1.196 2.756 2.67Z"/><ellipse cx="46.213" cy="97.351" fill="#222" rx="3.196" ry="2.663"/><path fill="#FF6262" d="M24.906 100.548a5.327 5.327 0 1 1-10.654 0 5.327 5.327 0 0 1 10.654 0Z"/><ellipse cx="62.194" cy="98.151" fill="#FF6262" rx="5.327" ry="5.593"/><path fill="#fff" stroke="#222" stroke-linecap="round" stroke-width="4" d="M71.949 165.108c-6.212-4.886-3.929-11.317-1.212-15.868 2.715-4.547 5.986-6.463 7.103-9.358 1.397-3.619 3.604-11.498 5.845-15.976 2.24-4.478 12.438-11.148 19.491-8.093 7.053 3.055 6.381 14.59 4.819 18.721-1.563 4.131-9.542 10.947-11.36 13.414-1.816 2.468-3.419 9.524-7.053 14.459-3.634 4.935-9.869 8.809-17.633 2.701Z"/><path stroke="#222" stroke-linecap="round" stroke-width="4" d="m78.175 149.021 7.457 4.795m2.131-20.242 7.458 4.262m-5.86-10.654 9.589 5.859m-4.261-10.653 6.924 4.794m-26.634 28.765 6.392 3.196"/><path fill="#fff" stroke="#222" stroke-linecap="round" stroke-width="4" d="M282.083 98.903c-5.874-3.215-4.866-8.909-3.232-13.093 1.633-4.18 4.098-6.238 4.627-8.814.661-3.22 1.403-10.113 2.649-14.17 1.247-4.055 8.836-11.056 15.157-9.49 6.322 1.566 7.374 11.3 6.647 14.972-.728 3.67-6.443 10.484-7.617 12.8-1.173 2.316-1.525 8.438-3.872 13.07-2.346 4.633-7.015 8.743-14.359 4.725Z"/><path stroke="#222" stroke-linecap="round" stroke-width="4" d="m285.037 84.587 6.903 2.963m-1.052-17.216 6.829 2.518m-6.387-8.082 8.833 3.555m-5.052-8.308 6.458 3.037m-18.236 27.767 5.79 1.777"/><path fill="#fff" stroke="#222" stroke-linecap="round" stroke-width="4" d="M236.945 102.468c-6.626.974-9.252-4.178-10.468-8.501-1.216-4.32-.489-7.448-1.619-9.823-1.413-2.968-4.974-8.917-6.423-12.905-1.45-3.988.389-14.147 6.378-16.707 5.989-2.559 12.694 4.576 14.325 7.944 1.631 3.368 1.175 12.25 1.635 14.805.459 2.556 3.867 7.653 4.785 12.764.919 5.111-.331 11.205-8.613 12.423Z"/><path stroke="#222" stroke-linecap="round" stroke-width="4" d="m230.676 89.264 7.295-1.795m-11.212-13.106 6.967-2.105m-9.969-2.602 9.192-2.485m-9.038-3.585 6.985-1.467m2.178 33.148 5.691-2.07M18.513 22.982c3.321 2.052 10.106 8.233 11.387 15.773l1.957-.288 1.957-.289c1.14-9.695-4.626-17.376-7.65-20.197l-7.65 5Z"/><path fill="#222" d="m238.515 93.73 9.533-2.735v-6.96l9.032 5.468 9.533-3.977 3.011 3.977 7.777 1.492-7.777 4.226 4.516 6.96-13.046-4.226-10.035 8.452v-8.452l-12.544-4.226Zm0-72.98 9.533-2.735v-6.96l9.032 5.469 9.533-3.978 3.011 3.978 7.777 1.491-7.777 4.226 4.516 6.96-13.046-4.225-10.035 8.452v-8.452l-12.544-4.226Z"/><path stroke="#222" stroke-linecap="round" stroke-width="4" d="M261.857 2h-7.362c1.578 7.097 5.258 20.438 7.362 17.032 2.103-3.406.876-12.774 0-17.032Z"/></svg>