<svg width="300" height="185" xmlns="http://www.w3.org/2000/svg"><path fill="#e8c33e" stroke="#222" stroke-linecap="round" stroke-width="4" d="M110.968 158.691c.51-.041 1.015-.071 1.514-.092 14.8 3.92 28.263 10.676 28.59 14.239.337 3.662 0 5.992 0 6.824 0 .666-29.936.278-44.904 0-1.009-5.326-2.085-16.611 1.682-19.14m13.119-1.831c-4.71 7.589-10.708 4.383-13.119 1.831m-31.543-1.174c-.51-.04-1.015-.071-1.514-.092-14.8 3.92-28.263 10.676-28.59 14.24-.337 3.661 0 5.992 0 6.824 0 .666 29.936.277 44.904 0 1.009-5.326 2.085-16.611-1.682-19.141m-13.118-1.831c4.709 7.59 10.707 4.383 13.118 1.831"/><path fill="none" stroke="#222" stroke-linecap="round" stroke-width="4" d="m66.307 159.348 3.268-13.059c17.245 1.363 13.789-1.595 9.85 14.89m-34.17 5.636c1.362 2.046 2.724 3.07 5.107 2.899 6.838-1.653 11.94-4.746 18.556-6.993M81.187 172.8c-25.057 2.745-39.362 1.664-43.382.78m73.163-14.889v-12.402c-17.119-.103-13.118-2.618-13.118 14.233m34.169 5.634c-1.362 2.047-2.724 3.07-5.107 2.9-6.837-1.654-11.939-4.747-18.555-6.993m-12.269 10.08c25.057 2.745 39.362 1.663 43.381.78"/><path fill="#fcedc8" d="m66.326 159.246 2.174-8.699 12.686 3.987-1.813 6.886c-6.088 4.929-11.235.604-13.047-2.174zm44.579-1.088-.362-10.148-12.323 4.712v7.611c6.09 4.929 10.873.604 12.686-2.175z"/><path fill="#f6b4ce" stroke="#222" stroke-linecap="round" stroke-width="4" d="M32.063 101.406c-1.273-22.219 13.658-55.15 56.456-43.403 34.741-10.867 61.314 12.276 57.104 43.402-3.005 22.222-25.258 45.699-57.104 54.787-49.322-11.594-55.838-44.002-56.456-54.786Z"/><path fill="#fff" stroke="#222" stroke-width="4" d="M152.41 17.313c0-7.18 5.821-13 13-13h89.603c7.179 0 13 5.82 13 13v148.316c0 7.18-5.821 13-13 13H165.41c-7.179 0-13-5.82-13-13z"/><circle cx="91.532" cy="100.121" r="3.76" fill="#222"/><circle cx="81.005" cy="100.121" r="3.76" fill="#222"/><circle cx="218.91" cy="38.194" r="3.987" fill="#222"/><circle cx="200.952" cy="38.194" r="3.987" fill="#222"/><path fill="none" stroke="#222" stroke-linecap="round" stroke-width="4" d="M153.31 76.249h114.528M166.357 53.053v13.048m0 22.471v13.047m23.196-55.815c14.067 9.227 28.535 8.154 40.592 0m-160.55 59.621c7.532 8.776 27.548 9.601 35.726 0"/><path fill="#f53636" d="M193.895 42.543a7.97 7.97 0 0 1-7.97 7.97 7.97 7.97 0 0 1-7.97-7.97 7.97 7.97 0 0 1 7.97-7.97 7.97 7.97 0 0 1 7.97 7.97zm47.12 0a7.97 7.97 0 0 1-7.97 7.97 7.97 7.97 0 0 1-7.97-7.97 7.97 7.97 0 0 1 7.97-7.97 7.97 7.97 0 0 1 7.97 7.97zM73.979 101.351a7.52 7.52 0 0 1-7.52 7.52 7.52 7.52 0 0 1-7.52-7.52 7.52 7.52 0 0 1 7.52-7.52 7.52 7.52 0 0 1 7.52 7.52zm41.37.119a7.52 7.52 0 0 1-7.52 7.52 7.52 7.52 0 0 1-7.52-7.52 7.52 7.52 0 0 1 7.52-7.52 7.52 7.52 0 0 1 7.52 7.52z"/><path fill="#dc743e" stroke="#222" stroke-linecap="round" stroke-width="4" d="M94.353 44.628H80.877c1.856 5.06 7.919 15.532 8.662 12.145.74-3.37 3.56-9.325 4.814-12.145z"/><path fill="#222" d="M110.532 46.283c-2.73 5.114-10.643 14.306-20.45 10.168 1.247-4.452 7.084-12.718 20.45-10.168zm-44.917 0c2.73 5.114 10.643 14.306 20.45 10.168-1.247-4.452-7.084-12.718-20.45-10.168z"/></svg>